<svg width="341" height="341" viewBox="0 0 341 341" fill="none" xmlns="http://www.w3.org/2000/svg">
<path fill-rule="evenodd" clip-rule="evenodd" d="M0 0H176H218L341 124.5V166V341H0V0Z" fill="#F30830"/>
<path d="M50.68 148H46.44C45.96 148 45.68 147.773 45.6 147.32L40.84 122.96C40.7867 122.507 41.0133 122.28 41.52 122.28H44.6C45.1067 122.28 45.3733 122.507 45.4 122.96L48.64 143.92H48.88L53.6 122.88C53.6533 122.48 53.8933 122.28 54.32 122.28H57.68C58.1067 122.28 58.36 122.48 58.44 122.88L63.2 143.92H63.44L66.68 123C66.7067 122.52 66.9733 122.28 67.48 122.28H70.56C71.0933 122.28 71.32 122.52 71.24 123L66.48 147.32C66.4 147.773 66.1333 148 65.68 148H61.44C60.9867 148 60.72 147.773 60.64 147.32L56.12 127.08H55.96L51.44 147.32C51.36 147.773 51.1067 148 50.68 148ZM77.7903 148H75.2703C74.817 148 74.5903 147.773 74.5903 147.32V120.56C74.5903 120.107 74.817 119.88 75.2703 119.88H77.7903C78.2436 119.88 78.4703 120.107 78.4703 120.56V129.72H78.6303C79.2703 128.307 80.617 127.6 82.6703 127.6H84.4303C86.377 127.6 87.8703 128.133 88.9103 129.2C89.9503 130.267 90.4703 131.8 90.4703 133.8V147.32C90.4703 147.773 90.2303 148 89.7503 148H87.2303C86.777 148 86.5503 147.773 86.5503 147.32V133.96C86.5503 131.987 85.577 131 83.6303 131H81.7503C79.5636 131 78.4703 132.133 78.4703 134.4V147.32C78.4703 147.773 78.2436 148 77.7903 148ZM102.614 148H101.054C99.081 148 97.5477 147.453 96.4544 146.36C95.3877 145.267 94.8544 143.747 94.8544 141.8V133.8C94.8544 131.827 95.3877 130.307 96.4544 129.24C97.5477 128.147 99.081 127.6 101.054 127.6H110.014C110.494 127.6 110.734 127.827 110.734 128.28V147.32C110.734 147.773 110.494 148 110.014 148H107.494C107.041 148 106.814 147.773 106.814 147.32V145.88H106.654C106.014 147.293 104.668 148 102.614 148ZM106.814 141.2V131.4C106.814 131.133 106.668 131 106.374 131H101.614C99.6944 131 98.7344 131.987 98.7344 133.96V141.64C98.7344 143.613 99.6944 144.6 101.614 144.6H103.534C105.721 144.6 106.814 143.467 106.814 141.2ZM116.323 131H114.403C114.136 131 113.95 130.96 113.843 130.88C113.763 130.773 113.723 130.6 113.723 130.36V128.28C113.723 127.827 113.95 127.6 114.403 127.6H116.323C116.59 127.6 116.723 127.467 116.723 127.2V123.6C116.723 123.147 116.963 122.92 117.443 122.92H119.963C120.416 122.92 120.643 123.147 120.643 123.6V127.2C120.643 127.467 120.79 127.6 121.083 127.6H124.803C125.283 127.6 125.523 127.827 125.523 128.28V130.36C125.523 130.787 125.283 131 124.803 131H121.083C120.79 131 120.643 131.133 120.643 131.4V141.68C120.643 143.627 121.643 144.6 123.643 144.6H125.203C125.683 144.6 125.923 144.827 125.923 145.28V147.36C125.923 147.787 125.683 148 125.203 148H123.043C121.07 148 119.523 147.467 118.403 146.4C117.283 145.333 116.723 143.827 116.723 141.88V131.4C116.723 131.133 116.59 131 116.323 131ZM141.678 154.48H139.558C139.104 154.48 138.878 154.253 138.878 153.8V151.76C138.878 151.28 139.104 151.04 139.558 151.04H140.478C142.104 151.04 143.224 150.72 143.838 150.08C144.478 149.44 145.011 148.387 145.438 146.92H143.838C143.438 146.92 143.158 146.693 142.998 146.24L137.678 128.28C137.571 127.827 137.744 127.6 138.198 127.6H140.878C141.304 127.6 141.571 127.827 141.678 128.28L146.038 143.96H146.198L150.558 128.28C150.638 127.827 150.904 127.6 151.358 127.6H153.918C154.424 127.6 154.638 127.84 154.558 128.32L149.078 147.56C148.464 149.8 147.598 151.507 146.478 152.68C145.358 153.88 143.758 154.48 141.678 154.48ZM167.27 148H163.75C161.776 148 160.243 147.453 159.15 146.36C158.083 145.267 157.55 143.747 157.55 141.8V133.8C157.55 131.827 158.083 130.307 159.15 129.24C160.243 128.147 161.776 127.6 163.75 127.6H167.27C169.216 127.6 170.736 128.147 171.83 129.24C172.95 130.307 173.51 131.827 173.51 133.8V141.8C173.51 143.747 172.95 145.267 171.83 146.36C170.736 147.453 169.216 148 167.27 148ZM164.31 144.6H166.75C168.67 144.6 169.63 143.627 169.63 141.68V133.92C169.63 131.973 168.67 131 166.75 131H164.31C163.296 131 162.563 131.24 162.11 131.72C161.656 132.173 161.43 132.907 161.43 133.92V141.68C161.43 142.693 161.656 143.44 162.11 143.92C162.563 144.373 163.296 144.6 164.31 144.6ZM185.666 148H183.866C181.946 148 180.466 147.467 179.426 146.4C178.413 145.307 177.906 143.773 177.906 141.8V128.28C177.906 127.827 178.133 127.6 178.586 127.6H181.106C181.559 127.6 181.786 127.827 181.786 128.28V141.64C181.786 143.613 182.746 144.6 184.666 144.6H186.586C188.773 144.6 189.866 143.467 189.866 141.2V128.28C189.866 127.827 190.093 127.6 190.546 127.6H193.066C193.546 127.6 193.786 127.827 193.786 128.28V147.32C193.786 147.773 193.546 148 193.066 148H190.546C190.093 148 189.866 147.773 189.866 147.32V145.88H189.706C189.066 147.293 187.719 148 185.666 148ZM220.701 145.28V147.36C220.701 147.787 220.461 148 219.981 148H214.101C212.128 148 210.595 147.453 209.501 146.36C208.435 145.267 207.901 143.747 207.901 141.8V133.8C207.901 131.827 208.435 130.307 209.501 129.24C210.595 128.147 212.128 127.6 214.101 127.6H219.981C220.461 127.6 220.701 127.827 220.701 128.28V130.36C220.701 130.787 220.461 131 219.981 131H214.661C212.741 131 211.781 131.987 211.781 133.96V141.64C211.781 143.613 212.741 144.6 214.661 144.6H219.981C220.461 144.6 220.701 144.827 220.701 145.28ZM231.872 148H230.312C228.339 148 226.806 147.453 225.712 146.36C224.646 145.267 224.112 143.747 224.112 141.8V133.8C224.112 131.827 224.646 130.307 225.712 129.24C226.806 128.147 228.339 127.6 230.312 127.6H239.272C239.752 127.6 239.992 127.827 239.992 128.28V147.32C239.992 147.773 239.752 148 239.272 148H236.752C236.299 148 236.072 147.773 236.072 147.32V145.88H235.912C235.272 147.293 233.926 148 231.872 148ZM236.072 141.2V131.4C236.072 131.133 235.926 131 235.632 131H230.872C228.952 131 227.992 131.987 227.992 133.96V141.64C227.992 143.613 228.952 144.6 230.872 144.6H232.792C234.979 144.6 236.072 143.467 236.072 141.2ZM248.181 148H245.661C245.208 148 244.981 147.773 244.981 147.32V128.28C244.981 127.827 245.208 127.6 245.661 127.6H248.181C248.634 127.6 248.861 127.827 248.861 128.28V129.72H249.021C249.661 128.307 251.008 127.6 253.061 127.6H254.821C256.768 127.6 258.261 128.133 259.301 129.2C260.341 130.267 260.861 131.8 260.861 133.8V147.32C260.861 147.773 260.621 148 260.141 148H257.621C257.168 148 256.941 147.773 256.941 147.32V133.96C256.941 131.987 255.968 131 254.021 131H252.141C249.954 131 248.861 132.133 248.861 134.4V147.32C248.861 147.773 248.634 148 248.181 148ZM56.96 198H48.32C46.3467 198 44.8133 197.453 43.72 196.36C42.6533 195.267 42.12 193.747 42.12 191.8V183.8C42.12 181.827 42.6533 180.307 43.72 179.24C44.8133 178.147 46.3467 177.6 48.32 177.6H51.6C53.5733 177.6 55.1067 178.147 56.2 179.24C57.2933 180.307 57.84 181.827 57.84 183.8V188.88C57.84 189.36 57.6 189.6 57.12 189.6H46.4C46.1067 189.6 45.96 189.733 45.96 190V191.72C45.96 193.667 46.9333 194.64 48.88 194.64H56.96C57.44 194.64 57.68 194.88 57.68 195.36V197.36C57.68 197.787 57.44 198 56.96 198ZM46.4 186.88H53.56C53.8267 186.88 53.96 186.747 53.96 186.48V183.92C53.96 182.907 53.7333 182.173 53.28 181.72C52.8267 181.24 52.0933 181 51.08 181H48.88C47.8667 181 47.1333 181.24 46.68 181.72C46.2267 182.173 46 182.907 46 183.92V186.48C46 186.747 46.1333 186.88 46.4 186.88ZM64.1666 198H61.1266C60.5399 198 60.3932 197.773 60.6866 197.32L66.0066 187.6L60.8066 178.28C60.5132 177.827 60.6332 177.6 61.1666 177.6H64.2466C64.7532 177.6 65.0999 177.827 65.2866 178.28L68.5266 185.16H68.6866L71.7266 178.28C71.9132 177.827 72.2466 177.6 72.7266 177.6H75.7666C76.3266 177.6 76.4599 177.827 76.1666 178.28L71.1266 187.56L76.5666 197.32C76.8332 197.773 76.7132 198 76.2066 198H73.0466C72.5932 198 72.2732 197.773 72.0866 197.32L68.6866 190.24H68.5266L65.1666 197.32C64.9799 197.773 64.6466 198 64.1666 198ZM83.1809 203.64H80.6609C80.2076 203.64 79.9809 203.413 79.9809 202.96V178.28C79.9809 177.827 80.2076 177.6 80.6609 177.6H83.1809C83.6343 177.6 83.8609 177.827 83.8609 178.28V179.72H84.0209C84.6609 178.307 86.0076 177.6 88.0609 177.6H90.1009C92.0209 177.6 93.4876 178.133 94.5009 179.2C95.5409 180.267 96.0609 181.8 96.0609 183.8V191.8C96.0609 193.773 95.5409 195.307 94.5009 196.4C93.4876 197.467 92.0209 198 90.1009 198H88.0609C86.0076 198 84.6609 197.293 84.0209 195.88H83.8609V202.96C83.8609 203.413 83.6343 203.64 83.1809 203.64ZM87.1409 194.6H89.2609C91.1809 194.6 92.1409 193.613 92.1409 191.64V183.96C92.1409 181.987 91.1809 181 89.2609 181H87.1409C84.9543 181 83.8609 182.133 83.8609 184.4V191.2C83.8609 193.467 84.9543 194.6 87.1409 194.6ZM115.124 198H106.484C104.511 198 102.977 197.453 101.884 196.36C100.817 195.267 100.284 193.747 100.284 191.8V183.8C100.284 181.827 100.817 180.307 101.884 179.24C102.977 178.147 104.511 177.6 106.484 177.6H109.764C111.737 177.6 113.271 178.147 114.364 179.24C115.457 180.307 116.004 181.827 116.004 183.8V188.88C116.004 189.36 115.764 189.6 115.284 189.6H104.564C104.271 189.6 104.124 189.733 104.124 190V191.72C104.124 193.667 105.097 194.64 107.044 194.64H115.124C115.604 194.64 115.844 194.88 115.844 195.36V197.36C115.844 197.787 115.604 198 115.124 198ZM104.564 186.88H111.724C111.991 186.88 112.124 186.747 112.124 186.48V183.92C112.124 182.907 111.897 182.173 111.444 181.72C110.991 181.24 110.257 181 109.244 181H107.044C106.031 181 105.297 181.24 104.844 181.72C104.391 182.173 104.164 182.907 104.164 183.92V186.48C104.164 186.747 104.297 186.88 104.564 186.88ZM132.811 195.28V197.36C132.811 197.787 132.571 198 132.091 198H126.211C124.237 198 122.704 197.453 121.611 196.36C120.544 195.267 120.011 193.747 120.011 191.8V183.8C120.011 181.827 120.544 180.307 121.611 179.24C122.704 178.147 124.237 177.6 126.211 177.6H132.091C132.571 177.6 132.811 177.827 132.811 178.28V180.36C132.811 180.787 132.571 181 132.091 181H126.771C124.851 181 123.891 181.987 123.891 183.96V191.64C123.891 193.613 124.851 194.6 126.771 194.6H132.091C132.571 194.6 132.811 194.827 132.811 195.28ZM137.222 181H135.302C135.035 181 134.848 180.96 134.742 180.88C134.662 180.773 134.622 180.6 134.622 180.36V178.28C134.622 177.827 134.848 177.6 135.302 177.6H137.222C137.488 177.6 137.622 177.467 137.622 177.2V173.6C137.622 173.147 137.862 172.92 138.342 172.92H140.862C141.315 172.92 141.542 173.147 141.542 173.6V177.2C141.542 177.467 141.688 177.6 141.982 177.6H145.702C146.182 177.6 146.422 177.827 146.422 178.28V180.36C146.422 180.787 146.182 181 145.702 181H141.982C141.688 181 141.542 181.133 141.542 181.4V191.68C141.542 193.627 142.542 194.6 144.542 194.6H146.102C146.582 194.6 146.822 194.827 146.822 195.28V197.36C146.822 197.787 146.582 198 146.102 198H143.942C141.968 198 140.422 197.467 139.302 196.4C138.182 195.333 137.622 193.827 137.622 191.88V181.4C137.622 181.133 137.488 181 137.222 181ZM160.776 181H158.856C158.59 181 158.403 180.96 158.296 180.88C158.216 180.773 158.176 180.6 158.176 180.36V178.28C158.176 177.827 158.403 177.6 158.856 177.6H160.776C161.043 177.6 161.176 177.467 161.176 177.2V173.6C161.176 173.147 161.416 172.92 161.896 172.92H164.416C164.87 172.92 165.096 173.147 165.096 173.6V177.2C165.096 177.467 165.243 177.6 165.536 177.6H169.256C169.736 177.6 169.976 177.827 169.976 178.28V180.36C169.976 180.787 169.736 181 169.256 181H165.536C165.243 181 165.096 181.133 165.096 181.4V191.68C165.096 193.627 166.096 194.6 168.096 194.6H169.656C170.136 194.6 170.376 194.827 170.376 195.28V197.36C170.376 197.787 170.136 198 169.656 198H167.496C165.523 198 163.976 197.467 162.856 196.4C161.736 195.333 161.176 193.827 161.176 191.88V181.4C161.176 181.133 161.043 181 160.776 181ZM183.52 198H180C178.026 198 176.493 197.453 175.4 196.36C174.333 195.267 173.8 193.747 173.8 191.8V183.8C173.8 181.827 174.333 180.307 175.4 179.24C176.493 178.147 178.026 177.6 180 177.6H183.52C185.466 177.6 186.986 178.147 188.08 179.24C189.2 180.307 189.76 181.827 189.76 183.8V191.8C189.76 193.747 189.2 195.267 188.08 196.36C186.986 197.453 185.466 198 183.52 198ZM180.56 194.6H183C184.92 194.6 185.88 193.627 185.88 191.68V183.92C185.88 181.973 184.92 181 183 181H180.56C179.546 181 178.813 181.24 178.36 181.72C177.906 182.173 177.68 182.907 177.68 183.92V191.68C177.68 192.693 177.906 193.44 178.36 193.92C178.813 194.373 179.546 194.6 180.56 194.6ZM45.72 248H43.2C42.7467 248 42.52 247.773 42.52 247.32V228.28C42.52 227.827 42.7467 227.6 43.2 227.6H45.72C46.1733 227.6 46.4 227.827 46.4 228.28V229.8H46.56C46.8267 229.133 47.3333 228.6 48.08 228.2C48.8533 227.8 49.7067 227.6 50.64 227.6H52.12C52.5733 227.6 52.8 227.827 52.8 228.28V230.36C52.8 230.867 52.5733 231.08 52.12 231H49.72C47.5067 231 46.4 232.213 46.4 234.64V247.32C46.4 247.773 46.1733 248 45.72 248ZM70.3584 248H61.7184C59.7451 248 58.2118 247.453 57.1184 246.36C56.0518 245.267 55.5184 243.747 55.5184 241.8V233.8C55.5184 231.827 56.0518 230.307 57.1184 229.24C58.2118 228.147 59.7451 227.6 61.7184 227.6H64.9984C66.9718 227.6 68.5051 228.147 69.5984 229.24C70.6918 230.307 71.2384 231.827 71.2384 233.8V238.88C71.2384 239.36 70.9984 239.6 70.5184 239.6H59.7984C59.5051 239.6 59.3584 239.733 59.3584 240V241.72C59.3584 243.667 60.3318 244.64 62.2784 244.64H70.3584C70.8384 244.64 71.0784 244.88 71.0784 245.36V247.36C71.0784 247.787 70.8384 248 70.3584 248ZM59.7984 236.88H66.9584C67.2251 236.88 67.3584 236.747 67.3584 236.48V233.92C67.3584 232.907 67.1318 232.173 66.6784 231.72C66.2251 231.24 65.4918 231 64.4784 231H62.2784C61.2651 231 60.5318 231.24 60.0784 231.72C59.6251 232.173 59.3984 232.907 59.3984 233.92V236.48C59.3984 236.747 59.5318 236.88 59.7984 236.88ZM88.045 245.28V247.36C88.045 247.787 87.805 248 87.325 248H81.445C79.4717 248 77.9383 247.453 76.845 246.36C75.7783 245.267 75.245 243.747 75.245 241.8V233.8C75.245 231.827 75.7783 230.307 76.845 229.24C77.9383 228.147 79.4717 227.6 81.445 227.6H87.325C87.805 227.6 88.045 227.827 88.045 228.28V230.36C88.045 230.787 87.805 231 87.325 231H82.005C80.085 231 79.125 231.987 79.125 233.96V241.64C79.125 243.613 80.085 244.6 82.005 244.6H87.325C87.805 244.6 88.045 244.827 88.045 245.28ZM106.296 248H97.6559C95.6826 248 94.1493 247.453 93.0559 246.36C91.9893 245.267 91.4559 243.747 91.4559 241.8V233.8C91.4559 231.827 91.9893 230.307 93.0559 229.24C94.1493 228.147 95.6826 227.6 97.6559 227.6H100.936C102.909 227.6 104.443 228.147 105.536 229.24C106.629 230.307 107.176 231.827 107.176 233.8V238.88C107.176 239.36 106.936 239.6 106.456 239.6H95.7359C95.4426 239.6 95.2959 239.733 95.2959 240V241.72C95.2959 243.667 96.2693 244.64 98.2159 244.64H106.296C106.776 244.64 107.016 244.88 107.016 245.36V247.36C107.016 247.787 106.776 248 106.296 248ZM95.7359 236.88H102.896C103.163 236.88 103.296 236.747 103.296 236.48V233.92C103.296 232.907 103.069 232.173 102.616 231.72C102.163 231.24 101.429 231 100.416 231H98.2159C97.2026 231 96.4693 231.24 96.0159 231.72C95.5626 232.173 95.3359 232.907 95.3359 233.92V236.48C95.3359 236.747 95.4693 236.88 95.7359 236.88ZM111.783 224.2V220.56C111.783 220.133 111.996 219.92 112.423 219.92H115.023C115.449 219.92 115.663 220.133 115.663 220.56V224.2C115.663 224.653 115.449 224.88 115.023 224.88H112.423C111.996 224.88 111.783 224.653 111.783 224.2ZM111.783 247.32V228.28C111.783 227.827 111.996 227.6 112.423 227.6H114.983C115.436 227.6 115.663 227.827 115.663 228.28V247.32C115.663 247.587 115.609 247.773 115.503 247.88C115.423 247.96 115.263 248 115.023 248H112.463C112.009 248 111.783 247.773 111.783 247.32ZM119.638 227.6H122.318C122.745 227.6 122.998 227.827 123.078 228.28L127.238 244.36H127.518L131.598 228.28C131.705 227.827 131.985 227.6 132.438 227.6H135.078C135.558 227.6 135.718 227.827 135.558 228.28L130.158 247.28C130.052 247.76 129.758 248 129.278 248H125.438C124.958 248 124.665 247.76 124.558 247.28L119.158 228.28C119.052 227.827 119.212 227.6 119.638 227.6ZM153.288 248H144.648C142.675 248 141.141 247.453 140.048 246.36C138.981 245.267 138.448 243.747 138.448 241.8V233.8C138.448 231.827 138.981 230.307 140.048 229.24C141.141 228.147 142.675 227.6 144.648 227.6H147.928C149.901 227.6 151.435 228.147 152.528 229.24C153.621 230.307 154.168 231.827 154.168 233.8V238.88C154.168 239.36 153.928 239.6 153.448 239.6H142.728C142.435 239.6 142.288 239.733 142.288 240V241.72C142.288 243.667 143.261 244.64 145.208 244.64H153.288C153.768 244.64 154.008 244.88 154.008 245.36V247.36C154.008 247.787 153.768 248 153.288 248ZM142.728 236.88H149.888C150.155 236.88 150.288 236.747 150.288 236.48V233.92C150.288 232.907 150.061 232.173 149.608 231.72C149.155 231.24 148.421 231 147.408 231H145.208C144.195 231 143.461 231.24 143.008 231.72C142.555 232.173 142.328 232.907 142.328 233.92V236.48C142.328 236.747 142.461 236.88 142.728 236.88Z" fill="white"/>
</svg>
