<?xml version="1.0" encoding="utf-8"?><svg xmlns="http://www.w3.org/2000/svg" xmlns:xlink="http://www.w3.org/1999/xlink"><symbol viewBox="0 0 20 26" id="i-why-0" xmlns="http://www.w3.org/2000/svg"><g fill="none"><path d="M8.25 25.044l.975.692c.214.153.5.153.714 0l.977-.692c1.811-1.271 3.682-2.605 5.16-4.023 2.114-2.035 3.09-3.943 3.09-6.003V7.433a3.744 3.744 0 0 0-1.95-3.295L11.342.948a3.683 3.683 0 0 0-3.518 0l-5.873 3.19A3.744 3.744 0 0 0 0 7.433v7.585c0 2.06.986 3.968 3.091 6.003 1.478 1.418 3.351 2.752 5.16 4.023z" fill="#F8868C" opacity=".8"/><path d="M8.75.596v24.803l-.5-.355c-1.808-1.271-3.68-2.605-5.159-4.023C.986 18.986 0 17.078 0 15.018V7.433C0 6.056.749 4.79 1.95 4.138L7.825.948C8.12.786 8.431.67 8.75.595zm10.417 6.833v7.591-7.59z" fill="#FFF"/></g></symbol><symbol viewBox="0 0 26 26" id="i-why-1" xmlns="http://www.w3.org/2000/svg"><g fill="none" fill-rule="evenodd"><path d="M26 17.5V2a2 2 0 0 0-2-2H2a2 2 0 0 0-2 2v15.5a2 2 0 0 0 2 2h22a2 2 0 0 0 2-2z" fill="#FFF" fill-rule="nonzero"/><path fill="#F3323D" d="M4 5h12v2H4zm0 4h6v2H4z"/><circle fill="#F8868C" cx="17.1" cy="15.6" r="5.2"/><path d="M17.056 15.875l.649-.375.649 1.124.65.376-.216.376 4.117 7.13-2.598 1.5-3.251-5.63-3.251 5.63-2.598-1.5 4.117-7.13-.217-.376.65-.376.65-1.124.649.375z" fill="#F8868C"/></g></symbol><symbol viewBox="0 0 26 23" id="i-why-2" xmlns="http://www.w3.org/2000/svg"><g fill="none"><path d="M1.815 20.298a8.97 8.97 0 0 1 7.72.791l2.772 1.713c.215.132.454.198.693.198V3.23a1.32 1.32 0 0 1-.693-.197L9.503 1.32A8.91 8.91 0 0 0 1.815.53L.89.858A1.35 1.35 0 0 0 0 2.11v16.935c.066.923.957 1.549 1.815 1.252z" fill="#FFF"/><path d="M24.185 20.298a8.97 8.97 0 0 0-7.72.791l-2.772 1.713A1.32 1.32 0 0 1 13 23V3.23c.24 0 .478-.065.693-.197l2.804-1.713a8.91 8.91 0 0 1 7.688-.79l.924.329c.528.197.891.692.891 1.252v16.935c-.066.923-.957 1.549-1.815 1.252z" fill="#F8868C" opacity=".9"/></g></symbol><symbol viewBox="0 0 26 23" id="i-why-3" xmlns="http://www.w3.org/2000/svg"><g fill="none"><path d="M24.375 0H1.625C.73 0 0 .738 0 1.643V18.07c0 .907.73 1.643 1.625 1.643H3.25v2.465c0 .453.364.821.813.821h3.25a.817.817 0 0 0 .812-.821v-2.465h9.75v2.465c0 .453.364.821.813.821h3.25a.817.817 0 0 0 .812-.821v-2.465h1.625c.897 0 1.625-.736 1.625-1.643V1.643C26 .738 25.272 0 24.375 0z" fill="#FFF"/><path d="M1.625 19.714H3.25v2.465c0 .453.364.821.813.821h3.25a.817.817 0 0 0 .812-.821v-2.465h9.75v2.465c0 .453.364.821.813.821h3.25a.817.817 0 0 0 .812-.821v-2.465H1.625z" fill="#F79196"/><path d="M6.5 13.964a.817.817 0 0 1-.813.822.817.817 0 0 1-.812-.822V5.75c0-.453.364-.821.813-.821.448 0 .812.368.812.821v8.214zm14.357.523c-.005.005-.007.011-.01.016-.003.005-.011.007-.016.01a6.443 6.443 0 0 1-4.581 1.916 6.44 6.44 0 0 1-4.574-1.911c-.007-.007-.017-.008-.023-.015-.007-.006-.008-.016-.015-.023A6.584 6.584 0 0 1 9.75 9.857c0-1.799.722-3.43 1.885-4.618.008-.008.01-.02.018-.028.008-.008.02-.011.03-.02a6.44 6.44 0 0 1 4.567-1.905c1.783 0 3.398.73 4.573 1.909.006.006.016.008.023.014.006.007.008.015.014.022a6.59 6.59 0 0 1 1.89 4.626 6.585 6.585 0 0 1-1.893 4.63zm-1.16-6.953a.812.812 0 0 1-1.15 0 .828.828 0 0 1 0-1.161l.517-.524a4.786 4.786 0 0 0-2.814-.92c-1.051 0-2.02.345-2.816.92l.518.524a.828.828 0 0 1 0 1.161.805.805 0 0 1-1.149 0l-.518-.524a4.916 4.916 0 0 0-.91 2.847c0 1.063.341 2.04.91 2.847l.518-.524a.807.807 0 0 1 1.15 0 .828.828 0 0 1 0 1.162l-.52.524c.797.575 1.766.92 2.817.92 1.051 0 2.02-.345 2.816-.92l-.518-.524a.828.828 0 0 1 0-1.162.807.807 0 0 1 1.149 0l.518.524c.569-.805.91-1.784.91-2.847a4.916 4.916 0 0 0-.91-2.847l-.518.524z" fill="#F3323D"/></g></symbol><symbol viewBox="0 0 28 22" id="i-why-4" xmlns="http://www.w3.org/2000/svg"><g fill="none"><path fill="#F8868C" d="M6.967 22H.3v-8.28l6.667-6.833zm9.697 0h-6.97V7.252l6.97 5.175zm9.091 0h-6.97V10.987l6.97-4.662z"/><path fill="#FFF" d="M.3 10.89l7.476-7.25 8.858 6.59L27.25 3.083V.291L16.694 7.25 7.656.565.302 7.667z"/></g></symbol><symbol viewBox="0 0 32 24" id="i-why-5" xmlns="http://www.w3.org/2000/svg"><g fill="#FFF" fill-rule="evenodd"><path d="M27.806 13.986a1.99 1.99 0 0 1-1.987 1.986H7.937V12L0 17.958l7.937 5.959v-3.973h17.882a5.967 5.967 0 0 0 5.959-5.958h-3.972z" opacity=".5"/><path d="M5.958 7.944h17.875v3.973l7.945-5.959L23.833 0v3.972H5.958A5.962 5.962 0 0 0 0 9.931h3.972a1.99 1.99 0 0 1 1.986-1.987z"/></g></symbol></svg>