<svg width="50" height="63" viewBox="0 0 50 63" fill="none" xmlns="http://www.w3.org/2000/svg">
<path d="M0.835354 13.1629C0.144998 11.9477 0.554686 10.3939 1.75042 9.6923L8.24561 5.88133C9.44134 5.17975 10.9703 5.5961 11.6607 6.81127L16.6607 15.6123C17.351 16.8275 16.9413 18.3813 15.7456 19.0829L9.25042 22.8939C8.05469 23.5954 6.52571 23.1791 5.83535 21.9639L0.835354 13.1629Z" fill="#F0C123"/>
<path d="M38.3354 6.81127C39.0257 5.5961 40.5547 5.17975 41.7504 5.88133L48.2456 9.6923C49.4413 10.3939 49.851 11.9477 49.1607 13.1629L44.1607 21.9639C43.4703 23.1791 41.9413 23.5954 40.7456 22.8939L34.2504 19.0829C33.0547 18.3813 32.645 16.8275 33.3354 15.6123L38.3354 6.81127Z" fill="#F0C123"/>
<path d="M12.5 0.459473L25 5.54076L37.5 0.459473V15.7033H12.5V0.459473Z" fill="#C73534"/>
<path d="M12.5 0.459473L25 5.54076L37.5 0.459473V15.7033H12.5V0.459473Z" fill="#C73534"/>
<g opacity="0.1" filter="url(#filter0_i)">
<path d="M12.5 0.459473L25 5.54076L37.5 0.459473V15.7033H12.5V0.459473Z" fill="#C73534" fill-opacity="0.01"/>
</g>
<rect x="22.5" y="0.459473" width="5" height="15.2439" fill="white"/>
<path d="M49.5 37.5939C49.5 51.357 38.5234 62.5003 25 62.5003C11.4766 62.5003 0.5 51.357 0.5 37.5939C0.5 23.8309 11.4766 12.6875 25 12.6875C38.5234 12.6875 49.5 23.8309 49.5 37.5939Z" fill="#F63656" stroke="#E1A60F"/>
<path opacity="0.5" d="M49.5 37.5939C49.5 51.357 38.5234 62.5003 25 62.5003C11.4766 62.5003 0.5 51.357 0.5 37.5939C0.5 23.8309 11.4766 12.6875 25 12.6875C38.5234 12.6875 49.5 23.8309 49.5 37.5939Z" fill="url(#paint0_linear)" stroke="#C6121F"/>
<path d="M36.4123 31.9871L29.5277 31.2908C29.0937 31.2486 28.7187 30.9531 28.5413 30.51L26.0754 24.1165C25.6809 23.0614 24.2801 23.0614 23.8855 24.1165L21.4393 30.51C21.2815 30.9531 20.887 31.2486 20.453 31.2908L13.5682 31.9871C12.5424 32.0926 12.1281 33.4641 12.8975 34.2027L18.0857 39.077C18.4211 39.3935 18.5592 39.8577 18.4605 40.3219L16.9021 47.1584C16.6654 48.2347 17.7504 49.1207 18.6578 48.5512L24.3984 44.9428C24.7732 44.7107 25.227 44.7107 25.6018 44.9428L31.3426 48.5512C32.25 49.1207 33.335 48.2558 33.0981 47.1584L31.5594 40.3219C31.4608 39.8577 31.5988 39.3935 31.9342 39.077L37.1225 34.2027C37.8721 33.4641 37.4381 32.0926 36.4123 31.9871Z" fill="white"/>
<defs>
<filter id="filter0_i" x="12.5" y="0.459473" width="25" height="15.2439" filterUnits="userSpaceOnUse" color-interpolation-filters="sRGB">
<feFlood flood-opacity="0" result="BackgroundImageFix"/>
<feBlend mode="normal" in="SourceGraphic" in2="BackgroundImageFix" result="shape"/>
<feColorMatrix in="SourceAlpha" type="matrix" values="0 0 0 0 0 0 0 0 0 0 0 0 0 0 0 0 0 0 127 0" result="hardAlpha"/>
<feOffset dy="1"/>
<feComposite in2="hardAlpha" operator="arithmetic" k2="-1" k3="1"/>
<feColorMatrix type="matrix" values="0 0 0 0 0 0 0 0 0 0 0 0 0 0 0 0 0 0 1 0"/>
<feBlend mode="normal" in2="shape" result="effect1_innerShadow"/>
</filter>
<linearGradient id="paint0_linear" x1="50" y1="13.1629" x2="-0.742573" y2="59.349" gradientUnits="userSpaceOnUse">
<stop stop-color="#F51F43"/>
<stop offset="1" stop-color="#F5AC1F"/>
</linearGradient>
</defs>
</svg>
