<svg fill="none" height="50" viewBox="0 0 236 50" width="236" xmlns="http://www.w3.org/2000/svg"><g clip-rule="evenodd" fill-rule="evenodd"><g fill="#f30830"><path d="m31.9984 1.22074c-.1356.04215-.2684.09008-.4011.14463l-.9944.37644c-.645.30414-1.2991.56323-1.9077.92149-1.2508.64794-2.387 1.47893-3.4752 2.3405l-.7807.69297c-.1323.11736-.265.22562-.3886.34628l-.3676.37645-.7265.74711c-.241.25-.4581.53306-.6838.79215-.2233.27107-.4586.52686-.6694.80413l-.6178.84917-1.3743 1.87684-.3676.4938-.392.479-.7864.9607c-.2563.3256-.5578.6207-.8381.9339-.289.3041-.5636.6173-.865.9157-.6148.5814-1.2023 1.1925-1.8804 1.7318-.3287.2744-.6479.5632-.9948.8256l-1.0577.774c-1.4376 1-2.99889 1.8917-4.67758 2.5992-1.68488.6929-3.4781 1.202-5.32259 1.476-.80461.1207-1.615422.1988-2.42913.2322.277438-2.943 1.06386-5.7351 2.26953-8.2892 4.00528-8.50045 12.64927-14.382678 22.67007-14.397967h.0364c2.4383 0 4.795.346281 7.0224.997107z"/><path d="m6.2591 42.5977.02687.0057-.00289.0091c-.00579-.0029-.0091-.0029-.01199-.0058l-.02109-.009z"/><path d="m62.1201 13.6272c-1.5253-.1414-3.0531-.1385-4.5693-.0661-1.5158.0752-3.0229.238-4.5056.4938-1.4831.2528-2.9447.6024-4.3612 1.0483-.2291.069-.4582.1446-.6843.2227-1.1784.3947-2.3204.8736-3.4116 1.4219-.6632.3104-1.2838.6926-1.9077 1.0542l-.9072.5905c-.3072.1867-.5784.4243-.8711.6322-.2862.214-.5727.4248-.8377.6657l-.8075.693c-.4974.5091-1.025.9756-1.4712 1.5239-.9522 1.0331-1.7328 2.205-2.456 3.3889l-.4974.9215c-.0814.1537-.1658.3012-.2443.4578l-.2138.4789-.4279.9517c-.1385.3194-.2444.6537-.3676.9789-.1145.3314-.2473.6508-.3498.9851l-.2894 1.012-.6479 2.2318-.1716.5905-.2022.5843-.4098 1.1719c-.1265.3947-.3105.774-.4639 1.1624-.1658.3856-.3167.7773-.4974 1.16-.3799.7557-.7202 1.533-1.1664 2.2739-.217.3707-.4192.75-.6541 1.1174l-.7231 1.0905c-1.0097 1.4339-2.167 2.8074-3.4992 4.0483-1.3442 1.2289-2.8542 2.3223-4.4907 3.217-.0695.0388-.1385.0752-.2109.1111-4.9339-1.033-9.3369-3.5149-12.7398-6.9818.20798.0574.42505.1083.64501.1566.57555.1236 1.1664.2141 1.76304.2802 1.19655.1144 2.40805.1293 3.59265-.0182 2.3749-.2802 4.6532-1.1203 6.6998-2.5211 1.0188-.7136 1.971-1.5661 2.8662-2.5182l.6541-.738c.2138-.25.4069-.5268.6177-.7888.4251-.5153.7745-1.1025 1.1664-1.6628.1869-.286.3527-.5905.5305-.8885.1716-.3012.3676-.5876.5181-.9066l.4792-.9368.2415-.4698.2137-.488 1.4228-3.2079c.1745-.3764.3824-.7409.5726-1.1115.1989-.3674.3796-.738.5967-1.0963l.6628-1.0632.3316-.5273c.1145-.1715.2443-.3405.3646-.5091l.7414-1.0058c1.049-1.2954 2.1641-2.5392 3.4392-3.5996.6087-.5632 1.2925-1.0301 1.9438-1.5272l1.0336-.6715c.3378-.229.6963-.4248 1.0552-.6236.3585-.1896.7021-.4095 1.0725-.5752l1.0974-.5182c.7471-.3074 1.4856-.6297 2.2513-.8706 1.1453-.3914 2.3084-.7108 3.481-.9517.3767-.0785.7534-.1475 1.1333-.2107 1.5518-.2653 3.1131-.419 4.6685-.4732 1.5551-.0541 3.1072-.0091 4.6441.1236 1.5373.1355 3.0651.3405 4.5573.6868z"/><path d="m57.7953 6.17228c-1.5009-.30702-3.0196-.47272-4.5358-.56901-1.5158-.09338-3.0291-.09958-4.5329-.00909-1.5037.09009-2.9898.27686-4.4485.55992-.8199.15703-1.6303.35248-2.4262.58471-.6177.17769-1.2297.37934-1.8292.60207-.6905.23512-1.3504.54545-2.0103.83471l-.9675.4876c-.3254.15372-.6239.35868-.9344.53347-.3106.17769-.6178.35827-.9072.56612l-.877.60252c-.5515.4487-1.1271.8553-1.6303 1.3491-1.0609.9248-1.9681 2.0033-2.8182 3.0996l-.5937.8587c-.0993.1442-.2018.2831-.2952.4306l-.2655.4516-.5305.8975c-.1716.3013-.3163.6269-.473.9339-.1538.3161-.3196.6207-.4581.9397l-.3978.9731-.8889 2.1476-.2382.5694-.2654.557-.5363 1.1207c-.172.3764-.3949.7347-.5908 1.1053-.208.3645-.4007.7348-.6207 1.0963-.4614.7108-.8864 1.4459-1.4136 2.1298-.2564.3463-.4974.7016-.7715 1.0388l-.841 1.0033c-1.1602 1.3132-2.4623 2.5513-3.9239 3.6385-1.4711 1.0752-3.0923 1.9942-4.8161 2.7016-1.7241.7079-3.54463 1.2021-5.39201 1.4822-.83479.1294-1.67579.2079-2.51637.2438-1.93215-2.9124-3.27344-6.2529-3.846095-9.8495.087655.0301.178205.0636.265447.0938.554458.1863 1.136218.34 1.720858.4727 1.1755.2438 2.37786.3946 3.57155.3764 2.39275-.0148 4.74662-.5963 6.93802-1.7653 1.0907-.5962 2.1306-1.3372 3.125-2.1863l.7327-.6628c.241-.2228.4639-.4761.6991-.7141.4821-.4636.8952-1.012 1.3471-1.524.2171-.2648.4131-.5483.6239-.8223.2018-.283.428-.545.6149-.8462l.8712-1.3195.2679-.4607 1.7663-3.0302c.2171-.3553.4639-.6958.693-1.0421.2382-.3405.4614-.693.7116-1.0244l.7773-.9818.3887-.488c.136-.1595.2807-.31.4192-.4666l.8468-.919c1.1875-1.1715 2.432-2.28304 3.8184-3.19874.6661-.48801 1.3988-.87644 2.1008-1.30124l1.1003-.55124c.3614-.19256.7384-.34917 1.1151-.50289.3796-.15041.7442-.33141 1.1329-.45496l1.1486-.39463c.7774-.22272 1.546-.46074 2.3324-.61735.0815-.01818.16-.03595.2415-.05124 1.4827-.31612 2.9807-.51488 4.4725-.59628 1.5732-.08719 3.1403-.06942 4.6924.04834 1.5522.11736 3.0895.331 4.6024.63224 1.5128.30454 3.0075.67768 4.4543 1.18677z"/><path d="m50.0654 25.299c0 11.5422-7.8001 21.2591-18.4209 24.1777 2.179-2.7889 4.0206-6.5934 5.1324-11.7769 1.959-9.1268 7.2515-14.2471 12.8453-17.1148.2923 1.5239.4432 3.0995.4432 4.714z"/></g><path d="m77.3043 15.425v22.5374c0 .5251-.2622.7876-.7866.7876h-3.1842c-.5244 0-.7866-.2625-.7866-.7876v-22.5374c0-.5251.2622-.7875.7866-.7875h3.1842c.5244 0 .7866.2624.7866.7875zm9.028 23.325h-3.1842c-.5244 0-.7866-.2625-.7866-.7876v-22.5374c0-.5251.2622-.7875.7866-.7875h11.9499c.4995 0 .7492.2624.7492.7875v2.55c0 .525-.2497.7875-.7492.7875h-7.5295c-.2997 0-.4496.1374-.4496.4125v5.8124c0 .3001.1499.4501.4496.4501h6.4057c.5244 0 .7866.2624.7866.7874v2.5125c0 .5501-.2622.825-.7866.825h-6.4057c-.2997 0-.4496.1375-.4496.4125v7.9875c0 .5251-.2622.7876-.7866.7876zm15.6207 0h-3.7083c-.2498 0-.4246-.0813-.5245-.2438s-.0999-.3562 0-.5813l5.8068-11.5125-5.6195-10.9499c-.0999-.2001-.0999-.3875 0-.5625s.2747-.2625.5245-.2625h3.596c.624 0 1.037.2624 1.236.7875l3.559 8.0625h.15l3.521-8.0625c.25-.5251.649-.7875 1.199-.7875h3.671c.25 0 .431.0937.543.2812.113.1875.119.3812.019.5813l-5.694 10.9124 5.806 11.475c.125.25.138.4563.038.6188s-.287.2438-.562.2438h-3.746c-.525 0-.887-.25-1.087-.7501l-3.708-8.0999h-.15l-3.746 8.0999c-.225.5001-.599.7501-1.124.7501zm38.772 0h-12.25c-.524 0-.787-.2625-.787-.7876v-22.5374c0-.5251.263-.7875.787-.7875h12.25c.499 0 .749.2624.749.7875v2.55c0 .525-.25.7875-.749.7875h-7.83c-.299 0-.449.1374-.449.4125v4.8749c0 .2751.15.4126.449.4126h6.406c.525 0 .787.2624.787.7875v2.5499c0 .5251-.262.7876-.787.7876h-6.406c-.299 0-.449.1374-.449.4125v5.2125c0 .275.15.4125.449.4125h7.83c.499 0 .749.2624.749.7874v2.55c0 .5251-.25.7876-.749.7876zm14.722 0h-4.908c-.524 0-.836-.2625-.936-.7876l-5.807-22.4624c-.174-.5751.075-.8625.75-.8625h3.521c.499 0 .799.2624.899.7875l3.933 18.45h.15l3.933-18.45c.1-.5251.4-.7875.899-.7875h3.522c.624 0 .874.2874.749.8625l-5.806 22.4624c-.125.5251-.425.7876-.899.7876zm16.257-4.125h2.66c.799 0 1.367-.1688 1.704-.5063.338-.3375.506-.9062.506-1.7063v-11.4374c0-.8001-.168-1.3688-.506-1.7063-.337-.3375-.905-.5062-1.704-.5062h-2.66c-.799 0-1.361.1687-1.685.5062-.325.3375-.487.9062-.487 1.7063v11.4374c0 .8001.162 1.3688.487 1.7063.324.3375.886.5063 1.685.5063zm3.447 4.125h-4.196c-1.973 0-3.496-.525-4.57-1.5751-1.074-1.05-1.611-2.5624-1.611-4.5375v-11.8874c0-1.9751.537-3.4875 1.611-4.5375 1.074-1.0501 2.597-1.575 4.57-1.575h4.196c1.973 0 3.496.5249 4.57 1.575 1.074 1.05 1.611 2.5624 1.611 4.5375v11.8874c0 1.9751-.537 3.4875-1.611 4.5375-1.074 1.0501-2.597 1.5751-4.57 1.5751zm23.787 0h-12.324c-.525 0-.787-.2625-.787-.7876v-22.5374c0-.5251.262-.7875.787-.7875h3.184c.524 0 .786.2624.786.7875v18.7499c0 .2751.15.4126.45.4126h7.904c.499 0 .749.2749.749.8249v2.55c0 .5251-.25.7876-.749.7876zm13.523 0h-4.907c-.525 0-.837-.2625-.937-.7876l-5.806-22.4624c-.175-.5751.075-.8625.749-.8625h3.521c.5 0 .8.2624.9.7875l3.933 18.45h.15l3.933-18.45c.1-.5251.4-.7875.899-.7875h3.521c.625 0 .874.2874.75.8625l-5.807 22.4624c-.125.5251-.424.7876-.899.7876zm22.739 0h-12.25c-.524 0-.787-.2625-.787-.7876v-22.5374c0-.5251.263-.7875.787-.7875h12.25c.499 0 .749.2624.749.7875v2.55c0 .525-.25.7875-.749.7875h-7.83c-.299 0-.449.1374-.449.4125v4.8749c0 .2751.15.4126.449.4126h6.406c.525 0 .787.2624.787.7875v2.5499c0 .5251-.262.7876-.787.7876h-6.406c-.299 0-.449.1374-.449.4125v5.2125c0 .275.15.4125.449.4125h7.83c.499 0 .749.2624.749.7874v2.55c0 .5251-.25.7876-.749.7876z" fill="#f9fcff"/></g></svg>