<svg version="1" xmlns="http://www.w3.org/2000/svg" width="413.333" height="413.333" viewBox="0 0 310.000000 310.000000"><path d="M130.5 27.5c-15.8 2.5-32.4 7.4-42.7 12.6-6.7 3.4-8.2 5.5-6.5 9l1.3 2.4 62.4.6c34.4.3 66 1 70.2 1.4 6.4.6 8.2.5 10.3-.9 3-1.9 3.3-5.6.7-7.9-4.9-4.4-25.7-12.1-42.9-15.7-13-2.8-39.9-3.6-52.8-1.5zM174.5 75.1c-16.8 1.1-47.1 3.7-56 4.9-3.8.5-15.1 1.9-25 3-22.5 2.7-26.1 3.5-30.3 6.6-2.5 2-3.2 3.2-3 5.1l.3 2.6 63 .1c41.9.1 67.3.6 76 1.4 7.2.7 20.4 2 29.5 2.8 9.1.9 21.7 2.1 28.1 2.9 6.4.7 12.8 1.1 14.3.8 3.3-.7 7.6-5.7 7.6-8.9 0-7.7-10.4-16.8-23.9-20.8-4.6-1.3-10.6-1.6-36.5-1.5-17.1.1-36.9.6-44.1 1zM189 120.7c-16.8.4-63.9 3.1-83 4.8-41.9 3.8-93.1 10.1-102.3 12.6-3.5.9-3.7 1.2-3.7 5.1v4.1l9.3-.6c32.5-2.2 63.9-2.9 114.2-2.4 60.7.6 97.6 2.7 146 8.2 7.2.8 15.4 1.5 18.4 1.5 4.9 0 5.7-.3 9.3-4 3.9-3.8 4-4.2 3.6-9.1-1-10.5-10.2-18.5-23-20-6.6-.7-59.5-.9-88.8-.2zM175.5 167c-29.8 1.7-73.7 6.4-103.5 11.1-6.9 1-15.9 2.4-20 3-9 1.3-12.4 2.7-12.8 5.5-.6 4.1 1.5 4.5 17.4 3.2 24.2-2 113.4-1.7 136.9.5 24.3 2.3 45.1 4.4 54 5.6 32.5 4.4 43.5 5.4 47.3 4.3 5-1.5 9.9-6.5 11.4-11.4 2.3-7.8-4-18.2-12.7-20.8-5-1.5-95.9-2.2-118-1zM157.5 214.5c-49.7 3-118.2 10.3-149.3 16.1-4.4.8-5.8 3.5-3.3 6.5l1.8 2.2 23.9-1.4c30.8-1.8 120.9-1.9 149.9-.1 26.5 1.6 50.3 3.6 76.5 6.3 19.5 2.1 20.8 2.1 26.2.5 8.4-2.4 15.8-10.7 15.8-17.7 0-3.4-3.1-8.5-6.8-10.9l-3.6-2.5-54.5-.1c-34.1-.1-62.9.3-76.6 1.1zM181 259c-48.7 2.1-122.3 9.9-125.8 13.4-1.9 1.9-.8 4.8 2.7 6.9 2.6 1.5 5.6 1.6 32.8 1.1 42.8-.9 86.5 1.4 144.2 7.7 12.9 1.4 20 .5 28.1-3.6 5.2-2.6 11.6-9.2 12.5-12.8.9-3.6-1.9-9.3-5.4-11.2-2.6-1.3-8.3-1.6-35.4-2-17.7-.2-41.9.1-53.7.5z"/></svg>