<?xml version="1.0" encoding="utf-8"?><svg xmlns="http://www.w3.org/2000/svg" xmlns:xlink="http://www.w3.org/1999/xlink"><symbol viewBox="0 0 18 21" id="i-android" xmlns="http://www.w3.org/2000/svg"><path d="M11.817 1.758l.23-.343.227-.339.51-.76a.203.203 0 0 0-.056-.282.206.206 0 0 0-.284.057l-.547.815-.23.343-.233.347A6.775 6.775 0 0 0 9 1.15c-.87 0-1.694.16-2.434.445l-.232-.347-.23-.343L5.557.09a.206.206 0 0 0-.284-.057.203.203 0 0 0-.057.282l.51.76.227.339.231.343c-1.736.803-2.91 2.325-2.91 4.067h11.454c0-1.741-1.175-3.263-2.911-4.067zM6.546 4.2a.611.611 0 0 1-.614-.61c0-.336.274-.609.614-.609a.61.61 0 0 1 .613.61.61.61 0 0 1-.613.609zm4.908 0a.611.611 0 0 1-.613-.61.61.61 0 0 1 .613-.609c.34 0 .615.273.615.61a.612.612 0 0 1-.615.609zM3.361 6.639h11.367v8.941c0 .71-.581 1.288-1.296 1.288h-.935c.032.107.049.221.049.338v2.574c0 .674-.55 1.22-1.227 1.22a1.224 1.224 0 0 1-1.228-1.22v-2.573c0-.117.018-.231.049-.338H7.86c.03.107.049.221.049.338v2.573c0 .674-.55 1.22-1.228 1.22a1.224 1.224 0 0 1-1.227-1.22v-2.573c0-.117.017-.231.049-.338h-.936a1.292 1.292 0 0 1-1.295-1.287V6.639h.088zm-2.134 0c.678 0 1.227.545 1.227 1.219v5.216c0 .673-.55 1.219-1.227 1.219A1.224 1.224 0 0 1 0 13.073V7.859c0-.674.55-1.22 1.227-1.22zm15.547 0c.677 0 1.226.545 1.226 1.219v5.216c0 .673-.549 1.219-1.226 1.219a1.223 1.223 0 0 1-1.228-1.22V7.859c0-.674.55-1.22 1.228-1.22z" fill="#F40830"/></symbol><symbol viewBox="0 0 18 22" id="i-apple" xmlns="http://www.w3.org/2000/svg"><path d="M13.291 0c-2.404.827-4.277 1.654-4.01 5.238 2.404-.551 4.544-1.93 4.01-5.238zM5.657 4.976C3.343 4.976 0 7.071 0 11c0 5.5 3.6 11 5.657 11 1.543 0 2.829-1.048 3.857-1.048 1.029 0 2.057 1.048 3.6 1.048 2.057 0 4.372-3.143 4.886-6.024-1.8-1.31-3.086-2.095-3.086-4.452 0-1.572 1.286-3.143 2.829-4.453-.772-1.047-2.314-2.095-3.857-2.095-1.543 0-3.202 1.243-4.372 1.31-1.028 0-2.314-1.31-3.857-1.31z" fill="#F40830"/></symbol><symbol viewBox="0 0 12 18" id="i-arrow" xmlns="http://www.w3.org/2000/svg"><path d="M8.818 6.697L9 6.515l2.121 2.121-.182.182.182.182L9 11.121l-.182-.182-6.182 6.182L.515 15l6.182-6.182L.515 2.636 2.636.515l6.182 6.182z" fill="#13131A" fill-rule="evenodd" opacity=".2"/></symbol><symbol viewBox="0 0 18 18" id="i-cfds" xmlns="http://www.w3.org/2000/svg"><path d="M16.516 9c0-.287.24-.527.528-.527.287 0 .528.24.527.528a8.46 8.46 0 0 1-.632 3.225 8.87 8.87 0 0 1-1.394 2.307 8.566 8.566 0 0 1-4.323 2.748c-1.736.461-3.634.378-5.307-.284a8.864 8.864 0 0 1-2.332-1.358A8.547 8.547 0 0 1 .435 8.682 8.505 8.505 0 0 1 .95 6.056a8.87 8.87 0 0 1 1.32-2.357A8.563 8.563 0 0 1 6.486.804a8.594 8.594 0 0 1 5.316.095 8.71 8.71 0 0 1 4.175 3.125A8.573 8.573 0 0 1 17.57 9c0 .287-.24.527-.527.527A.533.533 0 0 1 16.515 9c0-.36-.024-.719-.071-1.075l.019.14a8.028 8.028 0 0 0-.552-2.033c.076.179.002.006-.016-.035a8.024 8.024 0 0 0-.949-1.6c-.054-.072.09.113.007.008a7.99 7.99 0 0 0-1.225-1.251 8.08 8.08 0 0 0-.135-.108c-.03-.024-.108-.083.029.021a7.61 7.61 0 0 0-.3-.219 8.037 8.037 0 0 0-1.435-.795c.16.069.069.03.033.015a7.983 7.983 0 0 0-1.987-.532l.14.019a8.222 8.222 0 0 0-2.148 0l.14-.02a8.027 8.027 0 0 0-2.033.552c.179-.075.006-.002-.035.016a8.014 8.014 0 0 0-1.6.95c-.072.054.113-.09.008-.007a7.99 7.99 0 0 0-1.25 1.224l-.108.135c-.024.03-.083.108.021-.028a7.614 7.614 0 0 0-.219.3 8.038 8.038 0 0 0-.794 1.435c.068-.16.028-.069.014-.034a7.983 7.983 0 0 0-.532 1.987l.019-.14a8.223 8.223 0 0 0 0 2.149l-.02-.14a8.03 8.03 0 0 0 .552 2.033c-.075-.179-.002-.006.017.035a8.015 8.015 0 0 0 .948 1.6c.055.072-.09-.113-.006-.008a7.599 7.599 0 0 0 .333.397 8.09 8.09 0 0 0 1.026.963 7.614 7.614 0 0 0 .271.197 8.04 8.04 0 0 0 1.367.765l.069.03c-.16-.068-.07-.03-.034-.015a7.983 7.983 0 0 0 1.847.513 8.222 8.222 0 0 0 2.008.02 8.023 8.023 0 0 0 2.034-.552c-.18.075-.006.002.035-.016a8.023 8.023 0 0 0 1.6-.95c.071-.054-.114.09-.009.008a7.6 7.6 0 0 0 .398-.334 8.089 8.089 0 0 0 .962-1.026c.023-.03.082-.108-.022.028l.045-.059a8.122 8.122 0 0 0 .94-1.607l.03-.069c-.069.16-.03.07-.015.034a8.132 8.132 0 0 0 .262-.736 8.16 8.16 0 0 0 .27-1.251l-.02.14A8.21 8.21 0 0 0 16.516 9zm-7.52 6.665A6.668 6.668 0 0 1 2.33 9.001a6.669 6.669 0 0 1 6.665-6.665v13.33z" fill="#FFF"/></symbol><symbol viewBox="0 0 15 16" id="i-commodities" xmlns="http://www.w3.org/2000/svg"><path d="M.143 4.107v8.036c0 2.321 3.575 3.536 7.107 3.536s7.107-1.215 7.107-3.536V4.107c0-2.32-3.575-3.536-7.107-3.536S.143 1.786.143 4.107zm7.107 9.858c-3.49 0-5.393-1.203-5.393-1.822V10.63c1.37.763 3.388 1.155 5.393 1.155s4.021-.393 5.393-1.155v1.512c0 .618-1.904 1.822-5.393 1.822zm0-3.894c-3.49 0-5.393-1.202-5.393-1.821V6.487c1.37.763 3.388 1.155 5.393 1.155s4.021-.392 5.393-1.155V8.25c0 .619-1.904 1.821-5.393 1.821zm5.393-5.964c0 .619-1.904 1.822-5.393 1.822-3.49 0-5.393-1.203-5.393-1.822 0-.618 1.903-1.821 5.393-1.821 3.49 0 5.393 1.203 5.393 1.821z" fill="#FFF"/></symbol><symbol viewBox="0 0 24 24" id="i-forex" xmlns="http://www.w3.org/2000/svg"><g fill="#FFF"><path d="M20.006 4.155a11.218 11.218 0 0 0-16.007 0 11.496 11.496 0 0 0-3.315 8.102C.684 15.42 1.952 18.29 4 20.36a11.219 11.219 0 0 0 16.007 0 11.497 11.497 0 0 0 3.315-8.102 11.5 11.5 0 0 0-3.315-8.102zm-1.213 14.977a9.512 9.512 0 0 1-6.791 2.848 9.512 9.512 0 0 1-6.79-2.848 9.75 9.75 0 0 1-2.814-6.875 9.75 9.75 0 0 1 2.813-6.875 9.512 9.512 0 0 1 6.791-2.847 9.512 9.512 0 0 1 6.791 2.847 9.749 9.749 0 0 1 2.813 6.875 9.749 9.749 0 0 1-2.813 6.875z"/><path d="M14.558 12.084a3.956 3.956 0 0 0-.998-.502c-.39-.137-.827-.264-1.31-.378-.385-.098-.66-.173-.827-.224a2.587 2.587 0 0 1-.496-.213 1.185 1.185 0 0 1-.386-.325.732.732 0 0 1-.14-.449c0-.28.138-.518.412-.717.274-.2.635-.298 1.082-.298.482 0 .833.091 1.05.274.218.183.404.438.56.765.121.229.233.393.336.493.103.1.254.151.452.151.218 0 .4-.084.546-.251a.838.838 0 0 0 .218-.564c0-.229-.058-.463-.174-.703a2.192 2.192 0 0 0-.554-.688 2.867 2.867 0 0 0-.954-.526 3.397 3.397 0 0 0-.523-.128V6.183a.825.825 0 0 0-.82-.83.824.824 0 0 0-.819.83v1.608c-.332.048-.64.126-.916.239-.486.199-.858.483-1.114.853-.257.37-.386.794-.386 1.27 0 .5.122.918.365 1.255a2.5 2.5 0 0 0 .986.798c.414.195.929.365 1.543.51.459.107.826.207 1.1.302.274.094.498.231.671.41.173.179.26.413.26.7 0 .363-.161.665-.482.907-.321.242-.738.363-1.251.363-.374 0-.675-.06-.905-.18a1.435 1.435 0 0 1-.533-.458 3.524 3.524 0 0 1-.353-.69c-.09-.234-.198-.408-.324-.526a.656.656 0 0 0-.464-.178.762.762 0 0 0-.776.774c0 .366.121.743.364 1.131a2.8 2.8 0 0 0 .948.93c.357.21.784.345 1.267.418v1.616c0 .458.367.83.819.83.453 0 .82-.372.82-.83v-1.614c.367-.057.707-.15 1.009-.29.513-.236.903-.563 1.17-.98.266-.418.399-.888.399-1.412 0-.437-.076-.806-.23-1.107a2.061 2.061 0 0 0-.642-.748z"/></g></symbol><symbol viewBox="0 0 18 16" id="i-indices" xmlns="http://www.w3.org/2000/svg"><path d="M8.481 3.498L17.571.57v1.903L9.747 4.93l-2.74 5.361-1.12 2.21L.429 16v-2.476l4.088-2.23L5.928 8.51l2.553-5.013zm3.404 9.29l5.686-.021v1.596H10.91l-3.133-3.786.871-1.698 3.238 3.908zM3.313 5.645H.43V4.01l3.964-.02 1.68 1.984-.871 1.72-1.889-2.047z" fill="#FFF"/></symbol><symbol viewBox="0 0 24 21" id="i-macos" xmlns="http://www.w3.org/2000/svg"><path d="M14.247 2.788v-.342l-1.063.073c-.301.019-.527.083-.679.191a.527.527 0 0 0-.228.453c0 .188.075.338.226.449.15.112.352.167.604.167.161 0 .312-.025.451-.074.139-.049.261-.118.363-.206a.924.924 0 0 0 .326-.711zm1.937-1.469c.098-.275.236-.511.415-.707.179-.196.394-.347.646-.453.252-.106.533-.159.842-.159.279 0 .531.042.755.125.225.083.417.195.578.336.161.141.289.305.383.493.094.188.15.387.169.596h-.833a1.072 1.072 0 0 0-.113-.322.88.88 0 0 0-.213-.258 1 1 0 0 0-.312-.171 1.217 1.217 0 0 0-.405-.062c-.177 0-.338.036-.481.107a1.062 1.062 0 0 0-.369.302 1.43 1.43 0 0 0-.237.475 2.126 2.126 0 0 0-.085.622c0 .236.028.448.085.634.056.187.136.344.24.473.103.129.228.228.373.296.145.068.305.103.479.103.285 0 .517-.067.697-.201.18-.134.296-.33.35-.588h.834a1.659 1.659 0 0 1-.189.624 1.607 1.607 0 0 1-.396.481 1.767 1.767 0 0 1-.574.308c-.22.072-.462.109-.725.109-.312 0-.593-.052-.846-.155a1.817 1.817 0 0 1-.649-.445 1.993 1.993 0 0 1-.417-.705 2.788 2.788 0 0 1-.147-.935 2.697 2.697 0 0 1 .145-.923zM4.331.057h.834v.741h.016A1.233 1.233 0 0 1 5.665.22a1.3 1.3 0 0 1 .354-.157 1.51 1.51 0 0 1 .407-.054c.306 0 .565.073.775.219.211.146.361.356.449.63h.021c.056-.132.13-.25.221-.354a1.416 1.416 0 0 1 .703-.437A1.66 1.66 0 0 1 9.04.009c.215 0 .41.034.586.103.176.069.326.165.451.29.125.125.221.277.288.455.067.178.101.376.101.594v2.981h-.87V1.66c0-.287-.074-.51-.222-.667-.147-.157-.358-.236-.632-.236a.944.944 0 0 0-.369.071.842.842 0 0 0-.288.198.889.889 0 0 0-.189.304 1.057 1.057 0 0 0-.069.387v2.715h-.858V1.588c0-.126-.02-.24-.059-.342a.726.726 0 0 0-.431-.429.986.986 0 0 0-.349-.059.924.924 0 0 0-.373.075.88.88 0 0 0-.485.521c-.044.12-.116.252-.116.394v2.683h-.825V.057zm1.893 20.939c-3.825 0-6.224-2.658-6.224-6.9 0-4.242 2.399-6.909 6.224-6.909s6.215 2.667 6.215 6.909c0 4.241-2.39 6.9-6.215 6.9zm7.082-16.575a1.741 1.741 0 0 1-.433.054c-.218 0-.417-.031-.598-.093a1.379 1.379 0 0 1-.467-.262 1.175 1.175 0 0 1-.304-.409 1.271 1.271 0 0 1-.109-.534c0-.384.143-.684.429-.9.286-.216.7-.342 1.243-.377l1.18-.068v-.338c0-.252-.08-.445-.24-.576-.16-.131-.386-.197-.679-.197a1.21 1.21 0 0 0-.331.044.91.91 0 0 0-.27.127.726.726 0 0 0-.298.454h-.818c.005-.193.053-.372.143-.536a1.38 1.38 0 0 1 .367-.427c.155-.121.336-.215.546-.282.21-.067.438-.101.685-.101.266 0 .507.033.723.101.216.068.401.163.554.288.153.125.271.275.354.451.083.176.125.373.125.59v3.001h-.833v-.729h-.021c-.062.118-.14.225-.235.32a1.51 1.51 0 0 1-.713.399zm5.503 16.575c-2.917 0-4.9-1.528-5.038-3.927h1.899c.148 1.371 1.473 2.279 3.288 2.279 1.741 0 2.992-.908 2.992-2.149 0-1.074-.76-1.723-2.519-2.167l-1.714-.426c-2.464-.611-3.584-1.732-3.584-3.575 0-2.269 1.982-3.844 4.807-3.844 2.76 0 4.686 1.584 4.76 3.862h-1.88c-.13-1.371-1.25-2.214-2.918-2.214-1.658 0-2.806.852-2.806 2.084 0 .972.722 1.547 2.482 1.991l1.445.361c2.751.667 3.881 1.751 3.881 3.696-.001 2.482-1.964 4.029-5.095 4.029zM6.224 8.89c-2.621 0-4.26 2.01-4.26 5.205 0 3.186 1.639 5.196 4.26 5.196 2.612 0 4.26-2.01 4.26-5.196.001-3.195-1.648-5.205-4.26-5.205z" fill="#FFF"/></symbol><symbol viewBox="0 0 22 22" id="i-web" xmlns="http://www.w3.org/2000/svg"><path d="M20.58 16.402a10.987 10.987 0 0 0 0-10.804.802.802 0 0 0-.11-.189A10.998 10.998 0 0 0 11 0C7.11 0 3.509 2.057 1.53 5.409a.802.802 0 0 0-.11.19 10.987 10.987 0 0 0 0 10.803.802.802 0 0 0 .11.189A10.998 10.998 0 0 0 11 22c3.89 0 7.491-2.057 9.47-5.409a.802.802 0 0 0 .11-.19zm-1.058-.93h-3.48c.61-2.95.61-5.994 0-8.945h3.48a9.617 9.617 0 0 1 0 8.946zM11 20.635c-1.169 0-2.406-1.425-3.231-3.785h6.462c-.825 2.36-2.062 3.785-3.231 3.785zm-3.63-5.161A19.538 19.538 0 0 1 6.875 11a19.538 19.538 0 0 1 .495-4.473h7.26c.337 1.467.503 2.968.495 4.473a19.538 19.538 0 0 1-.495 4.473H7.37zM11 1.366c1.169 0 2.406 1.425 3.231 3.785H7.77c.824-2.36 2.06-3.785 3.23-3.785zm7.642 3.785h-2.96a11.014 11.014 0 0 0-1.554-3.258 9.653 9.653 0 0 1 4.514 3.258zM7.872 1.893A11.014 11.014 0 0 0 6.318 5.15h-2.96a9.653 9.653 0 0 1 4.514-3.258zM2.478 6.527h3.48c-.61 2.95-.61 5.995 0 8.946h-3.48a9.617 9.617 0 0 1 0-8.946zm.88 10.322h2.96c.335 1.164.86 2.265 1.554 3.258a9.653 9.653 0 0 1-4.514-3.258zm10.77 3.258a11.014 11.014 0 0 0 1.554-3.258h2.96a9.653 9.653 0 0 1-4.514 3.258z" fill="#F40830"/></symbol><symbol viewBox="0 0 20 21" id="i-windows" xmlns="http://www.w3.org/2000/svg"><path d="M0 2.98l8.481-1.127.004 7.982-8.477.047L0 2.98zm8.478 8.191l.007 7.976L0 18.012v-6.894l8.478.053zm.613-9.542L20 0v9.794l-10.91.088V1.63zM20 11.136L19.997 21l-10.89-1.593-.016-8.29 10.909.02z" fill="#FFF"/></symbol></svg>