<svg width="70" height="65" viewBox="0 0 70 65" fill="none" xmlns="http://www.w3.org/2000/svg">
<path fill-rule="evenodd" clip-rule="evenodd" d="M7.99662 54.5603H62.0034C66.4126 54.5603 70 50.9773 70 46.5736V8.24743C70 3.84373 66.4126 0.260742 62.0034 0.260742H7.99662C3.58744 0.260742 0 3.84373 0 8.24743V46.5736C0 50.9773 3.58744 54.5603 7.99662 54.5603ZM2.91666 8.24723C2.91666 5.4494 5.1953 3.17358 7.99661 3.17358H62.0034C64.8047 3.17358 67.0833 5.4494 67.0833 8.24723V46.5734C67.0833 49.3712 64.8047 51.647 62.0034 51.647H7.99661C5.1953 51.647 2.91666 49.3712 2.91666 46.5734V8.24723Z" fill="#F40830"/>
<path d="M45.9987 64.7362C45.375 64.7362 44.7982 64.3351 44.6059 63.7093L41.779 54.5605H28.221L25.3941 63.7093C25.1577 64.4774 24.3416 64.9155 23.5712 64.6708C22.8021 64.4347 22.3706 63.6197 22.6084 62.8502L25.7515 52.6744C25.9395 52.0642 26.5049 51.6475 27.1444 51.6475H42.8556C43.4951 51.6475 44.0605 52.0642 44.2485 52.6744L47.3916 62.8502C47.6294 63.6197 47.1979 64.4347 46.4288 64.6708C46.285 64.7163 46.1412 64.7362 45.9987 64.7362Z" fill="#F40830"/>
<path d="M49.5833 64.7358H20.4167C19.6106 64.7358 18.9583 64.0843 18.9583 63.2793C18.9583 62.4742 19.6106 61.8228 20.4167 61.8228H49.5833C50.3894 61.8228 51.0417 62.4742 51.0417 63.2793C51.0417 64.0843 50.3894 64.7358 49.5833 64.7358Z" fill="#F40830"/>
<path d="M68.5417 41.9951H1.45833C0.652262 41.9951 0 41.3436 0 40.5386C0 39.7335 0.652262 39.082 1.45833 39.082H68.5417C69.3477 39.082 70 39.7335 70 40.5386C70 41.3436 69.3477 41.9951 68.5417 41.9951Z" fill="#F40830"/>
<path d="M60.2702 47.579C59.8899 47.579 59.5254 47.4183 59.2491 47.1423C58.9714 46.8806 58.8119 46.5165 58.8119 46.1225C58.8119 45.9333 58.8546 45.7441 58.9272 45.5692C59.0013 45.38 59.1024 45.2193 59.2491 45.0884C59.7888 44.5493 60.7658 44.5493 61.3056 45.0884C61.4366 45.2193 61.5534 45.38 61.626 45.5692C61.6986 45.7441 61.7428 45.9333 61.7428 46.1225C61.7428 46.5165 61.5818 46.8806 61.3056 47.1423C61.0278 47.4183 60.6633 47.579 60.2702 47.579Z" fill="#F40830"/>
<path d="M9.41793 34.5894C8.61186 34.5894 7.95959 33.938 7.95959 33.1329V20.9345C7.95959 20.1295 8.61186 19.478 9.41793 19.478C10.224 19.478 10.8763 20.1295 10.8763 20.9345V33.1329C10.8763 33.938 10.224 34.5894 9.41793 34.5894Z" fill="#F40830"/>
<path d="M16.7096 34.5895C15.9035 34.5895 15.2513 33.9381 15.2513 33.133V25.3042C15.2513 24.4991 15.9035 23.8477 16.7096 23.8477C17.5157 23.8477 18.1679 24.4991 18.1679 25.3042V33.133C18.1679 33.9381 17.5157 34.5895 16.7096 34.5895Z" fill="#F40830"/>
<path d="M24.0013 34.5894C23.1952 34.5894 22.5429 33.9379 22.5429 33.1329V16.5649C22.5429 15.7599 23.1952 15.1084 24.0013 15.1084C24.8073 15.1084 25.4596 15.7599 25.4596 16.5649V33.1329C25.4596 33.9379 24.8073 34.5894 24.0013 34.5894Z" fill="#F40830"/>
<path d="M31.2929 34.5894C30.4869 34.5894 29.8346 33.938 29.8346 33.1329V19.478C29.8346 18.6729 30.4869 18.0215 31.2929 18.0215C32.099 18.0215 32.7513 18.6729 32.7513 19.478V33.1329C32.7513 33.938 32.099 34.5894 31.2929 34.5894Z" fill="#F40830"/>
<path fill-rule="evenodd" clip-rule="evenodd" d="M47.3289 23.4213C47.6123 23.7043 47.9854 23.848 48.36 23.848C48.7075 23.848 49.0564 23.7242 49.3341 23.4753L56.3737 17.1642C56.6614 16.9067 56.8351 16.544 56.8565 16.1586C56.8764 15.7717 56.7426 15.3947 56.4848 15.106C54.407 12.7989 51.4461 11.4761 48.36 11.4761C45.4391 11.4761 42.6947 12.6111 40.6325 14.6736C40.0629 15.2425 40.0629 16.1643 40.6325 16.7332L47.3289 23.4213ZM48.4141 20.3859L43.8184 15.7958C46.5727 13.8984 50.5532 13.988 53.2406 16.059L48.4141 20.3859Z" fill="#F40830"/>
<path fill-rule="evenodd" clip-rule="evenodd" d="M37.431 22.3916C37.431 28.4112 42.3344 33.3084 48.36 33.3084C54.3856 33.3084 59.2889 28.4112 59.2889 22.3916C59.2889 19.7033 58.2935 17.116 56.4848 15.1062C55.9436 14.5059 55.0236 14.459 54.4255 14.9967L48.4141 20.3861L42.6947 14.6738C42.125 14.1048 41.2022 14.1048 40.6325 14.6738C38.5675 16.7334 37.431 19.4743 37.431 22.3916ZM40.3477 22.3915C40.3477 20.7472 40.8404 19.1797 41.7562 17.8555L47.3289 23.4213C47.8758 23.9675 48.7559 23.9931 49.3341 23.4753L55.1902 18.2253C55.9593 19.4741 56.3723 20.9122 56.3723 22.3915C56.3723 26.8051 52.7777 30.3952 48.36 30.3952C43.9423 30.3952 40.3477 26.8051 40.3477 22.3915Z" fill="#F40830"/>
<path d="M48.36 33.3079C47.5539 33.3079 46.9016 32.6564 46.9016 31.8514V22.3911C46.9016 21.586 47.5539 20.9346 48.36 20.9346C49.166 20.9346 49.8183 21.586 49.8183 22.3911V31.8514C49.8183 32.6564 49.166 33.3079 48.36 33.3079Z" fill="#F40830"/>
</svg>
