<svg width="64" height="67" viewBox="0 0 64 67" fill="none" xmlns="http://www.w3.org/2000/svg">
<path fill-rule="evenodd" clip-rule="evenodd" d="M4.68324 0H59.3176C61.6614 0 63.5676 1.89404 63.5676 4.22186V58.4833C63.5676 60.8111 61.6614 62.7051 59.3176 62.7051H59.2432V67H46.1665L41.9468 62.8091V62.7051H22.0541V62.8091L17.8344 67H4.75676V62.7051H4.68324C2.33946 62.7051 0.432434 60.8111 0.432434 58.4833V4.22186C0.432434 1.89404 2.33946 0 4.68324 0ZM7.35135 64.423H16.7602L18.4899 62.7051H7.35135V64.423ZM56.6487 64.423H47.2407L45.5109 62.7051H56.6487V64.423ZM59.3176 60.1284C60.2309 60.1284 60.973 59.3906 60.973 58.4835V4.22208C60.973 3.315 60.2309 2.57715 59.3176 2.57715H4.68325C3.76996 2.57715 3.02704 3.315 3.02704 4.22208V58.4835C3.02704 59.3906 3.76996 60.1284 4.68325 60.1284H59.3176Z" fill="#F40830"/>
<path fill-rule="evenodd" clip-rule="evenodd" d="M10.3446 7.73096H53.6562C54.829 7.73096 55.7838 8.67926 55.7838 9.84488V52.8606C55.7838 54.0254 54.829 54.9737 53.6562 54.9737H10.3446C9.17101 54.9737 8.2162 54.0254 8.2162 52.8606V49.8207H7.78377C6.11458 49.8207 4.75674 48.473 4.75674 46.8152V45.9553C4.75674 44.2975 6.11458 42.9489 7.78377 42.9489H8.2162V19.7566H7.78377C6.11458 19.7566 4.75674 18.4089 4.75674 16.751V15.8912C4.75674 14.2334 6.11458 12.8848 7.78377 12.8848H8.2162V9.84488C8.2162 8.67926 9.17101 7.73096 10.3446 7.73096ZM7.35135 15.8914V16.7512C7.35135 16.9832 7.5494 17.1799 7.78378 17.1799H13.8378C14.0722 17.1799 14.2703 16.9832 14.2703 16.7512V15.8914C14.2703 15.6586 14.0722 15.4619 13.8378 15.4619H7.78378C7.5494 15.4619 7.35135 15.6586 7.35135 15.8914ZM7.35135 46.8152V45.9554C7.35135 45.7226 7.5494 45.5259 7.78378 45.5259H13.8378C14.0722 45.5259 14.2703 45.7226 14.2703 45.9554V46.8152C14.2703 47.0471 14.0722 47.2438 13.8378 47.2438H7.78378C7.5494 47.2438 7.35135 47.0471 7.35135 46.8152ZM10.8108 52.397H53.1892V10.3081H10.8108V12.885H13.8378C15.507 12.885 16.8648 14.2336 16.8648 15.8914V16.7513C16.8648 18.4091 15.507 19.7568 13.8378 19.7568H10.8108V42.9491H13.8378C15.507 42.9491 16.8648 44.2977 16.8648 45.9555V46.8154C16.8648 48.4732 15.507 49.8209 13.8378 49.8209H10.8108V52.397Z" fill="#F40830"/>
<path fill-rule="evenodd" clip-rule="evenodd" d="M45.8378 31.3516C45.8378 38.9295 39.6298 45.0952 32 45.0952C24.3702 45.0952 18.163 38.9295 18.163 31.3516C18.163 23.7737 24.3702 17.6089 32 17.6089C39.6298 17.6089 45.8378 23.7737 45.8378 31.3516ZM23.1957 24.4291C21.928 26.0162 21.0848 27.9486 20.839 30.0631H20.8389V30.0639C20.839 30.0637 20.839 30.0634 20.839 30.0631H23.7838V32.64H20.8372C21.0845 34.7539 21.9269 36.6866 23.1948 38.274L25.2722 36.2116L27.1066 38.0335L25.0292 40.0959C26.6275 41.3552 28.5734 42.1935 30.7018 42.4375V39.5127H33.2964V42.4392C35.4249 42.1944 37.3717 41.3569 38.9699 40.0976L36.8925 38.0352L38.7269 36.2133L40.8043 38.2757C42.0722 36.6884 42.9155 34.7557 43.1619 32.6417H40.2162V30.0648H43.1637C42.9172 27.9509 42.0748 26.0173 40.8069 24.4299L38.7286 26.4932L36.8943 24.6713L38.9725 22.6081C37.3734 21.3488 35.4275 20.5104 33.2982 20.2665V23.1921H30.7036V20.2656C28.5751 20.5104 26.6283 21.3479 25.0301 22.6072L27.1083 24.6704L25.2739 26.4923L23.1957 24.4291Z" fill="#F40830"/>
<path fill-rule="evenodd" clip-rule="evenodd" d="M37.6216 31.3519C37.6216 34.4305 35.0997 36.9352 32 36.9352C28.9003 36.9352 26.3784 34.4305 26.3784 31.3519C26.3784 28.2733 28.9003 25.7686 32 25.7686C35.0997 25.7686 37.6216 28.2733 37.6216 31.3519ZM35.027 31.3516C35.027 29.6938 33.6692 28.3452 32 28.3452C30.3308 28.3452 28.973 29.6938 28.973 31.3516C28.973 33.0095 30.3308 34.358 32 34.358C33.6692 34.358 35.027 33.0095 35.027 31.3516Z" fill="#F40830"/>
</svg>
