<svg width="60" height="56" viewBox="0 0 60 56" fill="none" xmlns="http://www.w3.org/2000/svg">
<path fill-rule="evenodd" clip-rule="evenodd" d="M29.7681 0C28.7245 0 27.8782 0.846283 27.8782 1.88992C27.8782 2.93353 28.7245 3.77924 29.7681 3.77924C30.8117 3.77924 31.6574 2.93353 31.6574 1.88992C31.6574 0.846283 30.8117 0 29.7681 0ZM58.1107 16.2396C59.1544 16.2396 60 15.3939 60 14.3503C60 13.3066 59.1544 12.4609 58.1107 12.4609C57.0671 12.4609 56.2208 13.3066 56.2208 14.3503C56.2208 15.3939 57.0671 16.2396 58.1107 16.2396ZM0 13.993C0 12.9493 0.846296 12.103 1.88931 12.103C2.93293 12.103 3.77922 12.9493 3.77922 13.993C3.77922 15.0366 2.93293 15.8823 1.88931 15.8823C0.846296 15.8823 0 15.0366 0 13.993ZM10.5061 55.3615H48.7187C49.5644 55.3615 50.2508 54.6758 50.2508 53.8295C50.2508 52.9838 49.5644 52.2975 48.7187 52.2975H10.5061C9.6598 52.2975 8.97406 52.9838 8.97406 53.8295C8.97406 54.6758 9.6598 55.3615 10.5061 55.3615ZM16.7862 42.881L10.2229 29.2409C9.89691 28.5626 10.3915 27.7763 11.144 27.7769H11.1618C11.9431 27.7769 12.7679 27.6893 13.6302 27.5116C17.4927 26.7143 21.9013 24.1497 25.4232 20.6505C26.4006 19.6792 27.2665 18.6846 28.0154 17.6784C28.9272 16.4528 30.7295 16.4528 31.6414 17.6784C32.3896 18.6846 33.2562 19.6792 34.2336 20.6505C37.7554 24.1497 42.164 26.7143 46.026 27.5116C46.8888 27.6893 47.7131 27.7769 48.4938 27.7769H48.5109C49.231 27.7763 49.7041 28.5276 49.3928 29.1766L42.813 42.8785C42.3258 43.894 41.2999 44.5392 40.1736 44.5392H19.4249C18.2998 44.5392 17.274 43.8946 16.7862 42.881ZM54.1808 19.2056C54.5466 18.4426 55.4615 18.1203 56.2251 18.4874C56.9881 18.8538 57.3092 19.7688 56.9433 20.5317L45.4151 44.5399H48.7187C49.5644 44.5399 50.2508 45.2256 50.2508 46.072C50.2508 46.9182 49.5644 47.604 48.7187 47.604H10.5061C9.65982 47.604 8.97408 46.9182 8.97408 46.072C8.97408 45.2256 9.65982 44.5399 10.5061 44.5399H14.1836L3.0114 21.3198C2.64433 20.5574 2.96544 19.6413 3.72778 19.2748C4.48951 18.9071 5.40505 19.2289 5.77274 19.9912C5.77274 19.9912 6.79062 21.8591 6.87519 22.0552C7.85263 24.3232 9.91659 25.1499 13.0107 24.5113C19.3766 23.1974 27.4915 16.0251 28.2875 9.76456C28.2875 7.80786 31.3694 7.60931 31.3694 9.76456C32.1654 16.0251 40.2803 23.1974 46.6456 24.5113C49.7391 25.1487 51.803 24.3232 52.7811 22.0552C52.8277 21.9461 54.1808 19.2056 54.1808 19.2056Z" fill="#F40830"/>
</svg>
