<svg width="72" height="58" viewBox="0 0 72 58" fill="none" xmlns="http://www.w3.org/2000/svg">
<path fill-rule="evenodd" clip-rule="evenodd" d="M1.25731 34.3945C0.999954 42.3578 3.31613 50.3211 8.46319 57L11.0367 52.6331C7.43378 47.2386 5.63231 40.8165 5.88966 34.3945H1.25731Z" fill="#F40830" stroke="#FF0020" stroke-width="0.902313"/>
<path fill-rule="evenodd" clip-rule="evenodd" d="M11.8088 10.7612C11.2941 11.0181 11.0367 11.275 10.7794 11.5319C5.37494 17.1832 2.28671 24.119 1.51465 31.3117H6.147C7.17641 25.4034 9.74994 19.4952 14.1249 14.8713C14.3823 14.6144 14.6396 14.3576 14.897 14.1007L11.8088 10.7612Z" fill="#F40830" stroke="#FF0020" stroke-width="0.902313"/>
<path fill-rule="evenodd" clip-rule="evenodd" d="M34.4558 1C27.2499 1.25688 20.044 3.82569 13.8676 8.70642L17.2131 12.0459C22.3602 8.19266 28.2793 5.88073 34.4558 5.62385V1Z" fill="#F40830" stroke="#FF0020" stroke-width="0.902313"/>
<path fill-rule="evenodd" clip-rule="evenodd" d="M57.875 8.70642C51.9558 3.82569 44.7499 1.25688 37.5441 1V5.62385C43.7205 5.88073 49.6397 8.19266 54.5294 12.0459L57.875 8.70642Z" fill="#F40830" stroke="#FF0020" stroke-width="0.902313"/>
<path fill-rule="evenodd" clip-rule="evenodd" d="M70.4853 31.3117C69.4559 23.8621 66.1103 16.4126 60.1912 10.7612L56.8456 14.1007C61.9926 18.9814 64.8235 24.8897 65.8529 31.3117H70.4853Z" fill="#F40830" stroke="#FF0020" stroke-width="0.902313"/>
<path fill-rule="evenodd" clip-rule="evenodd" d="M63.5367 57C68.6837 50.3211 70.9999 42.3578 70.7425 34.3945H66.1102C66.3675 40.8165 64.5661 46.9817 60.9631 52.6331L63.5367 57Z" fill="#F40830" stroke="#FF0020" stroke-width="0.902313"/>
<path fill-rule="evenodd" clip-rule="evenodd" d="M54.3972 19.6973L44.1031 26.3762L35.6105 31.7707C34.8384 31.7707 33.809 32.0275 33.0369 32.5413C31.4928 33.8257 31.2355 36.1376 32.5222 37.6789C33.809 39.2202 36.1252 39.4771 37.9266 38.1927C38.4413 37.6789 38.956 36.9083 38.956 36.1376L46.1619 28.4312L54.3972 19.6973ZM37.4119 33.8256C36.3825 32.798 34.8384 32.5411 33.5517 33.5687C32.5222 34.3393 32.5222 36.1375 33.2943 37.165C34.3237 38.1925 35.8678 38.4494 36.8972 37.4219C38.184 36.6512 38.184 34.8531 37.4119 33.8256Z" fill="#F40830"/>
</svg>
