<svg width="86" height="59" viewBox="0 0 86 59" fill="none" xmlns="http://www.w3.org/2000/svg">
<path fill-rule="evenodd" clip-rule="evenodd" d="M72.488 6.45099C72.488 2.89401 75.382 0 78.939 0C82.497 0 85.391 2.89401 85.39 6.452C85.39 10.009 82.496 12.903 78.939 12.903C78.301 12.903 77.685 12.806 77.103 12.633L57.074 47.346C58.398 48.528 59.237 50.242 59.237 52.152C59.237 55.709 56.343 58.603 52.786 58.603C49.229 58.603 46.335 55.709 46.335 52.152C46.335 50.673 46.841 49.312 47.682 48.222L30.754 26.045C29.927 26.431 29.008 26.653 28.037 26.653C26.883 26.653 25.801 26.345 24.862 25.811L10.107 42.297L0 32.109L2.13 29.996L9.995 37.924L22.665 23.766C21.985 22.744 21.586 21.518 21.586 20.201C21.586 16.644 24.48 13.75 28.037 13.75C31.594 13.75 34.488 16.644 34.488 20.201C34.488 21.703 33.968 23.083 33.105 24.18L50.016 46.335C50.857 45.933 51.794 45.701 52.786 45.701C53.356 45.701 53.906 45.783 54.433 45.922L74.509 11.128C73.267 9.952 72.488 8.29199 72.488 6.45099ZM30.783 22.271C30.931 22.075 31.061 21.866 31.165 21.64C31.367 21.201 31.488 20.717 31.487 20.202C31.487 18.296 29.942 16.751 28.036 16.751C26.13 16.751 24.585 18.296 24.585 20.202C24.585 20.616 24.67 21.008 24.804 21.376C25.164 22.365 25.958 23.134 26.961 23.465C27.301 23.577 27.659 23.653 28.037 23.653C28.317 23.653 28.586 23.61 28.847 23.547C29.094 23.487 29.328 23.398 29.551 23.289C29.5655 23.2814 29.5799 23.2734 29.5942 23.2653L29.5961 23.2643C29.6096 23.2567 29.6232 23.2491 29.637 23.242C29.829 23.141 30.01 23.023 30.178 22.889L30.2098 22.863C30.2311 22.8456 30.2522 22.828 30.273 22.81C30.436 22.671 30.584 22.517 30.718 22.35C30.7253 22.3406 30.7328 22.3315 30.7404 22.3224L30.7502 22.3108C30.7613 22.2977 30.7724 22.2846 30.783 22.271ZM52.7869 55.6042C50.8809 55.6042 49.3359 54.0591 49.3359 52.1531C49.3359 51.6602 49.4429 51.1942 49.6289 50.7701C49.7289 50.5432 49.8559 50.3311 49.9999 50.1342C50.0144 50.1141 50.0304 50.0957 50.0464 50.0772C50.0592 50.0624 50.0719 50.0477 50.0839 50.0321C50.2129 49.8691 50.3529 49.7172 50.5079 49.5801C50.5302 49.5601 50.5535 49.5415 50.5767 49.523L50.6039 49.5012C50.7739 49.3632 50.9549 49.2382 51.1499 49.1331L51.2159 49.0971C51.4379 48.9842 51.6719 48.8901 51.9179 48.8261C52.1969 48.7531 52.4849 48.7021 52.7869 48.7021C52.7915 48.7021 52.7961 48.7026 52.8007 48.7032L52.8079 48.7042C52.8149 48.7051 52.8219 48.7061 52.8289 48.7061C53.0899 48.7091 53.3429 48.7451 53.5869 48.8041C53.6139 48.8107 53.6398 48.8195 53.6657 48.8282C53.683 48.8341 53.7003 48.8399 53.7179 48.8452C53.9199 48.9031 54.1169 48.9742 54.3019 49.0662C54.3389 49.0841 54.3739 49.1052 54.4099 49.1241C54.6029 49.2292 54.7859 49.3481 54.9549 49.4872C54.9729 49.5012 54.9899 49.5151 55.0069 49.5302C55.1919 49.6881 55.3639 49.8641 55.5129 50.0572C55.9619 50.6401 56.2399 51.3611 56.2399 52.1531C56.2379 54.0591 54.6929 55.6042 52.7869 55.6042ZM78.7933 9.88965C78.8413 9.89633 78.8893 9.90298 78.939 9.90298C80.845 9.90298 82.391 8.35797 82.39 6.45197C82.39 4.54599 80.845 3.00098 78.939 3.00098C77.033 3.00098 75.488 4.54599 75.488 6.45197C75.488 7.17297 75.709 7.84097 76.087 8.39398C76.225 8.59598 76.386 8.77899 76.563 8.94598C76.5819 8.96429 76.6025 8.98035 76.623 8.99634C76.6383 9.00827 76.6535 9.02017 76.668 9.03299C76.824 9.16898 76.988 9.29398 77.167 9.39996C77.197 9.41797 77.229 9.43298 77.26 9.44998C77.459 9.55997 77.668 9.65399 77.888 9.72296C77.8947 9.72504 77.9011 9.72693 77.9075 9.72879C77.9165 9.73145 77.9253 9.73404 77.934 9.73697C78.177 9.80997 78.431 9.85898 78.693 9.87799C78.7269 9.88043 78.7601 9.88504 78.7933 9.88965Z" fill="#F40830"/>
</svg>
