<svg width="70" height="67" viewBox="0 0 70 67" fill="none" xmlns="http://www.w3.org/2000/svg">
<path fill-rule="evenodd" clip-rule="evenodd" d="M7.90867 0.00199127C6.98367 0.0899429 6.27806 0.875435 6.28207 1.81272V9.11225C4.84583 9.07499 3.3609 9.05567 1.79489 9.05567C1.73883 9.05302 1.68268 9.05302 1.62662 9.05567C0.701622 9.14362 -0.00398924 9.92908 1.69741e-05 10.8664V55.2293C0.000116034 56.2293 0.803649 57.04 1.79489 57.0401C10.2419 56.984 16.5022 57.4941 21.4543 58.9357C26.3145 60.3504 29.9656 62.6071 33.5136 66.2352C33.5328 66.2551 33.5505 66.2719 33.5697 66.2918C33.5803 66.3089 33.5913 66.3258 33.6024 66.3426L33.6182 66.3658L33.6258 66.3767C33.7331 66.4963 33.8557 66.601 33.9904 66.6879L34.0009 66.699L34.0136 66.7119C34.0244 66.7229 34.0354 66.7338 34.0465 66.7445C34.0594 66.7492 34.0724 66.7538 34.0855 66.7582C34.1005 66.7633 34.1155 66.7681 34.1306 66.7728C34.1852 66.804 34.2414 66.8323 34.2989 66.8577C34.3174 66.8674 34.3361 66.8769 34.355 66.886C34.3921 66.8966 34.4295 66.906 34.4672 66.9143C34.4857 66.924 34.5044 66.9334 34.5232 66.9425C34.5603 66.9532 34.5977 66.9626 34.6354 66.9708L34.6634 66.971L34.6758 66.971L34.6915 66.9708C34.7286 66.9815 34.766 66.9909 34.8037 66.9991C34.8317 66.9998 34.8598 66.9998 34.8878 66.9991C34.9252 67.0003 34.9626 67.0003 35 66.9991C35.0187 66.9994 35.0374 66.9994 35.0561 66.9991C35.1502 66.9971 35.2439 66.9877 35.3365 66.9708C35.3497 66.9668 35.3629 66.9626 35.3759 66.9582L35.394 66.952L35.4207 66.9425C35.5979 66.9027 35.7681 66.8359 35.9255 66.7445C36.0262 66.6787 36.1202 66.6029 36.2059 66.5181C36.2345 66.5001 36.2626 66.4812 36.2901 66.4616V66.4333C36.307 66.4156 36.3266 66.4032 36.3462 66.3908C36.3658 66.3784 36.3854 66.366 36.4023 66.3484C36.442 66.3031 36.4794 66.2559 36.5144 66.2069C40.0534 62.596 43.6987 60.3466 48.5457 58.9357C53.4978 57.4941 59.7581 56.9836 68.2051 57.0401C69.1964 57.04 69.9999 56.2293 70 55.2293V10.8664C69.9999 9.8664 69.1964 9.05576 68.2051 9.05567C66.6391 9.05567 65.1542 9.07499 63.7179 9.11225V1.81272C63.7178 0.812721 62.9143 0.00208282 61.9231 0.00199127C55.796 0.00199127 49.4938 0.496437 44.1707 3.25565C40.2996 5.26225 37.0482 8.56068 35 13.441C32.9518 8.56068 29.7004 5.26225 25.8293 3.25565C20.5063 0.496437 14.2041 0.00199127 8.07694 0.00199127C8.02088 -0.000663757 7.96473 -0.000663757 7.90867 0.00199127ZM9.87183 3.73682C15.1333 3.853 20.231 4.42246 24.2028 6.48121C27.7142 8.3014 30.4785 11.1367 32.1395 15.9876C29.2589 13.8279 26.099 12.2058 22.4359 11.1495C18.8107 10.1041 14.7067 9.55402 9.87183 9.2822V3.73682ZM60.1282 9.2822V3.73682C54.8667 3.853 49.769 4.42246 45.7973 6.48121C42.2858 8.3014 39.5216 11.1367 37.8606 15.9876C40.7411 13.8279 43.901 12.2058 47.5641 11.1495C51.1894 10.1041 55.2933 9.55402 60.1282 9.2822ZM3.58978 12.7335C11.041 12.8143 16.8986 13.3154 21.4544 14.6291C26.1748 15.9904 29.7574 18.1234 33.2052 21.5609V61.1706C30.0441 58.5719 26.556 56.6549 22.4359 55.4555C17.3716 53.9813 11.2348 53.5073 3.58978 53.475V12.7335ZM66.4103 53.475V12.7335C58.959 12.8142 53.1015 13.3154 48.5457 14.6291C43.8253 15.9904 40.2427 18.1234 36.7949 21.5609V61.1706C39.956 58.5719 43.4441 56.6549 47.5641 55.4555C52.6285 53.9813 58.7653 53.5076 66.4103 53.475Z" fill="#F40830"/>
</svg>
