<svg width="85" height="59" viewBox="0 0 85 59" fill="none" xmlns="http://www.w3.org/2000/svg">
<rect opacity="0.1" x="1.6133" y="38.3305" width="76.9574" height="0.46281" stroke="#F40830" stroke-width="0.46281" stroke-dasharray="4.2"/>
<rect opacity="0.1" x="1.6133" y="17.5044" width="76.9574" height="0.46281" stroke="#F40830" stroke-width="0.46281" stroke-dasharray="4.2"/>
<path d="M2.54785 56.3804C2.54785 56.3804 12.4653 20.9848 17.7054 17.5044C29.9888 9.34585 41.6944 30.7733 48.9534 27.6862C54.781 25.2078 57.39 21.6696 64.3441 21.6696C73.2055 21.6696 78.8021 25.6035 78.8021 25.6035" stroke="#FDE6EA" stroke-width="3"/>
<path d="M2.54785 56.3804C2.54785 56.3804 15.0675 41.123 20.5038 39.9045C26.597 38.5387 33.6384 45.127 42.8903 46.4949C46.4125 47.0156 52.7812 41.0301 61.9965 41.7192C66.8188 42.0798 78.8021 49.4605 78.8021 49.4605" stroke="#F40830" stroke-width="3"/>
<path d="M2.31467 2V56.3967" stroke="#F40830" stroke-width="3" stroke-linecap="round" stroke-linejoin="round"/>
<path d="M2.31467 57.0745H82.8367" stroke="#F40830" stroke-width="3" stroke-linecap="round" stroke-linejoin="round"/>
</svg>
