<svg width="60" height="82" viewBox="0 0 60 82" fill="none" xmlns="http://www.w3.org/2000/svg">
<path d="M3.29226 1.88184H56.464C57.1662 1.88184 57.8463 2.46516 57.9496 3.29079V69.5752C57.9496 70.2965 57.3484 70.9052 56.6062 70.9052H3.29226C2.55012 70.9052 1.94885 70.2965 1.94885 69.5752V3.21183C1.94885 2.49044 2.55012 1.88184 3.29226 1.88184Z" stroke="#F40830" stroke-width="3"/>
<path fill-rule="evenodd" clip-rule="evenodd" d="M43.6687 16.373H16.0876C14.5237 16.373 13.2442 16.2677 13.2442 16.1389C13.2442 16.0101 14.5237 15.9048 16.0876 15.9048H43.5265C45.0904 15.9048 46.3699 16.0101 46.3699 16.1389C46.3699 16.2677 45.2326 16.373 43.6687 16.373Z" stroke="#F40830" stroke-width="1.87926"/>
<path fill-rule="evenodd" clip-rule="evenodd" d="M35.0566 28.5137H15.2827C14.1615 28.5137 13.2442 28.4083 13.2442 28.2795C13.2442 28.1508 14.1615 28.0454 15.2827 28.0454H34.9547C36.0759 28.0454 36.9932 28.1508 36.9932 28.2795C36.9932 28.4083 36.1778 28.5137 35.0566 28.5137Z" stroke="#F40830" stroke-width="1.87926"/>
<path fill-rule="evenodd" clip-rule="evenodd" d="M45.9626 28.5137H41.8032C41.5674 28.5137 41.3745 28.4083 41.3745 28.2795C41.3745 28.1508 41.5674 28.0454 41.8032 28.0454H45.9412C46.177 28.0454 46.37 28.1508 46.37 28.2795C46.37 28.4083 46.1984 28.5137 45.9626 28.5137Z" stroke="#F40830" stroke-width="1.87926"/>
<path fill-rule="evenodd" clip-rule="evenodd" d="M24.9022 53.0156H33.4324V77.8242C33.4324 78.5216 32.9379 79.1194 32.1961 79.4183C31.9489 79.5179 31.7016 79.6176 31.3308 79.6176C30.8363 79.6176 30.3418 79.5179 29.9709 79.219L24.9022 75.9311L19.8335 79.219C19.2154 79.6176 18.35 79.7172 17.6082 79.4183C16.8665 79.1194 16.3719 78.5216 16.3719 77.8242L16.3719 53.0156H24.9022Z" fill="white" stroke="#F40830" stroke-width="3"/>
<path fill-rule="evenodd" clip-rule="evenodd" d="M38.2662 54.2932C38.2662 61.6511 32.295 67.5941 24.9022 67.5941C17.5093 67.5941 11.5381 61.6511 11.5381 54.2932C11.5381 46.9352 17.5093 40.9922 24.9022 40.9922C32.295 40.9922 38.2662 46.9352 38.2662 54.2932Z" fill="white" stroke="#F40830" stroke-width="3"/>
<path opacity="0.3" fill-rule="evenodd" clip-rule="evenodd" d="M34.2925 54.2938C34.2925 59.464 30.0968 63.6399 24.9022 63.6399C19.7075 63.6399 15.5118 59.464 15.5118 54.2938C15.5118 49.1236 19.7075 44.9478 24.9022 44.9478C30.0968 44.9478 34.2925 49.1236 34.2925 54.2938Z" fill="white" stroke="#F40830" stroke-width="1.87926"/>
</svg>
