<svg width="496" height="275" viewBox="0 0 496 275" fill="none" xmlns="http://www.w3.org/2000/svg">
<rect width="496" height="275" fill="#404046"/>
<path d="M162.891 144V132.727H160.875V144H162.891ZM165.547 144H167.484V132.148H165.547V144ZM170.016 144H171.953V132.148H170.016V144ZM181.844 135.453H179.906V140.43C179.906 141.695 179.219 142.469 177.961 142.469C176.805 142.469 176.266 141.828 176.266 140.523V135.453H174.328V141.008C174.328 143.008 175.422 144.172 177.289 144.172C178.594 144.172 179.43 143.617 179.844 142.641H179.977V144H181.844V135.453ZM184.023 137.898C184.023 139.188 184.797 139.945 186.438 140.32L187.953 140.672C188.766 140.852 189.133 141.156 189.133 141.641C189.133 142.273 188.453 142.703 187.477 142.703C186.508 142.703 185.906 142.328 185.719 141.695H183.805C183.953 143.25 185.297 144.172 187.43 144.172C189.562 144.172 191.07 143.078 191.07 141.438C191.07 140.18 190.312 139.477 188.68 139.109L187.172 138.766C186.312 138.57 185.906 138.273 185.906 137.789C185.906 137.172 186.57 136.75 187.453 136.75C188.359 136.75 188.93 137.133 189.07 137.734H190.891C190.75 136.18 189.477 135.281 187.445 135.281C185.43 135.281 184.023 136.352 184.023 137.898ZM193.586 133.359V135.508H192.234V137.055H193.586V141.719C193.586 143.375 194.367 144.039 196.328 144.039C196.703 144.039 197.062 144 197.344 143.945V142.43C197.109 142.453 196.961 142.469 196.688 142.469C195.875 142.469 195.516 142.094 195.516 141.25V137.055H197.344V135.508H195.516V133.359H193.586ZM199.281 144H201.219V139.062C201.219 137.867 202.094 137.086 203.352 137.086C203.68 137.086 204.195 137.141 204.344 137.195V135.398C204.164 135.344 203.82 135.312 203.539 135.312C202.438 135.312 201.516 135.938 201.281 136.781H201.148V135.453H199.281V144ZM208.75 142.617C207.891 142.617 207.273 142.188 207.273 141.469C207.273 140.773 207.781 140.383 208.867 140.312L210.797 140.188V140.867C210.797 141.859 209.922 142.617 208.75 142.617ZM208.18 144.141C209.297 144.141 210.234 143.656 210.711 142.828H210.844V144H212.711V138.164C212.711 136.352 211.477 135.281 209.281 135.281C207.25 135.281 205.836 136.242 205.68 137.75H207.508C207.688 137.172 208.297 136.859 209.188 136.859C210.234 136.859 210.797 137.328 210.797 138.164V138.883L208.594 139.016C206.516 139.141 205.352 140.031 205.352 141.578C205.352 143.141 206.531 144.141 208.18 144.141ZM215.664 133.359V135.508H214.312V137.055H215.664V141.719C215.664 143.375 216.445 144.039 218.406 144.039C218.781 144.039 219.141 144 219.422 143.945V142.43C219.188 142.453 219.039 142.469 218.766 142.469C217.953 142.469 217.594 142.094 217.594 141.25V137.055H219.422V135.508H217.594V133.359H215.664ZM221.383 144H223.312V135.453H221.383V144ZM222.344 134.062C223.055 134.062 223.539 133.609 223.539 132.992C223.539 132.375 223.055 131.922 222.344 131.922C221.641 131.922 221.148 132.375 221.148 132.992C221.148 133.609 221.641 134.062 222.344 134.062ZM229.406 144.172C231.961 144.172 233.516 142.5 233.516 139.727C233.516 136.961 231.953 135.281 229.406 135.281C226.867 135.281 225.297 136.969 225.297 139.727C225.297 142.5 226.844 144.172 229.406 144.172ZM229.406 142.547C228.055 142.547 227.281 141.516 227.281 139.727C227.281 137.945 228.055 136.906 229.406 136.906C230.75 136.906 231.523 137.945 231.523 139.727C231.523 141.516 230.758 142.547 229.406 142.547ZM235.469 144H237.406V139.023C237.406 137.766 238.133 136.969 239.289 136.969C240.469 136.969 241.016 137.625 241.016 138.93V144H242.953V138.469C242.953 136.43 241.914 135.281 240.008 135.281C238.734 135.281 237.875 135.867 237.469 136.82H237.336V135.453H235.469V144ZM249.539 144H251.469V135.453H249.539V144ZM250.5 134.062C251.211 134.062 251.695 133.609 251.695 132.992C251.695 132.375 251.211 131.922 250.5 131.922C249.797 131.922 249.305 132.375 249.305 132.992C249.305 133.609 249.797 134.062 250.5 134.062ZM253.875 144H255.812V139.023C255.812 137.766 256.539 136.969 257.695 136.969C258.875 136.969 259.422 137.625 259.422 138.93V144H261.359V138.469C261.359 136.43 260.32 135.281 258.414 135.281C257.141 135.281 256.281 135.867 255.875 136.82H255.742V135.453H253.875V144ZM272.578 135.312C271.406 135.312 270.414 135.898 269.922 136.867H269.789V135.453H267.922V146.844H269.859V142.703H269.992C270.43 143.609 271.375 144.141 272.602 144.141C274.758 144.141 276.102 142.453 276.102 139.727C276.102 136.984 274.742 135.312 272.578 135.312ZM271.969 142.492C270.648 142.492 269.828 141.438 269.82 139.727C269.828 138.023 270.656 136.961 271.977 136.961C273.305 136.961 274.109 138 274.109 139.727C274.109 141.453 273.312 142.492 271.969 142.492ZM278.047 144H279.984V139.062C279.984 137.867 280.859 137.086 282.117 137.086C282.445 137.086 282.961 137.141 283.109 137.195V135.398C282.93 135.344 282.586 135.312 282.305 135.312C281.203 135.312 280.281 135.938 280.047 136.781H279.914V135.453H278.047V144ZM288.172 144.172C290.727 144.172 292.281 142.5 292.281 139.727C292.281 136.961 290.719 135.281 288.172 135.281C285.633 135.281 284.062 136.969 284.062 139.727C284.062 142.5 285.609 144.172 288.172 144.172ZM288.172 142.547C286.82 142.547 286.047 141.516 286.047 139.727C286.047 137.945 286.82 136.906 288.172 136.906C289.516 136.906 290.289 137.945 290.289 139.727C290.289 141.516 289.523 142.547 288.172 142.547ZM297.906 142.297C296.555 142.297 295.789 141.266 295.789 139.633C295.789 138 296.555 136.961 297.906 136.961C299.25 136.961 300.07 138 300.07 139.633C300.07 141.266 299.258 142.297 297.906 142.297ZM297.906 147.25C300.398 147.25 301.977 146.008 301.977 144.031V135.453H300.109V136.82H299.977C299.508 135.891 298.492 135.312 297.328 135.312C295.148 135.312 293.797 137.016 293.797 139.633C293.797 142.203 295.141 143.875 297.297 143.875C298.484 143.875 299.414 143.375 299.906 142.461H300.039V144.078C300.039 145.148 299.266 145.773 297.938 145.773C296.875 145.773 296.188 145.398 296.062 144.812H294.117C294.273 146.281 295.711 147.25 297.906 147.25ZM304.359 144H306.297V139.062C306.297 137.867 307.172 137.086 308.43 137.086C308.758 137.086 309.273 137.141 309.422 137.195V135.398C309.242 135.344 308.898 135.312 308.617 135.312C307.516 135.312 306.594 135.938 306.359 136.781H306.227V135.453H304.359V144ZM314.383 136.82C315.547 136.82 316.312 137.633 316.352 138.898H312.328C312.414 137.648 313.227 136.82 314.383 136.82ZM316.367 141.648C316.086 142.281 315.422 142.633 314.461 142.633C313.188 142.633 312.367 141.742 312.32 140.32V140.219H318.289V139.594C318.289 136.898 316.828 135.281 314.391 135.281C311.914 135.281 310.375 137.008 310.375 139.758C310.375 142.508 311.891 144.172 314.406 144.172C316.422 144.172 317.836 143.203 318.203 141.648H316.367ZM320.039 137.898C320.039 139.188 320.812 139.945 322.453 140.32L323.969 140.672C324.781 140.852 325.148 141.156 325.148 141.641C325.148 142.273 324.469 142.703 323.492 142.703C322.523 142.703 321.922 142.328 321.734 141.695H319.82C319.969 143.25 321.312 144.172 323.445 144.172C325.578 144.172 327.086 143.078 327.086 141.438C327.086 140.18 326.328 139.477 324.695 139.109L323.188 138.766C322.328 138.57 321.922 138.273 321.922 137.789C321.922 137.172 322.586 136.75 323.469 136.75C324.375 136.75 324.945 137.133 325.086 137.734H326.906C326.766 136.18 325.492 135.281 323.461 135.281C321.445 135.281 320.039 136.352 320.039 137.898ZM328.695 137.898C328.695 139.188 329.469 139.945 331.109 140.32L332.625 140.672C333.438 140.852 333.805 141.156 333.805 141.641C333.805 142.273 333.125 142.703 332.148 142.703C331.18 142.703 330.578 142.328 330.391 141.695H328.477C328.625 143.25 329.969 144.172 332.102 144.172C334.234 144.172 335.742 143.078 335.742 141.438C335.742 140.18 334.984 139.477 333.352 139.109L331.844 138.766C330.984 138.57 330.578 138.273 330.578 137.789C330.578 137.172 331.242 136.75 332.125 136.75C333.031 136.75 333.602 137.133 333.742 137.734H335.562C335.422 136.18 334.148 135.281 332.117 135.281C330.102 135.281 328.695 136.352 328.695 137.898Z" fill="white"/>
</svg>
