<svg width="260" height="210" viewBox="0 0 260 210" fill="none" xmlns="http://www.w3.org/2000/svg">
<path fill-rule="evenodd" clip-rule="evenodd" d="M260 0H110H82L0 82.5V110V210H260V0Z" fill="#F40830"/>
<path d="M48.8838 104V91.2705H53.5352V88.499H40.9883V91.2705H45.6396V104H48.8838ZM69.874 104V88.499H66.6299V94.751H59.6475V88.499H56.4033V104H59.6475V97.5225H66.6299V104H69.874ZM76.8779 104V88.499H73.6338V104H76.8779ZM83.7422 104V94.2998H83.9355L91.0898 104H93.7754V88.499H90.6709V98.1562H90.4775L83.3447 88.499H80.6377V104H83.7422ZM100.79 104V99.3271L102.326 97.5117L106.827 104H110.716L104.668 95.2988L110.318 88.499H106.709L100.983 95.4062H100.79V88.499H97.5459V104H100.79ZM126.378 104V98.2959L131.771 88.499H128.258L124.853 94.9873H124.659L121.243 88.499H117.73L123.134 98.2959V104H126.378ZM140.289 88.1016C135.734 88.1016 132.823 91.2168 132.823 96.2441C132.823 101.271 135.691 104.397 140.289 104.397C144.876 104.397 147.733 101.271 147.733 96.2441C147.733 91.2275 144.865 88.1016 140.289 88.1016ZM140.289 90.9482C142.813 90.9482 144.425 93 144.425 96.2441C144.425 99.4775 142.813 101.551 140.289 101.551C137.743 101.551 136.143 99.4775 136.143 96.2441C136.143 93 137.775 90.9482 140.289 90.9482ZM154.082 88.499H150.838V98.6504C150.838 102.088 153.362 104.397 157.326 104.397C161.301 104.397 163.825 102.088 163.825 98.6504V88.499H160.581V98.3174C160.581 100.272 159.41 101.519 157.326 101.519C155.253 101.519 154.082 100.272 154.082 98.3174V88.499ZM55.3506 132V116.499H52.1064V122.751H45.124V116.499H41.8799V132H45.124V125.522H52.1064V132H55.3506ZM69.0684 132H72.5811L67.1992 116.499H63.3857L58.0039 132H61.2588L62.4512 128.305H67.8975L69.0684 132ZM65.0938 119.722H65.2871L67.21 125.802H63.1494L65.0938 119.722ZM81.8838 132L87.0508 116.499H83.5596L80.1006 128.348H79.9072L76.3838 116.499H72.7207L77.9629 132H81.8838ZM99.9736 129.229H92.9482V125.458H99.5762V122.891H92.9482V119.271H99.9736V116.499H89.7041V132H99.9736V129.229ZM116.065 132V119.271H120.717V116.499H108.17V119.271H112.821V132H116.065ZM137.056 132V116.499H133.812V122.751H126.829V116.499H123.585V132H126.829V125.522H133.812V132H137.056ZM151.085 129.229H144.06V125.458H150.688V122.891H144.06V119.271H151.085V116.499H140.815V132H151.085V129.229ZM170.313 129.175H163.417V116.499H160.173V132H170.313V129.175ZM176.254 116.499H173.01V126.65C173.01 130.088 175.534 132.397 179.498 132.397C183.473 132.397 185.997 130.088 185.997 126.65V116.499H182.753V126.317C182.753 128.272 181.582 129.519 179.498 129.519C177.425 129.519 176.254 128.272 176.254 126.317V116.499ZM196.363 132.397C200.102 132.397 202.83 130.088 203.099 126.736H199.94C199.629 128.444 198.232 129.54 196.374 129.54C193.925 129.54 192.41 127.51 192.41 124.244C192.41 120.979 193.925 118.959 196.363 118.959C198.211 118.959 199.618 120.13 199.93 121.913H203.088C202.852 118.54 200.037 116.102 196.363 116.102C191.862 116.102 189.091 119.206 189.091 124.244C189.091 129.293 191.873 132.397 196.363 132.397ZM209.329 132V127.327L210.865 125.512L215.366 132H219.255L213.207 123.299L218.857 116.499H215.248L209.522 123.406H209.329V116.499H206.085V132H209.329ZM48.6582 144.102C44.1035 144.102 41.1924 147.217 41.1924 152.244C41.1924 157.271 44.0605 160.397 48.6582 160.397C53.2451 160.397 56.1025 157.271 56.1025 152.244C56.1025 147.228 53.2344 144.102 48.6582 144.102ZM48.6582 146.948C51.1826 146.948 52.7939 149 52.7939 152.244C52.7939 155.478 51.1826 157.551 48.6582 157.551C46.1123 157.551 44.5117 155.478 44.5117 152.244C44.5117 149 46.1445 146.948 48.6582 146.948ZM62.4189 160V153.963H68.7246V151.31H62.4189V147.271H69.3262V144.499H59.1748V160H62.4189ZM84.999 160V147.271H89.6504V144.499H77.1035V147.271H81.7549V160H84.999ZM105.989 160V144.499H102.745V150.751H95.7627V144.499H92.5186V160H95.7627V153.522H102.745V160H105.989ZM120.019 157.229H112.993V153.458H119.621V150.891H112.993V147.271H120.019V144.499H109.749V160H120.019V157.229ZM132.351 160V144.499H129.106V160H132.351ZM139.354 147.12H142.169C143.78 147.12 144.79 148.044 144.79 149.516C144.79 151.009 143.834 151.89 142.201 151.89H139.354V147.12ZM139.354 154.382H142.008L144.897 160H148.571L145.306 153.877C147.089 153.168 148.12 151.449 148.12 149.473C148.12 146.39 146.025 144.499 142.62 144.499H136.11V160H139.354V154.382ZM154.63 160V144.499H151.386V160H154.63ZM157.691 155.692C157.81 158.582 160.205 160.397 163.9 160.397C167.789 160.397 170.185 158.485 170.185 155.359C170.185 152.953 168.842 151.61 165.727 150.955L163.857 150.558C162.042 150.171 161.301 149.623 161.301 148.667C161.301 147.485 162.375 146.733 163.997 146.733C165.565 146.733 166.704 147.55 166.854 148.774H169.905C169.809 146.014 167.392 144.102 163.976 144.102C160.398 144.102 158.046 146.024 158.046 148.946C158.046 151.31 159.432 152.781 162.257 153.372L164.276 153.802C166.178 154.21 166.951 154.779 166.951 155.768C166.951 156.938 165.759 157.755 164.072 157.755C162.246 157.755 160.979 156.949 160.828 155.692H157.691ZM186.728 160V144.499H183.483V150.751H176.501V144.499H173.257V160H176.501V153.522H183.483V160H186.728ZM189.445 148.882H192.356C192.421 147.7 193.237 146.938 194.473 146.938C195.697 146.938 196.514 147.646 196.514 148.646C196.514 149.645 196.095 150.16 194.709 150.987C193.227 151.857 192.636 152.824 192.775 154.543L192.797 155.134H195.644V154.564C195.644 153.533 196.041 153.007 197.47 152.18C198.984 151.288 199.769 150.16 199.769 148.549C199.769 146.067 197.738 144.359 194.666 144.359C191.368 144.359 189.499 146.207 189.445 148.882ZM194.333 160.322C195.536 160.322 196.277 159.624 196.277 158.496C196.277 157.357 195.536 156.659 194.333 156.659C193.13 156.659 192.378 157.357 192.378 158.496C192.378 159.624 193.13 160.322 194.333 160.322Z" fill="white"/>
</svg>
