<svg width="655" height="324" viewBox="0 0 655 324" fill="none" xmlns="http://www.w3.org/2000/svg">
<rect opacity="0.04" width="655" height="304" rx="10" fill="white"/>
<rect opacity="0.1" x="327" width="1" height="324" fill="white"/>
<path d="M115.805 120.289C118.391 120.289 120.117 118.656 120.117 116.266C120.117 114.055 118.602 112.484 116.461 112.484C115.344 112.484 114.547 112.898 114.07 113.586H113.93L114.18 110.688H119.438V108.727H112.352L111.789 115.266H113.898C114.289 114.633 114.953 114.25 115.828 114.25C117.023 114.25 117.867 115.078 117.867 116.32C117.867 117.547 117.031 118.359 115.82 118.359C114.75 118.359 113.922 117.734 113.789 116.797H111.609C111.68 118.812 113.352 120.289 115.805 120.289ZM131.312 120.289C134.031 120.289 136.016 118.609 136.211 116.172H133.914C133.688 117.414 132.672 118.211 131.32 118.211C129.539 118.211 128.438 116.734 128.438 114.359C128.438 111.984 129.539 110.516 131.312 110.516C132.656 110.516 133.68 111.367 133.906 112.664H136.203C136.031 110.211 133.984 108.438 131.312 108.438C128.039 108.438 126.023 110.695 126.023 114.359C126.023 118.031 128.047 120.289 131.312 120.289ZM138.234 120H140.508V108.094H138.234V120ZM142.891 120H145.164V111.383H142.891V120ZM144.031 110.18C144.844 110.18 145.375 109.703 145.375 109.031C145.375 108.352 144.844 107.883 144.031 107.883C143.211 107.883 142.688 108.352 142.688 109.031C142.688 109.703 143.211 110.18 144.031 110.18ZM151.195 112.938C152.258 112.938 152.945 113.648 152.992 114.789H149.32C149.398 113.672 150.141 112.938 151.195 112.938ZM153.039 117.547C152.797 118.117 152.18 118.438 151.281 118.438C150.094 118.438 149.344 117.641 149.312 116.359V116.242H155.227V115.547C155.227 112.812 153.727 111.195 151.188 111.195C148.625 111.195 147.047 112.93 147.047 115.734C147.047 118.531 148.594 120.188 151.219 120.188C153.328 120.188 154.812 119.172 155.156 117.547H153.039ZM157.094 120H159.367V115.031C159.367 113.898 160.016 113.156 161.07 113.156C162.148 113.156 162.656 113.781 162.656 114.969V120H164.93V114.43C164.93 112.367 163.898 111.195 161.984 111.195C160.711 111.195 159.836 111.797 159.438 112.766H159.297V111.383H157.094V120ZM167.789 109.336V111.469H166.445V113.258H167.789V117.672C167.789 119.352 168.617 120.031 170.711 120.031C171.148 120.031 171.57 119.984 171.852 119.93V118.195C171.633 118.219 171.477 118.227 171.18 118.227C170.406 118.227 170.062 117.883 170.062 117.133V113.258H171.852V111.469H170.062V109.336H167.789ZM173.477 113.914C173.477 115.242 174.289 116.039 175.961 116.406L177.523 116.758C178.281 116.922 178.609 117.18 178.609 117.602C178.609 118.156 178 118.523 177.117 118.523C176.211 118.523 175.656 118.188 175.484 117.602H173.266C173.422 119.258 174.797 120.188 177.07 120.188C179.328 120.188 180.867 119.062 180.867 117.344C180.867 116.055 180.117 115.352 178.445 114.984L176.828 114.633C176.031 114.453 175.664 114.195 175.664 113.773C175.664 113.227 176.266 112.859 177.078 112.859C177.922 112.859 178.445 113.203 178.562 113.758H180.664C180.539 112.109 179.25 111.195 177.062 111.195C174.914 111.195 173.477 112.281 173.477 113.914Z" fill="white"/>
<path d="M441.352 217.109H442.75C444.016 217.109 444.789 217.719 444.789 218.703C444.789 219.664 443.969 220.328 442.789 220.328C441.578 220.328 440.773 219.727 440.703 218.773H438.445C438.547 220.898 440.25 222.289 442.766 222.289C445.336 222.289 447.195 220.859 447.195 218.883C447.195 217.398 446.227 216.367 444.68 216.195V216.055C445.938 215.797 446.758 214.781 446.758 213.477C446.758 211.703 445.094 210.438 442.781 210.438C440.32 210.438 438.734 211.781 438.656 213.914H440.836C440.898 212.938 441.625 212.32 442.719 212.32C443.82 212.32 444.523 212.898 444.523 213.805C444.523 214.727 443.797 215.352 442.727 215.352H441.352V217.109ZM458.445 222.289C461.164 222.289 463.148 220.609 463.344 218.172H461.047C460.82 219.414 459.805 220.211 458.453 220.211C456.672 220.211 455.57 218.734 455.57 216.359C455.57 213.984 456.672 212.516 458.445 212.516C459.789 212.516 460.812 213.367 461.039 214.664H463.336C463.164 212.211 461.117 210.438 458.445 210.438C455.172 210.438 453.156 212.695 453.156 216.359C453.156 220.031 455.18 222.289 458.445 222.289ZM465.367 222H467.641V210.094H465.367V222ZM470.023 222H472.297V213.383H470.023V222ZM471.164 212.18C471.977 212.18 472.508 211.703 472.508 211.031C472.508 210.352 471.977 209.883 471.164 209.883C470.344 209.883 469.82 210.352 469.82 211.031C469.82 211.703 470.344 212.18 471.164 212.18ZM478.328 214.938C479.391 214.938 480.078 215.648 480.125 216.789H476.453C476.531 215.672 477.273 214.938 478.328 214.938ZM480.172 219.547C479.93 220.117 479.312 220.438 478.414 220.438C477.227 220.438 476.477 219.641 476.445 218.359V218.242H482.359V217.547C482.359 214.812 480.859 213.195 478.32 213.195C475.758 213.195 474.18 214.93 474.18 217.734C474.18 220.531 475.727 222.188 478.352 222.188C480.461 222.188 481.945 221.172 482.289 219.547H480.172ZM484.227 222H486.5V217.031C486.5 215.898 487.148 215.156 488.203 215.156C489.281 215.156 489.789 215.781 489.789 216.969V222H492.062V216.43C492.062 214.367 491.031 213.195 489.117 213.195C487.844 213.195 486.969 213.797 486.57 214.766H486.43V213.383H484.227V222ZM494.922 211.336V213.469H493.578V215.258H494.922V219.672C494.922 221.352 495.75 222.031 497.844 222.031C498.281 222.031 498.703 221.984 498.984 221.93V220.195C498.766 220.219 498.609 220.227 498.312 220.227C497.539 220.227 497.195 219.883 497.195 219.133V215.258H498.984V213.469H497.195V211.336H494.922ZM500.609 215.914C500.609 217.242 501.422 218.039 503.094 218.406L504.656 218.758C505.414 218.922 505.742 219.18 505.742 219.602C505.742 220.156 505.133 220.523 504.25 220.523C503.344 220.523 502.789 220.188 502.617 219.602H500.398C500.555 221.258 501.93 222.188 504.203 222.188C506.461 222.188 508 221.062 508 219.344C508 218.055 507.25 217.352 505.578 216.984L503.961 216.633C503.164 216.453 502.797 216.195 502.797 215.773C502.797 215.227 503.398 214.859 504.211 214.859C505.055 214.859 505.578 215.203 505.695 215.758H507.797C507.672 214.109 506.383 213.195 504.195 213.195C502.047 213.195 500.609 214.281 500.609 215.914ZM517.719 214.938C518.781 214.938 519.469 215.648 519.516 216.789H515.844C515.922 215.672 516.664 214.938 517.719 214.938ZM519.562 219.547C519.32 220.117 518.703 220.438 517.805 220.438C516.617 220.438 515.867 219.641 515.836 218.359V218.242H521.75V217.547C521.75 214.812 520.25 213.195 517.711 213.195C515.148 213.195 513.57 214.93 513.57 217.734C513.57 220.531 515.117 222.188 517.742 222.188C519.852 222.188 521.336 221.172 521.68 219.547H519.562ZM526.727 220.422C525.938 220.422 525.383 220.031 525.383 219.391C525.383 218.773 525.859 218.422 526.836 218.352L528.578 218.242V218.875C528.578 219.75 527.781 220.422 526.727 220.422ZM525.977 222.133C527.094 222.133 528.031 221.664 528.477 220.875H528.617V222H530.82V216.117C530.82 214.273 529.531 213.195 527.25 213.195C525.086 213.195 523.625 214.195 523.477 215.789H525.57C525.758 215.273 526.305 214.992 527.125 214.992C528.062 214.992 528.578 215.398 528.578 216.117V216.82L526.492 216.945C524.352 217.07 523.156 217.977 523.156 219.539C523.156 221.117 524.32 222.133 525.977 222.133ZM540.68 216.422C540.492 214.461 539.125 213.195 536.844 213.195C534.148 213.195 532.633 214.812 532.633 217.672C532.633 220.562 534.156 222.188 536.844 222.188C539.086 222.188 540.492 220.945 540.68 219.016H538.555C538.383 219.867 537.773 220.32 536.844 220.32C535.625 220.32 534.93 219.391 534.93 217.672C534.93 215.977 535.617 215.062 536.844 215.062C537.812 215.062 538.398 215.602 538.555 216.422H540.68ZM542.539 222H544.812V217.055C544.812 215.938 545.469 215.18 546.609 215.18C547.641 215.18 548.195 215.797 548.195 216.992V222H550.469V216.453C550.469 214.383 549.367 213.219 547.516 213.219C546.25 213.219 545.312 213.812 544.914 214.797H544.773V210.094H542.539V222Z" fill="white"/>
<path d="M458 95.1094H459.398C460.664 95.1094 461.438 95.7188 461.438 96.7031C461.438 97.6641 460.617 98.3281 459.438 98.3281C458.227 98.3281 457.422 97.7266 457.352 96.7734H455.094C455.195 98.8984 456.898 100.289 459.414 100.289C461.984 100.289 463.844 98.8594 463.844 96.8828C463.844 95.3984 462.875 94.3672 461.328 94.1953V94.0547C462.586 93.7969 463.406 92.7812 463.406 91.4766C463.406 89.7031 461.742 88.4375 459.43 88.4375C456.969 88.4375 455.383 89.7812 455.305 91.9141H457.484C457.547 90.9375 458.273 90.3203 459.367 90.3203C460.469 90.3203 461.172 90.8984 461.172 91.8047C461.172 92.7266 460.445 93.3516 459.375 93.3516H458V95.1094ZM469.797 96.8672C469.883 98.9688 471.625 100.289 474.312 100.289C477.141 100.289 478.883 98.8984 478.883 96.625C478.883 94.875 477.906 93.8984 475.641 93.4219L474.281 93.1328C472.961 92.8516 472.422 92.4531 472.422 91.7578C472.422 90.8984 473.203 90.3516 474.383 90.3516C475.523 90.3516 476.352 90.9453 476.461 91.8359H478.68C478.609 89.8281 476.852 88.4375 474.367 88.4375C471.766 88.4375 470.055 89.8359 470.055 91.9609C470.055 93.6797 471.062 94.75 473.117 95.1797L474.586 95.4922C475.969 95.7891 476.531 96.2031 476.531 96.9219C476.531 97.7734 475.664 98.3672 474.438 98.3672C473.109 98.3672 472.188 97.7812 472.078 96.8672H469.797ZM488.688 91.3828H486.414V96.3516C486.414 97.5 485.805 98.2109 484.672 98.2109C483.625 98.2109 483.086 97.6016 483.086 96.4141V91.3828H480.812V97C480.812 99 481.969 100.188 483.828 100.188C485.133 100.188 485.938 99.6172 486.344 98.6172H486.484V100H488.688V91.3828ZM496.047 100.133C498.211 100.133 499.539 98.4531 499.539 95.6875C499.539 92.9062 498.227 91.2422 496.047 91.2422C494.867 91.2422 493.898 91.8125 493.461 92.7578H493.32V88.0938H491.047V100H493.25V98.6484H493.391C493.852 99.5859 494.828 100.133 496.047 100.133ZM495.258 93.1484C496.461 93.1484 497.203 94.1172 497.203 95.6875C497.203 97.2656 496.469 98.2344 495.258 98.2344C494.055 98.2344 493.305 97.2578 493.297 95.6953C493.305 94.125 494.062 93.1484 495.258 93.1484ZM508.102 100V88.7266H505.742V100H508.102ZM515.898 100C518.305 100 519.797 98.75 519.797 96.7734C519.797 95.3203 518.711 94.1953 517.219 94.0859V93.9453C518.375 93.7734 519.258 92.7344 519.258 91.5391C519.258 89.7969 517.953 88.7266 515.766 88.7266H510.836V100H515.898ZM513.195 90.5312H515.164C516.289 90.5312 516.938 91.0703 516.938 91.9688C516.938 92.875 516.242 93.3984 514.969 93.3984H513.195V90.5312ZM513.195 98.1953V94.9922H515.242C516.633 94.9922 517.391 95.5391 517.391 96.5703C517.391 97.625 516.656 98.1953 515.297 98.1953H513.195ZM523.336 93.5L524.742 88.7266H522.492L521.758 93.5H523.336ZM525.773 93.9141C525.773 95.2422 526.586 96.0391 528.258 96.4062L529.82 96.7578C530.578 96.9219 530.906 97.1797 530.906 97.6016C530.906 98.1562 530.297 98.5234 529.414 98.5234C528.508 98.5234 527.953 98.1875 527.781 97.6016H525.562C525.719 99.2578 527.094 100.188 529.367 100.188C531.625 100.188 533.164 99.0625 533.164 97.3438C533.164 96.0547 532.414 95.3516 530.742 94.9844L529.125 94.6328C528.328 94.4531 527.961 94.1953 527.961 93.7734C527.961 93.2266 528.562 92.8594 529.375 92.8594C530.219 92.8594 530.742 93.2031 530.859 93.7578H532.961C532.836 92.1094 531.547 91.1953 529.359 91.1953C527.211 91.1953 525.773 92.2812 525.773 93.9141Z" fill="white"/>
<path opacity="0.4" fill-rule="evenodd" clip-rule="evenodd" d="M456.136 244.219C456.037 244.138 455.926 244.111 455.816 244.117C455.633 245.444 455.504 245.959 455.504 245.959C455.504 245.959 455.316 245.296 455.247 244.377C455.191 244.423 455.156 244.456 455.156 244.456V246.842C455.156 246.842 455.506 247.133 455.787 246.996C456.067 246.86 456.323 245.759 456.417 245.403C456.51 245.048 456.539 244.546 456.136 244.219Z" fill="white"/>
<path opacity="0.4" fill-rule="evenodd" clip-rule="evenodd" d="M443.375 244.219C442.972 244.546 443.001 245.048 443.094 245.403C443.188 245.759 443.444 246.86 443.725 246.996C443.947 247.105 444.21 246.946 444.311 246.875C444.311 246.834 444.311 246.795 444.311 246.754C444.317 246.714 444.334 246.598 444.355 246.426V244.456C444.355 244.456 443.777 243.891 443.375 244.219Z" fill="white"/>
<path opacity="0.7" fill-rule="evenodd" clip-rule="evenodd" d="M452.575 252.401C452.476 252.094 452.426 251.778 452.406 251.474C451.96 251.739 451.522 251.944 451.087 252.145C450.716 252.317 449.36 252.358 448.899 252.144C448.545 251.979 448.081 251.737 447.615 251.464C447.595 251.77 447.545 252.09 447.446 252.4C447.331 252.759 446.614 253.053 445.825 253.345C445.977 253.555 447.44 255.476 450.038 255.476C452.745 255.476 454.144 253.492 454.244 253.345C453.398 253.08 452.709 252.82 452.575 252.401Z" fill="white"/>
<path fill-rule="evenodd" clip-rule="evenodd" d="M455.493 245.915C455.437 245.704 455.2 244.729 455.223 243.568C455.235 242.936 455.302 242.208 455.229 241.746C455.156 241.284 454.913 240.531 454.355 240.483C454.355 240.483 451.866 243.272 446.53 242.921C446.012 242.887 445.553 242.805 445.142 242.688C444.633 243.084 444.45 243.583 444.465 243.993C444.512 245.369 444.334 246.602 444.311 246.753C444.31 246.978 444.309 247.193 444.309 247.393C444.309 248.81 445.182 249.727 446.478 250.715C447.2 251.267 448.239 251.837 448.899 252.144C449.36 252.358 450.716 252.317 451.087 252.145C451.785 251.823 452.488 251.491 453.222 250.917C454.424 249.977 455.542 248.912 455.542 247.716C455.542 247.414 455.522 246.749 455.493 245.915Z" fill="white"/>
<path fill-rule="evenodd" clip-rule="evenodd" d="M455.484 238.045C454.869 237.295 454.099 236.913 453.249 237.017C452.601 236.175 450.963 235.886 449.396 236.096C447.669 236.326 446.668 236.615 445.426 237.456C444.715 237.937 443.468 239.081 443.285 240.483C443.033 242.422 443.905 244.766 443.931 244.953C444.03 245.676 444.309 246.77 444.309 246.77C444.309 246.77 444.515 245.463 444.465 243.993C444.45 243.584 444.634 243.084 445.142 242.688C445.553 242.806 446.013 242.887 446.53 242.921C451.866 243.272 454.355 240.483 454.355 240.483C454.913 240.531 455.156 241.285 455.229 241.746C455.302 242.208 455.235 242.936 455.223 243.568C455.198 244.881 455.504 245.959 455.504 245.959C455.504 245.959 455.65 245.377 455.852 243.856C455.968 242.985 457.117 240.033 455.484 238.045Z" fill="#5D8EF9"/>
<path fill-rule="evenodd" clip-rule="evenodd" d="M455.484 238.045C454.869 237.295 454.099 236.913 453.249 237.017C452.601 236.175 450.963 235.886 449.396 236.096C447.669 236.326 446.668 236.615 445.426 237.456C444.715 237.937 443.468 239.081 443.285 240.483C443.033 242.422 443.905 244.766 443.931 244.953C444.03 245.676 444.309 246.77 444.309 246.77C444.309 246.77 444.515 245.463 444.465 243.993C444.45 243.584 444.634 243.084 445.142 242.688C445.553 242.806 446.013 242.887 446.53 242.921C451.866 243.272 454.355 240.483 454.355 240.483C454.913 240.531 455.156 241.285 455.229 241.746C455.302 242.208 455.235 242.936 455.223 243.568C455.198 244.881 455.504 245.959 455.504 245.959C455.504 245.959 455.65 245.377 455.852 243.856C455.968 242.985 457.117 240.033 455.484 238.045Z" fill="#BFBFC1"/>
<path fill-rule="evenodd" clip-rule="evenodd" d="M457.007 254.167L454.25 253.336C454.25 253.336 452.849 255.476 450.038 255.476C447.289 255.476 445.811 253.326 445.811 253.326L442.937 254.176C441.408 254.629 440.359 256.033 440.359 257.628V260.177H459.568V257.614C459.568 256.026 458.528 254.625 457.007 254.167Z" fill="#53535D"/>
<path opacity="0.4" fill-rule="evenodd" clip-rule="evenodd" d="M484.136 244.219C484.037 244.138 483.926 244.111 483.816 244.117C483.633 245.444 483.504 245.959 483.504 245.959C483.504 245.959 483.316 245.296 483.247 244.377C483.191 244.423 483.156 244.456 483.156 244.456V246.842C483.156 246.842 483.506 247.133 483.787 246.996C484.067 246.86 484.323 245.759 484.417 245.403C484.51 245.048 484.539 244.546 484.136 244.219Z" fill="white"/>
<path opacity="0.4" fill-rule="evenodd" clip-rule="evenodd" d="M471.375 244.219C470.972 244.546 471.001 245.048 471.094 245.403C471.188 245.759 471.444 246.86 471.725 246.996C471.947 247.105 472.21 246.946 472.311 246.875C472.311 246.834 472.311 246.795 472.311 246.754C472.317 246.714 472.334 246.598 472.355 246.426V244.456C472.355 244.456 471.777 243.891 471.375 244.219Z" fill="white"/>
<path opacity="0.7" fill-rule="evenodd" clip-rule="evenodd" d="M480.575 252.401C480.476 252.094 480.426 251.778 480.406 251.474C479.96 251.739 479.522 251.944 479.087 252.145C478.716 252.317 477.36 252.358 476.899 252.144C476.545 251.979 476.081 251.737 475.615 251.464C475.595 251.77 475.545 252.09 475.446 252.4C475.331 252.759 474.614 253.053 473.825 253.345C473.977 253.555 475.44 255.476 478.038 255.476C480.745 255.476 482.144 253.492 482.244 253.345C481.398 253.08 480.709 252.82 480.575 252.401Z" fill="white"/>
<path fill-rule="evenodd" clip-rule="evenodd" d="M483.493 245.915C483.437 245.704 483.2 244.729 483.223 243.568C483.235 242.936 483.302 242.208 483.229 241.746C483.156 241.284 482.913 240.531 482.355 240.483C482.355 240.483 479.866 243.272 474.53 242.921C474.012 242.887 473.553 242.805 473.142 242.688C472.633 243.084 472.45 243.583 472.465 243.993C472.512 245.369 472.334 246.602 472.311 246.753C472.31 246.978 472.309 247.193 472.309 247.393C472.309 248.81 473.182 249.727 474.478 250.715C475.2 251.267 476.239 251.837 476.899 252.144C477.36 252.358 478.716 252.317 479.087 252.145C479.785 251.823 480.488 251.491 481.222 250.917C482.424 249.977 483.542 248.912 483.542 247.716C483.542 247.414 483.522 246.749 483.493 245.915Z" fill="white"/>
<path fill-rule="evenodd" clip-rule="evenodd" d="M483.484 238.045C482.869 237.295 482.099 236.913 481.249 237.017C480.601 236.175 478.963 235.886 477.396 236.096C475.669 236.326 474.668 236.615 473.426 237.456C472.715 237.937 471.468 239.081 471.285 240.483C471.033 242.422 471.905 244.766 471.931 244.953C472.03 245.676 472.309 246.77 472.309 246.77C472.309 246.77 472.515 245.463 472.465 243.993C472.45 243.584 472.634 243.084 473.142 242.688C473.553 242.806 474.013 242.887 474.53 242.921C479.866 243.272 482.355 240.483 482.355 240.483C482.913 240.531 483.156 241.285 483.229 241.746C483.302 242.208 483.235 242.936 483.223 243.568C483.198 244.881 483.504 245.959 483.504 245.959C483.504 245.959 483.65 245.377 483.852 243.856C483.968 242.985 485.117 240.033 483.484 238.045Z" fill="#5D8EF9"/>
<path fill-rule="evenodd" clip-rule="evenodd" d="M483.484 238.045C482.869 237.295 482.099 236.913 481.249 237.017C480.601 236.175 478.963 235.886 477.396 236.096C475.669 236.326 474.668 236.615 473.426 237.456C472.715 237.937 471.468 239.081 471.285 240.483C471.033 242.422 471.905 244.766 471.931 244.953C472.03 245.676 472.309 246.77 472.309 246.77C472.309 246.77 472.515 245.463 472.465 243.993C472.45 243.584 472.634 243.084 473.142 242.688C473.553 242.806 474.013 242.887 474.53 242.921C479.866 243.272 482.355 240.483 482.355 240.483C482.913 240.531 483.156 241.285 483.229 241.746C483.302 242.208 483.235 242.936 483.223 243.568C483.198 244.881 483.504 245.959 483.504 245.959C483.504 245.959 483.65 245.377 483.852 243.856C483.968 242.985 485.117 240.033 483.484 238.045Z" fill="#BFBFC1"/>
<path fill-rule="evenodd" clip-rule="evenodd" d="M485.007 254.167L482.25 253.336C482.25 253.336 480.849 255.476 478.038 255.476C475.289 255.476 473.811 253.326 473.811 253.326L470.937 254.176C469.408 254.629 468.359 256.033 468.359 257.628V260.177H487.568V257.614C487.568 256.026 486.528 254.625 485.007 254.167Z" fill="#53535D"/>
<path opacity="0.4" fill-rule="evenodd" clip-rule="evenodd" d="M444.209 254.219C443.903 253.97 443.497 254.235 443.319 254.378C443.378 255.16 443.523 255.756 443.565 255.915C443.58 256.335 443.592 256.712 443.601 257.021C443.686 257.038 443.775 257.037 443.859 256.997C444.139 256.86 444.395 255.759 444.489 255.404C444.582 255.048 444.611 254.546 444.209 254.219Z" fill="white"/>
<path opacity="0.4" fill-rule="evenodd" clip-rule="evenodd" d="M431.447 254.219C431.045 254.546 431.074 255.048 431.167 255.403C431.26 255.759 431.517 256.86 431.797 256.996C432.077 257.133 432.427 256.842 432.427 256.842V254.456C432.427 254.456 431.849 253.891 431.447 254.219Z" fill="white"/>
<path opacity="0.7" fill-rule="evenodd" clip-rule="evenodd" d="M440.647 262.401C440.549 262.094 440.499 261.778 440.478 261.474C440.032 261.739 439.595 261.944 439.16 262.145C438.789 262.317 437.433 262.358 436.972 262.144C436.617 261.979 436.154 261.737 435.688 261.464C435.668 261.77 435.618 262.09 435.518 262.4C435.403 262.759 434.686 263.053 433.898 263.345C434.05 263.555 435.512 265.476 438.111 265.476C440.818 265.476 442.216 263.492 442.316 263.345C441.471 263.08 440.782 262.82 440.647 262.401Z" fill="white"/>
<path fill-rule="evenodd" clip-rule="evenodd" d="M443.565 255.915C443.509 255.704 443.272 254.729 443.295 253.568C443.308 252.936 443.374 252.208 443.301 251.746C443.228 251.284 442.985 250.531 442.427 250.483C442.427 250.483 439.938 253.272 434.602 252.921C434.085 252.887 433.625 252.805 433.214 252.688C432.706 253.084 432.523 253.583 432.537 253.993C432.584 255.369 432.406 256.602 432.384 256.753C432.382 256.978 432.381 257.193 432.381 257.393C432.381 258.81 433.254 259.727 434.55 260.715C435.273 261.267 436.312 261.837 436.971 262.144C437.433 262.358 438.788 262.317 439.16 262.145C439.857 261.823 440.56 261.491 441.294 260.917C442.496 259.977 443.614 258.912 443.614 257.716C443.614 257.414 443.594 256.749 443.565 255.915Z" fill="white"/>
<path fill-rule="evenodd" clip-rule="evenodd" d="M443.557 248.045C442.941 247.295 442.172 246.913 441.321 247.017C440.673 246.175 439.035 245.886 437.469 246.096C435.741 246.326 434.74 246.615 433.498 247.456C432.788 247.937 431.54 249.081 431.358 250.483C431.105 252.422 431.977 254.766 432.003 254.953C432.102 255.676 432.381 256.77 432.381 256.77C432.381 256.77 432.587 255.463 432.537 253.993C432.523 253.584 432.706 253.084 433.214 252.688C433.625 252.806 434.085 252.887 434.602 252.921C439.939 253.272 442.427 250.483 442.427 250.483C442.985 250.531 443.228 251.285 443.301 251.746C443.374 252.208 443.308 252.936 443.295 253.568C443.27 254.881 443.577 255.959 443.577 255.959C443.577 255.959 443.722 255.377 443.924 253.856C444.04 252.985 445.189 250.033 443.557 248.045Z" fill="#BFBFC1"/>
<path fill-rule="evenodd" clip-rule="evenodd" d="M445.08 264.167L442.322 263.336C442.322 263.336 440.922 265.476 438.111 265.476C435.362 265.476 433.883 263.326 433.883 263.326L431.01 264.176C429.481 264.629 428.432 266.033 428.432 267.628V270.177H447.641V267.614C447.641 266.026 446.601 264.625 445.08 264.167Z" fill="#53535D"/>
<path opacity="0.4" fill-rule="evenodd" clip-rule="evenodd" d="M517.209 244.219C516.903 243.97 516.497 244.235 516.319 244.378C516.378 245.16 516.523 245.756 516.565 245.915C516.58 246.335 516.592 246.712 516.601 247.021C516.686 247.038 516.775 247.037 516.859 246.997C517.139 246.86 517.395 245.759 517.489 245.404C517.582 245.048 517.611 244.546 517.209 244.219Z" fill="white"/>
<path opacity="0.4" fill-rule="evenodd" clip-rule="evenodd" d="M504.447 244.219C504.045 244.546 504.074 245.048 504.167 245.403C504.26 245.759 504.517 246.86 504.797 246.996C505.077 247.133 505.427 246.842 505.427 246.842V244.456C505.427 244.456 504.849 243.891 504.447 244.219Z" fill="white"/>
<path opacity="0.7" fill-rule="evenodd" clip-rule="evenodd" d="M513.647 252.401C513.549 252.094 513.499 251.778 513.478 251.474C513.032 251.739 512.595 251.944 512.16 252.145C511.789 252.317 510.433 252.358 509.972 252.144C509.617 251.979 509.154 251.737 508.688 251.464C508.668 251.77 508.618 252.09 508.518 252.4C508.403 252.759 507.686 253.053 506.898 253.345C507.05 253.555 508.512 255.476 511.111 255.476C513.818 255.476 515.216 253.492 515.316 253.345C514.471 253.08 513.782 252.82 513.647 252.401Z" fill="white"/>
<path fill-rule="evenodd" clip-rule="evenodd" d="M516.565 245.915C516.509 245.704 516.272 244.729 516.295 243.568C516.308 242.936 516.374 242.208 516.301 241.746C516.228 241.284 515.985 240.531 515.427 240.483C515.427 240.483 512.938 243.272 507.602 242.921C507.085 242.887 506.625 242.805 506.214 242.688C505.706 243.084 505.523 243.583 505.537 243.993C505.584 245.369 505.406 246.602 505.384 246.753C505.382 246.978 505.381 247.193 505.381 247.393C505.381 248.81 506.254 249.727 507.55 250.715C508.273 251.267 509.312 251.837 509.971 252.144C510.433 252.358 511.788 252.317 512.16 252.145C512.857 251.823 513.56 251.491 514.294 250.917C515.496 249.977 516.614 248.912 516.614 247.716C516.614 247.414 516.594 246.749 516.565 245.915Z" fill="white"/>
<path fill-rule="evenodd" clip-rule="evenodd" d="M516.557 238.045C515.941 237.295 515.172 236.913 514.321 237.017C513.673 236.175 512.035 235.886 510.469 236.096C508.741 236.326 507.74 236.615 506.498 237.456C505.788 237.937 504.54 239.081 504.358 240.483C504.105 242.422 504.977 244.766 505.003 244.953C505.102 245.676 505.381 246.77 505.381 246.77C505.381 246.77 505.587 245.463 505.537 243.993C505.523 243.584 505.706 243.084 506.214 242.688C506.625 242.806 507.085 242.887 507.602 242.921C512.939 243.272 515.427 240.483 515.427 240.483C515.985 240.531 516.228 241.285 516.301 241.746C516.374 242.208 516.308 242.936 516.295 243.568C516.27 244.881 516.577 245.959 516.577 245.959C516.577 245.959 516.722 245.377 516.924 243.856C517.04 242.985 518.189 240.033 516.557 238.045Z" fill="#BFBFC1"/>
<path fill-rule="evenodd" clip-rule="evenodd" d="M518.08 254.167L515.322 253.336C515.322 253.336 513.922 255.476 511.111 255.476C508.362 255.476 506.883 253.326 506.883 253.326L504.01 254.176C502.481 254.629 501.432 256.033 501.432 257.628V260.177H520.641V257.614C520.641 256.026 519.601 254.625 518.08 254.167Z" fill="#53535D"/>
<path opacity="0.4" fill-rule="evenodd" clip-rule="evenodd" d="M545.136 244.219C545.037 244.138 544.926 244.111 544.816 244.117C544.633 245.444 544.504 245.959 544.504 245.959C544.504 245.959 544.316 245.296 544.247 244.377C544.191 244.423 544.156 244.456 544.156 244.456V246.842C544.156 246.842 544.506 247.133 544.787 246.996C545.067 246.86 545.323 245.759 545.417 245.403C545.51 245.048 545.539 244.546 545.136 244.219Z" fill="white"/>
<path opacity="0.4" fill-rule="evenodd" clip-rule="evenodd" d="M532.375 244.219C531.972 244.546 532.001 245.048 532.094 245.403C532.188 245.759 532.444 246.86 532.725 246.996C532.947 247.105 533.21 246.946 533.311 246.875C533.311 246.834 533.311 246.795 533.311 246.754C533.317 246.714 533.334 246.598 533.355 246.426V244.456C533.355 244.456 532.777 243.891 532.375 244.219Z" fill="white"/>
<path opacity="0.7" fill-rule="evenodd" clip-rule="evenodd" d="M541.575 252.401C541.476 252.094 541.426 251.778 541.406 251.474C540.96 251.739 540.522 251.944 540.087 252.145C539.716 252.317 538.36 252.358 537.899 252.144C537.545 251.979 537.081 251.737 536.615 251.464C536.595 251.77 536.545 252.09 536.446 252.4C536.331 252.759 535.614 253.053 534.825 253.345C534.977 253.555 536.44 255.476 539.038 255.476C541.745 255.476 543.144 253.492 543.244 253.345C542.398 253.08 541.709 252.82 541.575 252.401Z" fill="white"/>
<path fill-rule="evenodd" clip-rule="evenodd" d="M544.493 245.915C544.437 245.704 544.2 244.729 544.223 243.568C544.235 242.936 544.302 242.208 544.229 241.746C544.156 241.284 543.913 240.531 543.355 240.483C543.355 240.483 540.866 243.272 535.53 242.921C535.012 242.887 534.553 242.805 534.142 242.688C533.633 243.084 533.45 243.583 533.465 243.993C533.512 245.369 533.334 246.602 533.311 246.753C533.31 246.978 533.309 247.193 533.309 247.393C533.309 248.81 534.182 249.727 535.478 250.715C536.2 251.267 537.239 251.837 537.899 252.144C538.36 252.358 539.716 252.317 540.087 252.145C540.785 251.823 541.488 251.491 542.222 250.917C543.424 249.977 544.542 248.912 544.542 247.716C544.542 247.414 544.522 246.749 544.493 245.915Z" fill="white"/>
<path fill-rule="evenodd" clip-rule="evenodd" d="M544.484 238.045C543.869 237.295 543.099 236.913 542.249 237.017C541.601 236.175 539.963 235.886 538.396 236.096C536.669 236.326 535.668 236.615 534.426 237.456C533.715 237.937 532.468 239.081 532.285 240.483C532.033 242.422 532.905 244.766 532.931 244.953C533.03 245.676 533.309 246.77 533.309 246.77C533.309 246.77 533.515 245.463 533.465 243.993C533.45 243.584 533.634 243.084 534.142 242.688C534.553 242.806 535.013 242.887 535.53 242.921C540.866 243.272 543.355 240.483 543.355 240.483C543.913 240.531 544.156 241.285 544.229 241.746C544.302 242.208 544.235 242.936 544.223 243.568C544.198 244.881 544.504 245.959 544.504 245.959C544.504 245.959 544.65 245.377 544.852 243.856C544.968 242.985 546.117 240.033 544.484 238.045Z" fill="#5D8EF9"/>
<path fill-rule="evenodd" clip-rule="evenodd" d="M544.484 238.045C543.869 237.295 543.099 236.913 542.249 237.017C541.601 236.175 539.963 235.886 538.396 236.096C536.669 236.326 535.668 236.615 534.426 237.456C533.715 237.937 532.468 239.081 532.285 240.483C532.033 242.422 532.905 244.766 532.931 244.953C533.03 245.676 533.309 246.77 533.309 246.77C533.309 246.77 533.515 245.463 533.465 243.993C533.45 243.584 533.634 243.084 534.142 242.688C534.553 242.806 535.013 242.887 535.53 242.921C540.866 243.272 543.355 240.483 543.355 240.483C543.913 240.531 544.156 241.285 544.229 241.746C544.302 242.208 544.235 242.936 544.223 243.568C544.198 244.881 544.504 245.959 544.504 245.959C544.504 245.959 544.65 245.377 544.852 243.856C544.968 242.985 546.117 240.033 544.484 238.045Z" fill="#BFBFC1"/>
<path fill-rule="evenodd" clip-rule="evenodd" d="M546.007 254.167L543.25 253.336C543.25 253.336 541.849 255.476 539.038 255.476C536.289 255.476 534.811 253.326 534.811 253.326L531.937 254.176C530.408 254.629 529.359 256.033 529.359 257.628V260.177H548.568V257.614C548.568 256.026 547.528 254.625 546.007 254.167Z" fill="#53535D"/>
<path opacity="0.4" fill-rule="evenodd" clip-rule="evenodd" d="M556.136 254.219C556.037 254.138 555.926 254.111 555.816 254.117C555.633 255.444 555.504 255.959 555.504 255.959C555.504 255.959 555.316 255.296 555.247 254.377C555.191 254.423 555.156 254.456 555.156 254.456V256.842C555.156 256.842 555.506 257.133 555.787 256.996C556.067 256.86 556.323 255.759 556.417 255.403C556.51 255.048 556.539 254.546 556.136 254.219Z" fill="white"/>
<path opacity="0.4" fill-rule="evenodd" clip-rule="evenodd" d="M543.375 254.219C542.972 254.546 543.001 255.048 543.094 255.403C543.188 255.759 543.444 256.86 543.725 256.996C543.947 257.105 544.21 256.946 544.311 256.875C544.311 256.834 544.311 256.795 544.311 256.754C544.317 256.714 544.334 256.598 544.355 256.426V254.456C544.355 254.456 543.777 253.891 543.375 254.219Z" fill="white"/>
<path opacity="0.7" fill-rule="evenodd" clip-rule="evenodd" d="M552.575 262.401C552.476 262.094 552.426 261.778 552.406 261.474C551.96 261.739 551.522 261.944 551.087 262.145C550.716 262.317 549.36 262.358 548.899 262.144C548.545 261.979 548.081 261.737 547.615 261.464C547.595 261.77 547.545 262.09 547.446 262.4C547.331 262.759 546.614 263.053 545.825 263.345C545.977 263.555 547.44 265.476 550.038 265.476C552.745 265.476 554.144 263.492 554.244 263.345C553.398 263.08 552.709 262.82 552.575 262.401Z" fill="white"/>
<path fill-rule="evenodd" clip-rule="evenodd" d="M555.493 255.915C555.437 255.704 555.2 254.729 555.223 253.568C555.235 252.936 555.302 252.208 555.229 251.746C555.156 251.284 554.913 250.531 554.355 250.483C554.355 250.483 551.866 253.272 546.53 252.921C546.012 252.887 545.553 252.805 545.142 252.688C544.633 253.084 544.45 253.583 544.465 253.993C544.512 255.369 544.334 256.602 544.311 256.753C544.31 256.978 544.309 257.193 544.309 257.393C544.309 258.81 545.182 259.727 546.478 260.715C547.2 261.267 548.239 261.837 548.899 262.144C549.36 262.358 550.716 262.317 551.087 262.145C551.785 261.823 552.488 261.491 553.222 260.917C554.424 259.977 555.542 258.912 555.542 257.716C555.542 257.414 555.522 256.749 555.493 255.915Z" fill="white"/>
<path fill-rule="evenodd" clip-rule="evenodd" d="M555.484 248.045C554.869 247.295 554.099 246.913 553.249 247.017C552.601 246.175 550.963 245.886 549.396 246.096C547.669 246.326 546.668 246.615 545.426 247.456C544.715 247.937 543.468 249.081 543.285 250.483C543.033 252.422 543.905 254.766 543.931 254.953C544.03 255.676 544.309 256.77 544.309 256.77C544.309 256.77 544.515 255.463 544.465 253.993C544.45 253.584 544.634 253.084 545.142 252.688C545.553 252.806 546.013 252.887 546.53 252.921C551.866 253.272 554.355 250.483 554.355 250.483C554.913 250.531 555.156 251.285 555.229 251.746C555.302 252.208 555.235 252.936 555.223 253.568C555.198 254.881 555.504 255.959 555.504 255.959C555.504 255.959 555.65 255.377 555.852 253.856C555.968 252.985 557.117 250.033 555.484 248.045Z" fill="#5D8EF9"/>
<path fill-rule="evenodd" clip-rule="evenodd" d="M555.484 248.045C554.869 247.295 554.099 246.913 553.249 247.017C552.601 246.175 550.963 245.886 549.396 246.096C547.669 246.326 546.668 246.615 545.426 247.456C544.715 247.937 543.468 249.081 543.285 250.483C543.033 252.422 543.905 254.766 543.931 254.953C544.03 255.676 544.309 256.77 544.309 256.77C544.309 256.77 544.515 255.463 544.465 253.993C544.45 253.584 544.634 253.084 545.142 252.688C545.553 252.806 546.013 252.887 546.53 252.921C551.866 253.272 554.355 250.483 554.355 250.483C554.913 250.531 555.156 251.285 555.229 251.746C555.302 252.208 555.235 252.936 555.223 253.568C555.198 254.881 555.504 255.959 555.504 255.959C555.504 255.959 555.65 255.377 555.852 253.856C555.968 252.985 557.117 250.033 555.484 248.045Z" fill="#BFBFC1"/>
<path fill-rule="evenodd" clip-rule="evenodd" d="M557.007 264.167L554.25 263.336C554.25 263.336 552.849 265.476 550.038 265.476C547.289 265.476 545.811 263.326 545.811 263.326L542.937 264.176C541.408 264.629 540.359 266.033 540.359 267.628V270.177H559.568V267.614C559.568 266.026 558.528 264.625 557.007 264.167Z" fill="#53535D"/>
<path opacity="0.4" fill-rule="evenodd" clip-rule="evenodd" d="M472.209 254.219C471.903 253.97 471.497 254.235 471.319 254.378C471.378 255.16 471.523 255.756 471.565 255.915C471.58 256.335 471.592 256.712 471.601 257.021C471.686 257.038 471.775 257.037 471.859 256.997C472.139 256.86 472.395 255.759 472.489 255.404C472.582 255.048 472.611 254.546 472.209 254.219Z" fill="white"/>
<path opacity="0.4" fill-rule="evenodd" clip-rule="evenodd" d="M459.447 254.219C459.045 254.546 459.074 255.048 459.167 255.403C459.26 255.759 459.517 256.86 459.797 256.996C460.077 257.133 460.427 256.842 460.427 256.842V254.456C460.427 254.456 459.849 253.891 459.447 254.219Z" fill="white"/>
<path opacity="0.7" fill-rule="evenodd" clip-rule="evenodd" d="M468.647 262.401C468.549 262.094 468.499 261.778 468.478 261.474C468.032 261.739 467.595 261.944 467.16 262.145C466.789 262.317 465.433 262.358 464.972 262.144C464.617 261.979 464.154 261.737 463.688 261.464C463.668 261.77 463.618 262.09 463.518 262.4C463.403 262.759 462.686 263.053 461.898 263.345C462.05 263.555 463.512 265.476 466.111 265.476C468.818 265.476 470.216 263.492 470.316 263.345C469.471 263.08 468.782 262.82 468.647 262.401Z" fill="white"/>
<path fill-rule="evenodd" clip-rule="evenodd" d="M471.565 255.915C471.509 255.704 471.272 254.729 471.295 253.568C471.308 252.936 471.374 252.208 471.301 251.746C471.228 251.284 470.985 250.531 470.427 250.483C470.427 250.483 467.938 253.272 462.602 252.921C462.085 252.887 461.625 252.805 461.214 252.688C460.706 253.084 460.523 253.583 460.537 253.993C460.584 255.369 460.406 256.602 460.384 256.753C460.382 256.978 460.381 257.193 460.381 257.393C460.381 258.81 461.254 259.727 462.55 260.715C463.273 261.267 464.312 261.837 464.971 262.144C465.433 262.358 466.788 262.317 467.16 262.145C467.857 261.823 468.56 261.491 469.294 260.917C470.496 259.977 471.614 258.912 471.614 257.716C471.614 257.414 471.594 256.749 471.565 255.915Z" fill="white"/>
<path fill-rule="evenodd" clip-rule="evenodd" d="M471.557 248.045C470.941 247.295 470.172 246.913 469.321 247.017C468.673 246.175 467.035 245.886 465.469 246.096C463.741 246.326 462.74 246.615 461.498 247.456C460.788 247.937 459.54 249.081 459.358 250.483C459.105 252.422 459.977 254.766 460.003 254.953C460.102 255.676 460.381 256.77 460.381 256.77C460.381 256.77 460.587 255.463 460.537 253.993C460.523 253.584 460.706 253.084 461.214 252.688C461.625 252.806 462.085 252.887 462.602 252.921C467.939 253.272 470.427 250.483 470.427 250.483C470.985 250.531 471.228 251.285 471.301 251.746C471.374 252.208 471.308 252.936 471.295 253.568C471.27 254.881 471.577 255.959 471.577 255.959C471.577 255.959 471.722 255.377 471.924 253.856C472.04 252.985 473.189 250.033 471.557 248.045Z" fill="#BFBFC1"/>
<path fill-rule="evenodd" clip-rule="evenodd" d="M473.08 264.167L470.322 263.336C470.322 263.336 468.922 265.476 466.111 265.476C463.362 265.476 461.883 263.326 461.883 263.326L459.01 264.176C457.481 264.629 456.432 266.033 456.432 267.628V270.177H475.641V267.614C475.641 266.026 474.601 264.625 473.08 264.167Z" fill="#53535D"/>
<path opacity="0.4" fill-rule="evenodd" clip-rule="evenodd" d="M500.136 254.219C500.037 254.138 499.926 254.111 499.816 254.117C499.633 255.444 499.504 255.959 499.504 255.959C499.504 255.959 499.316 255.296 499.247 254.377C499.191 254.423 499.156 254.456 499.156 254.456V256.842C499.156 256.842 499.506 257.133 499.787 256.996C500.067 256.86 500.323 255.759 500.417 255.403C500.51 255.048 500.539 254.546 500.136 254.219Z" fill="white"/>
<path opacity="0.4" fill-rule="evenodd" clip-rule="evenodd" d="M487.375 254.219C486.972 254.546 487.001 255.048 487.094 255.403C487.188 255.759 487.444 256.86 487.725 256.996C487.947 257.105 488.21 256.946 488.311 256.875C488.311 256.834 488.311 256.795 488.311 256.754C488.317 256.714 488.334 256.598 488.355 256.426V254.456C488.355 254.456 487.777 253.891 487.375 254.219Z" fill="white"/>
<path opacity="0.7" fill-rule="evenodd" clip-rule="evenodd" d="M496.575 262.401C496.476 262.094 496.426 261.778 496.406 261.474C495.96 261.739 495.522 261.944 495.087 262.145C494.716 262.317 493.36 262.358 492.899 262.144C492.545 261.979 492.081 261.737 491.615 261.464C491.595 261.77 491.545 262.09 491.446 262.4C491.331 262.759 490.614 263.053 489.825 263.345C489.977 263.555 491.44 265.476 494.038 265.476C496.745 265.476 498.144 263.492 498.244 263.345C497.398 263.08 496.709 262.82 496.575 262.401Z" fill="white"/>
<path fill-rule="evenodd" clip-rule="evenodd" d="M499.493 255.915C499.437 255.704 499.2 254.729 499.223 253.568C499.235 252.936 499.302 252.208 499.229 251.746C499.156 251.284 498.913 250.531 498.355 250.483C498.355 250.483 495.866 253.272 490.53 252.921C490.012 252.887 489.553 252.805 489.142 252.688C488.633 253.084 488.45 253.583 488.465 253.993C488.512 255.369 488.334 256.602 488.311 256.753C488.31 256.978 488.309 257.193 488.309 257.393C488.309 258.81 489.182 259.727 490.478 260.715C491.2 261.267 492.239 261.837 492.899 262.144C493.36 262.358 494.716 262.317 495.087 262.145C495.785 261.823 496.488 261.491 497.222 260.917C498.424 259.977 499.542 258.912 499.542 257.716C499.542 257.414 499.522 256.749 499.493 255.915Z" fill="white"/>
<path fill-rule="evenodd" clip-rule="evenodd" d="M499.484 248.045C498.869 247.295 498.099 246.913 497.249 247.017C496.601 246.175 494.963 245.886 493.396 246.096C491.669 246.326 490.668 246.615 489.426 247.456C488.715 247.937 487.468 249.081 487.285 250.483C487.033 252.422 487.905 254.766 487.931 254.953C488.03 255.676 488.309 256.77 488.309 256.77C488.309 256.77 488.515 255.463 488.465 253.993C488.45 253.584 488.634 253.084 489.142 252.688C489.553 252.806 490.013 252.887 490.53 252.921C495.866 253.272 498.355 250.483 498.355 250.483C498.913 250.531 499.156 251.285 499.229 251.746C499.302 252.208 499.235 252.936 499.223 253.568C499.198 254.881 499.504 255.959 499.504 255.959C499.504 255.959 499.65 255.377 499.852 253.856C499.968 252.985 501.117 250.033 499.484 248.045Z" fill="#5D8EF9"/>
<path fill-rule="evenodd" clip-rule="evenodd" d="M499.484 248.045C498.869 247.295 498.099 246.913 497.249 247.017C496.601 246.175 494.963 245.886 493.396 246.096C491.669 246.326 490.668 246.615 489.426 247.456C488.715 247.937 487.468 249.081 487.285 250.483C487.033 252.422 487.905 254.766 487.931 254.953C488.03 255.676 488.309 256.77 488.309 256.77C488.309 256.77 488.515 255.463 488.465 253.993C488.45 253.584 488.634 253.084 489.142 252.688C489.553 252.806 490.013 252.887 490.53 252.921C495.866 253.272 498.355 250.483 498.355 250.483C498.913 250.531 499.156 251.285 499.229 251.746C499.302 252.208 499.235 252.936 499.223 253.568C499.198 254.881 499.504 255.959 499.504 255.959C499.504 255.959 499.65 255.377 499.852 253.856C499.968 252.985 501.117 250.033 499.484 248.045Z" fill="#BFBFC1"/>
<path fill-rule="evenodd" clip-rule="evenodd" d="M501.007 264.167L498.25 263.336C498.25 263.336 496.849 265.476 494.038 265.476C491.289 265.476 489.811 263.326 489.811 263.326L486.937 264.176C485.408 264.629 484.359 266.033 484.359 267.628V270.177H503.568V267.614C503.568 266.026 502.528 264.625 501.007 264.167Z" fill="#53535D"/>
<path opacity="0.4" fill-rule="evenodd" clip-rule="evenodd" d="M528.136 254.219C528.037 254.138 527.926 254.111 527.816 254.117C527.633 255.444 527.504 255.959 527.504 255.959C527.504 255.959 527.316 255.296 527.247 254.377C527.191 254.423 527.156 254.456 527.156 254.456V256.842C527.156 256.842 527.506 257.133 527.787 256.996C528.067 256.86 528.323 255.759 528.417 255.403C528.51 255.048 528.539 254.546 528.136 254.219Z" fill="white"/>
<path opacity="0.4" fill-rule="evenodd" clip-rule="evenodd" d="M515.375 254.219C514.972 254.546 515.001 255.048 515.094 255.403C515.188 255.759 515.444 256.86 515.725 256.996C515.947 257.105 516.21 256.946 516.311 256.875C516.311 256.834 516.311 256.795 516.311 256.754C516.317 256.714 516.334 256.598 516.355 256.426V254.456C516.355 254.456 515.777 253.891 515.375 254.219Z" fill="white"/>
<path opacity="0.7" fill-rule="evenodd" clip-rule="evenodd" d="M524.575 262.401C524.476 262.094 524.426 261.778 524.406 261.474C523.96 261.739 523.522 261.944 523.087 262.145C522.716 262.317 521.36 262.358 520.899 262.144C520.545 261.979 520.081 261.737 519.615 261.464C519.595 261.77 519.545 262.09 519.446 262.4C519.331 262.759 518.614 263.053 517.825 263.345C517.977 263.555 519.44 265.476 522.038 265.476C524.745 265.476 526.144 263.492 526.244 263.345C525.398 263.08 524.709 262.82 524.575 262.401Z" fill="white"/>
<path fill-rule="evenodd" clip-rule="evenodd" d="M527.493 255.915C527.437 255.704 527.2 254.729 527.223 253.568C527.235 252.936 527.302 252.208 527.229 251.746C527.156 251.284 526.913 250.531 526.355 250.483C526.355 250.483 523.866 253.272 518.53 252.921C518.012 252.887 517.553 252.805 517.142 252.688C516.633 253.084 516.45 253.583 516.465 253.993C516.512 255.369 516.334 256.602 516.311 256.753C516.31 256.978 516.309 257.193 516.309 257.393C516.309 258.81 517.182 259.727 518.478 260.715C519.2 261.267 520.239 261.837 520.899 262.144C521.36 262.358 522.716 262.317 523.087 262.145C523.785 261.823 524.488 261.491 525.222 260.917C526.424 259.977 527.542 258.912 527.542 257.716C527.542 257.414 527.522 256.749 527.493 255.915Z" fill="white"/>
<path fill-rule="evenodd" clip-rule="evenodd" d="M527.484 248.045C526.869 247.295 526.099 246.913 525.249 247.017C524.601 246.175 522.963 245.886 521.396 246.096C519.669 246.326 518.668 246.615 517.426 247.456C516.715 247.937 515.468 249.081 515.285 250.483C515.033 252.422 515.905 254.766 515.931 254.953C516.03 255.676 516.309 256.77 516.309 256.77C516.309 256.77 516.515 255.463 516.465 253.993C516.45 253.584 516.634 253.084 517.142 252.688C517.553 252.806 518.013 252.887 518.53 252.921C523.866 253.272 526.355 250.483 526.355 250.483C526.913 250.531 527.156 251.285 527.229 251.746C527.302 252.208 527.235 252.936 527.223 253.568C527.198 254.881 527.504 255.959 527.504 255.959C527.504 255.959 527.65 255.377 527.852 253.856C527.968 252.985 529.117 250.033 527.484 248.045Z" fill="#5D8EF9"/>
<path fill-rule="evenodd" clip-rule="evenodd" d="M527.484 248.045C526.869 247.295 526.099 246.913 525.249 247.017C524.601 246.175 522.963 245.886 521.396 246.096C519.669 246.326 518.668 246.615 517.426 247.456C516.715 247.937 515.468 249.081 515.285 250.483C515.033 252.422 515.905 254.766 515.931 254.953C516.03 255.676 516.309 256.77 516.309 256.77C516.309 256.77 516.515 255.463 516.465 253.993C516.45 253.584 516.634 253.084 517.142 252.688C517.553 252.806 518.013 252.887 518.53 252.921C523.866 253.272 526.355 250.483 526.355 250.483C526.913 250.531 527.156 251.285 527.229 251.746C527.302 252.208 527.235 252.936 527.223 253.568C527.198 254.881 527.504 255.959 527.504 255.959C527.504 255.959 527.65 255.377 527.852 253.856C527.968 252.985 529.117 250.033 527.484 248.045Z" fill="#BFBFC1"/>
<path fill-rule="evenodd" clip-rule="evenodd" d="M529.007 264.167L526.25 263.336C526.25 263.336 524.849 265.476 522.038 265.476C519.289 265.476 517.811 263.326 517.811 263.326L514.937 264.176C513.408 264.629 512.359 266.033 512.359 267.628V270.177H531.568V267.614C531.568 266.026 530.528 264.625 529.007 264.167Z" fill="#53535D"/>
<path fill-rule="evenodd" clip-rule="evenodd" d="M375.387 120.874C374.327 120.658 373.291 121.343 373.075 122.404L372.168 126.86L363.104 114.085C362.743 113.576 362.158 113.273 361.534 113.273C359.974 113.273 359.061 115.031 359.958 116.307L368.897 129.024L364.442 128.117C363.38 127.9 362.345 128.586 362.129 129.647C361.913 130.708 362.598 131.744 363.659 131.959L372.754 133.81C372.886 133.837 373.018 133.85 373.147 133.85C374.06 133.85 374.878 133.209 375.067 132.28L376.918 123.185C377.134 122.125 376.449 121.089 375.387 120.874Z" fill="white"/>
<path fill-rule="evenodd" clip-rule="evenodd" d="M501.024 192.682C500.279 191.897 499.037 191.864 498.252 192.609L494.952 195.74L494.873 189.294C494.86 188.235 493.998 187.384 492.939 187.384C491.868 187.384 491.001 188.254 491.006 189.326L491.032 195.636L487.903 192.337C487.158 191.551 485.916 191.519 485.131 192.264C484.345 193.01 484.312 194.251 485.058 195.036L491.446 201.769C491.539 201.866 491.639 201.953 491.746 202.027C492.494 202.551 493.531 202.494 494.218 201.842L500.951 195.454C501.737 194.709 501.769 193.468 501.024 192.682Z" fill="white"/>
<path fill-rule="evenodd" clip-rule="evenodd" d="M290.558 128.117L286.102 129.024L295.041 116.307C295.938 115.031 295.026 113.274 293.466 113.274C292.842 113.274 292.256 113.576 291.895 114.085L282.832 126.861L281.925 122.404C281.709 121.343 280.674 120.659 279.612 120.874C278.551 121.09 277.866 122.125 278.082 123.186L279.933 132.281C280.122 133.21 280.94 133.851 281.852 133.851C281.982 133.851 282.114 133.838 282.246 133.811L291.341 131.96C292.402 131.744 293.087 130.709 292.871 129.648C292.654 128.586 291.62 127.902 290.558 128.117Z" fill="white"/>
<path opacity="0.4" fill-rule="evenodd" clip-rule="evenodd" d="M105.645 154.879C105.085 154.428 104.343 154.909 104.017 155.167C104.125 156.582 104.39 157.661 104.467 157.95C104.495 158.71 104.517 159.392 104.533 159.952C104.689 159.982 104.852 159.982 105.005 159.908C105.517 159.66 105.986 157.668 106.158 157.024C106.329 156.38 106.381 155.472 105.645 154.879Z" fill="white"/>
<path opacity="0.4" fill-rule="evenodd" clip-rule="evenodd" d="M82.3045 154.879C81.5683 155.472 81.6214 156.38 81.7917 157.023C81.9628 157.667 82.4322 159.66 82.9447 159.907C83.4564 160.154 84.0969 159.628 84.0969 159.628V155.308C84.0969 155.308 83.0404 154.285 82.3045 154.879Z" fill="white"/>
<path opacity="0.7" fill-rule="evenodd" clip-rule="evenodd" d="M99.1312 169.691C98.9512 169.135 98.8593 168.563 98.822 168.013C98.0066 168.494 97.2065 168.864 96.4111 169.229C95.7318 169.539 93.2524 169.614 92.4089 169.226C91.7605 168.927 90.9127 168.49 90.061 167.995C90.0245 168.55 89.9323 169.129 89.7505 169.69C89.5403 170.34 88.2292 170.872 86.7865 171.401C87.0648 171.781 89.7401 175.258 94.4925 175.258C99.4435 175.258 102 171.666 102.183 171.401C100.637 170.921 99.3775 170.451 99.1312 169.691Z" fill="white"/>
<path fill-rule="evenodd" clip-rule="evenodd" d="M104.467 157.95C104.366 157.568 103.933 155.802 103.974 153.701C103.997 152.557 104.118 151.238 103.985 150.403C103.852 149.567 103.407 148.203 102.386 148.116C102.386 148.116 97.8348 153.164 88.0754 152.53C87.1286 152.468 86.288 152.32 85.5367 152.107C84.6065 152.825 84.2719 153.729 84.2977 154.47C84.3845 156.961 84.0592 159.193 84.0176 159.468C84.0147 159.874 84.0129 160.263 84.0129 160.624C84.0129 163.191 85.6102 164.851 87.98 166.639C89.3015 167.638 91.2018 168.67 92.4085 169.226C93.252 169.614 95.7315 169.539 96.4107 169.228C97.6856 168.645 98.9723 168.044 100.314 167.004C102.513 165.303 104.557 163.375 104.557 161.21C104.557 160.664 104.522 159.459 104.467 157.95Z" fill="white"/>
<path fill-rule="evenodd" clip-rule="evenodd" d="M104.452 143.702C103.326 142.344 101.919 141.653 100.363 141.842C99.1789 140.316 96.183 139.793 93.318 140.173C90.1582 140.591 88.3271 141.112 86.056 142.636C84.7567 143.507 82.4749 145.578 82.141 148.115C81.6794 151.625 83.2742 155.869 83.3216 156.208C83.503 157.516 84.0133 159.497 84.0133 159.497C84.0133 159.497 84.3902 157.131 84.2981 154.47C84.2719 153.729 84.6068 152.825 85.5371 152.108C86.288 152.321 87.129 152.469 88.0757 152.53C97.8351 153.164 102.386 148.116 102.386 148.116C103.408 148.203 103.852 149.567 103.985 150.403C104.119 151.239 103.997 152.557 103.975 153.701C103.928 156.078 104.489 158.03 104.489 158.03C104.489 158.03 104.755 156.975 105.125 154.221C105.337 152.646 107.438 147.3 104.452 143.702Z" fill="#BFBFC1"/>
<path fill-rule="evenodd" clip-rule="evenodd" d="M107.238 172.889L102.194 171.384C102.194 171.384 99.6336 175.258 94.4921 175.258C89.4639 175.258 86.7603 171.365 86.7603 171.365L81.5048 172.904C78.7083 173.724 76.7893 176.267 76.7893 179.154V183.768H111.922V179.128C111.922 176.253 110.019 173.718 107.238 172.889Z" fill="#53535D"/>
<path opacity="0.4" fill-rule="evenodd" clip-rule="evenodd" d="M156.723 154.879C156.541 154.732 156.338 154.684 156.138 154.695C155.802 157.096 155.567 158.03 155.567 158.03C155.567 158.03 155.224 156.829 155.097 155.166C154.993 155.248 154.931 155.308 154.931 155.308V159.628C154.931 159.628 155.571 160.154 156.084 159.907C156.596 159.66 157.064 157.667 157.236 157.023C157.407 156.38 157.459 155.472 156.723 154.879Z" fill="white"/>
<path opacity="0.4" fill-rule="evenodd" clip-rule="evenodd" d="M133.383 154.879C132.646 155.472 132.699 156.38 132.87 157.023C133.041 157.667 133.51 159.66 134.023 159.907C134.429 160.104 134.911 159.815 135.095 159.687C135.095 159.613 135.095 159.542 135.096 159.468C135.107 159.395 135.137 159.186 135.175 158.874V155.308C135.175 155.308 134.119 154.285 133.383 154.879Z" fill="white"/>
<path opacity="0.7" fill-rule="evenodd" clip-rule="evenodd" d="M150.209 169.691C150.029 169.135 149.937 168.563 149.9 168.013C149.084 168.494 148.284 168.864 147.489 169.229C146.81 169.539 144.33 169.614 143.487 169.226C142.838 168.927 141.991 168.49 141.139 167.995C141.102 168.55 141.01 169.129 140.828 169.69C140.618 170.34 139.307 170.872 137.864 171.401C138.143 171.781 140.818 175.258 145.57 175.258C150.521 175.258 153.078 171.666 153.261 171.401C151.715 170.921 150.455 170.451 150.209 169.691Z" fill="white"/>
<path fill-rule="evenodd" clip-rule="evenodd" d="M155.546 157.95C155.444 157.568 155.011 155.802 155.053 153.701C155.075 152.557 155.197 151.238 155.063 150.403C154.93 149.567 154.486 148.203 153.464 148.116C153.464 148.116 148.913 153.164 139.154 152.53C138.207 152.468 137.366 152.32 136.615 152.107C135.685 152.825 135.35 153.729 135.376 154.47C135.463 156.961 135.138 159.193 135.096 159.468C135.093 159.874 135.091 160.263 135.091 160.624C135.091 163.191 136.688 164.851 139.058 166.639C140.38 167.638 142.28 168.67 143.487 169.226C144.33 169.614 146.81 169.539 147.489 169.228C148.764 168.645 150.051 168.044 151.392 167.004C153.591 165.303 155.636 163.375 155.636 161.21C155.636 160.664 155.6 159.459 155.546 157.95Z" fill="white"/>
<path fill-rule="evenodd" clip-rule="evenodd" d="M155.531 143.702C154.405 142.344 152.998 141.653 151.442 141.842C150.257 140.316 147.261 139.793 144.396 140.173C141.236 140.591 139.405 141.112 137.134 142.636C135.835 143.507 133.553 145.578 133.219 148.115C132.758 151.625 134.352 155.869 134.4 156.208C134.581 157.516 135.092 159.497 135.092 159.497C135.092 159.497 135.468 157.131 135.376 154.47C135.35 153.729 135.685 152.825 136.615 152.108C137.366 152.321 138.207 152.469 139.154 152.53C148.913 153.164 153.465 148.116 153.465 148.116C154.486 148.203 154.93 149.567 155.064 150.403C155.197 151.239 155.076 152.557 155.053 153.701C155.006 156.078 155.568 158.03 155.568 158.03C155.568 158.03 155.833 156.975 156.203 154.221C156.415 152.646 158.516 147.3 155.531 143.702Z" fill="#5D8EF9"/>
<path fill-rule="evenodd" clip-rule="evenodd" d="M155.531 143.702C154.405 142.344 152.998 141.653 151.442 141.842C150.257 140.316 147.261 139.793 144.396 140.173C141.236 140.591 139.405 141.112 137.134 142.636C135.835 143.507 133.553 145.578 133.219 148.115C132.758 151.625 134.352 155.869 134.4 156.208C134.581 157.516 135.092 159.497 135.092 159.497C135.092 159.497 135.468 157.131 135.376 154.47C135.35 153.729 135.685 152.825 136.615 152.108C137.366 152.321 138.207 152.469 139.154 152.53C148.913 153.164 153.465 148.116 153.465 148.116C154.486 148.203 154.93 149.567 155.064 150.403C155.197 151.239 155.076 152.557 155.053 153.701C155.006 156.078 155.568 158.03 155.568 158.03C155.568 158.03 155.833 156.975 156.203 154.221C156.415 152.646 158.516 147.3 155.531 143.702Z" fill="#BFBFC1"/>
<path fill-rule="evenodd" clip-rule="evenodd" d="M158.316 172.889L153.272 171.384C153.272 171.384 150.711 175.258 145.57 175.258C140.542 175.258 137.838 171.365 137.838 171.365L132.583 172.904C129.786 173.724 127.867 176.267 127.867 179.154V183.768H163V179.128C163 176.253 161.098 173.718 158.316 172.889Z" fill="#53535D"/>
<path opacity="0.4" fill-rule="evenodd" clip-rule="evenodd" d="M207.933 154.879C207.751 154.732 207.549 154.684 207.348 154.695C207.013 157.096 206.778 158.03 206.778 158.03C206.778 158.03 206.434 156.829 206.307 155.166C206.204 155.248 206.141 155.308 206.141 155.308V159.628C206.141 159.628 206.781 160.154 207.294 159.907C207.806 159.66 208.275 157.667 208.447 157.023C208.617 156.38 208.67 155.472 207.933 154.879Z" fill="white"/>
<path opacity="0.4" fill-rule="evenodd" clip-rule="evenodd" d="M184.593 154.879C183.857 155.472 183.91 156.38 184.08 157.023C184.251 157.667 184.721 159.66 185.233 159.907C185.639 160.104 186.121 159.815 186.305 159.687C186.306 159.613 186.306 159.542 186.306 159.468C186.317 159.395 186.348 159.186 186.385 158.874V155.308C186.385 155.308 185.329 154.285 184.593 154.879Z" fill="white"/>
<path opacity="0.7" fill-rule="evenodd" clip-rule="evenodd" d="M201.42 169.691C201.239 169.135 201.148 168.563 201.11 168.013C200.295 168.494 199.495 168.864 198.699 169.229C198.02 169.539 195.541 169.614 194.697 169.226C194.049 168.927 193.201 168.49 192.349 167.995C192.312 168.55 192.221 169.129 192.039 169.69C191.829 170.34 190.518 170.872 189.075 171.401C189.353 171.781 192.028 175.258 196.781 175.258C201.732 175.258 204.289 171.666 204.472 171.401C202.926 170.921 201.666 170.451 201.42 169.691Z" fill="white"/>
<path fill-rule="evenodd" clip-rule="evenodd" d="M206.756 157.95C206.654 157.568 206.221 155.802 206.263 153.701C206.286 152.557 206.407 151.238 206.274 150.403C206.14 149.567 205.696 148.203 204.675 148.116C204.675 148.116 200.123 153.164 190.364 152.53C189.417 152.468 188.577 152.32 187.825 152.107C186.895 152.825 186.561 153.729 186.586 154.47C186.673 156.961 186.348 159.193 186.306 159.468C186.303 159.874 186.302 160.263 186.302 160.624C186.302 163.191 187.899 164.851 190.269 166.639C191.59 167.638 193.49 168.67 194.697 169.226C195.541 169.614 198.02 169.539 198.699 169.228C199.974 168.645 201.261 168.044 202.603 167.004C204.802 165.303 206.846 163.375 206.846 161.21C206.846 160.664 206.81 159.459 206.756 157.95Z" fill="white"/>
<path fill-rule="evenodd" clip-rule="evenodd" d="M206.741 143.702C205.615 142.344 204.208 141.653 202.652 141.842C201.468 140.316 198.472 139.793 195.607 140.173C192.447 140.591 190.616 141.112 188.345 142.636C187.045 143.507 184.764 145.578 184.43 148.115C183.968 151.625 185.563 155.869 185.61 156.208C185.792 157.516 186.302 159.497 186.302 159.497C186.302 159.497 186.679 157.131 186.587 154.47C186.561 153.729 186.896 152.825 187.826 152.108C188.577 152.321 189.418 152.469 190.364 152.53C200.124 153.164 204.675 148.116 204.675 148.116C205.696 148.203 206.141 149.567 206.274 150.403C206.408 151.239 206.286 152.557 206.263 153.701C206.217 156.078 206.778 158.03 206.778 158.03C206.778 158.03 207.044 156.975 207.414 154.221C207.625 152.646 209.727 147.3 206.741 143.702Z" fill="#5D8EF9"/>
<path fill-rule="evenodd" clip-rule="evenodd" d="M206.741 143.702C205.615 142.344 204.208 141.653 202.652 141.842C201.468 140.316 198.472 139.793 195.607 140.173C192.447 140.591 190.616 141.112 188.345 142.636C187.045 143.507 184.764 145.578 184.43 148.115C183.968 151.625 185.563 155.869 185.61 156.208C185.792 157.516 186.302 159.497 186.302 159.497C186.302 159.497 186.679 157.131 186.587 154.47C186.561 153.729 186.896 152.825 187.826 152.108C188.577 152.321 189.418 152.469 190.364 152.53C200.124 153.164 204.675 148.116 204.675 148.116C205.696 148.203 206.141 149.567 206.274 150.403C206.408 151.239 206.286 152.557 206.263 153.701C206.217 156.078 206.778 158.03 206.778 158.03C206.778 158.03 207.044 156.975 207.414 154.221C207.625 152.646 209.727 147.3 206.741 143.702Z" fill="#BFBFC1"/>
<path fill-rule="evenodd" clip-rule="evenodd" d="M209.527 172.889L204.483 171.384C204.483 171.384 201.922 175.258 196.78 175.258C191.752 175.258 189.049 171.365 189.049 171.365L183.793 172.904C180.997 173.724 179.078 176.267 179.078 179.154V183.768H214.21V179.128C214.211 176.253 212.308 173.718 209.527 172.889Z" fill="#53535D"/>
<path opacity="0.4" fill-rule="evenodd" clip-rule="evenodd" d="M131.25 214.62C130.691 214.169 129.948 214.65 129.623 214.908C129.73 216.324 129.996 217.403 130.073 217.692C130.1 218.451 130.122 219.134 130.138 219.694C130.294 219.724 130.457 219.723 130.61 219.649C131.122 219.401 131.591 217.409 131.763 216.765C131.934 216.121 131.986 215.213 131.25 214.62Z" fill="white"/>
<path opacity="0.4" fill-rule="evenodd" clip-rule="evenodd" d="M107.91 214.62C107.174 215.213 107.227 216.121 107.397 216.765C107.568 217.408 108.037 219.401 108.55 219.649C109.062 219.896 109.702 219.369 109.702 219.369V215.049C109.702 215.049 108.646 214.026 107.91 214.62Z" fill="white"/>
<path opacity="0.7" fill-rule="evenodd" clip-rule="evenodd" d="M124.736 229.432C124.556 228.876 124.465 228.304 124.427 227.755C123.612 228.235 122.812 228.605 122.016 228.97C121.337 229.28 118.858 229.356 118.014 228.968C117.366 228.669 116.518 228.231 115.666 227.736C115.63 228.291 115.538 228.87 115.356 229.432C115.146 230.081 113.834 230.614 112.392 231.142C112.67 231.522 115.345 234.999 120.098 234.999C125.049 234.999 127.606 231.408 127.789 231.142C126.243 230.662 124.983 230.192 124.736 229.432Z" fill="white"/>
<path fill-rule="evenodd" clip-rule="evenodd" d="M130.073 217.692C129.971 217.309 129.538 215.543 129.58 213.442C129.602 212.298 129.724 210.979 129.59 210.144C129.457 209.308 129.013 207.944 127.991 207.857C127.991 207.857 123.44 212.905 113.681 212.271C112.734 212.209 111.893 212.061 111.142 211.849C110.212 212.566 109.877 213.47 109.903 214.211C109.99 216.703 109.664 218.935 109.623 219.209C109.62 219.615 109.618 220.004 109.618 220.366C109.618 222.932 111.215 224.592 113.585 226.381C114.907 227.379 116.807 228.411 118.014 228.968C118.857 229.356 121.337 229.28 122.016 228.97C123.291 228.386 124.578 227.785 125.919 226.746C128.118 225.044 130.163 223.116 130.163 220.951C130.163 220.405 130.127 219.2 130.073 217.692Z" fill="white"/>
<path fill-rule="evenodd" clip-rule="evenodd" d="M130.058 203.443C128.932 202.086 127.525 201.394 125.969 201.583C124.784 200.058 121.788 199.535 118.923 199.914C115.763 200.332 113.932 200.854 111.661 202.377C110.362 203.249 108.08 205.319 107.746 207.857C107.285 211.367 108.879 215.611 108.927 215.95C109.108 217.257 109.619 219.238 109.619 219.238C109.619 219.238 109.995 216.872 109.903 214.211C109.877 213.47 110.212 212.566 111.142 211.849C111.893 212.062 112.734 212.21 113.681 212.271C123.44 212.905 127.992 207.857 127.992 207.857C129.013 207.945 129.457 209.308 129.591 210.144C129.724 210.98 129.602 212.299 129.58 213.443C129.533 215.82 130.095 217.771 130.095 217.771C130.095 217.771 130.36 216.717 130.73 213.963C130.942 212.387 133.043 207.042 130.058 203.443Z" fill="#BFBFC1"/>
<path fill-rule="evenodd" clip-rule="evenodd" d="M132.843 232.63L127.8 231.126C127.8 231.126 125.239 235 120.097 235C115.069 235 112.366 231.106 112.366 231.106L107.11 232.645C104.313 233.465 102.395 236.008 102.395 238.896V243.51H137.527V238.87C137.527 235.995 135.625 233.459 132.843 232.63Z" fill="#53535D"/>
<path opacity="0.4" fill-rule="evenodd" clip-rule="evenodd" d="M182.328 214.62C182.146 214.473 181.944 214.426 181.743 214.437C181.408 216.838 181.172 217.771 181.172 217.771C181.172 217.771 180.829 216.57 180.702 214.907C180.599 214.989 180.536 215.049 180.536 215.049V219.369C180.536 219.369 181.176 219.896 181.689 219.649C182.201 219.401 182.67 217.409 182.841 216.765C183.012 216.121 183.064 215.213 182.328 214.62Z" fill="white"/>
<path opacity="0.4" fill-rule="evenodd" clip-rule="evenodd" d="M158.988 214.62C158.252 215.213 158.305 216.121 158.475 216.765C158.646 217.408 159.116 219.401 159.628 219.649C160.034 219.845 160.516 219.557 160.7 219.428C160.7 219.354 160.701 219.284 160.701 219.209C160.712 219.137 160.743 218.927 160.78 218.616V215.049C160.78 215.049 159.724 214.026 158.988 214.62Z" fill="white"/>
<path opacity="0.7" fill-rule="evenodd" clip-rule="evenodd" d="M175.814 229.432C175.634 228.876 175.542 228.304 175.505 227.755C174.69 228.235 173.89 228.605 173.094 228.97C172.415 229.28 169.935 229.356 169.092 228.968C168.444 228.669 167.596 228.231 166.744 227.736C166.707 228.291 166.615 228.87 166.434 229.432C166.223 230.081 164.912 230.614 163.47 231.142C163.748 231.522 166.423 234.999 171.176 234.999C176.127 234.999 178.684 231.408 178.866 231.142C177.32 230.662 176.061 230.192 175.814 229.432Z" fill="white"/>
<path fill-rule="evenodd" clip-rule="evenodd" d="M181.151 217.692C181.049 217.309 180.616 215.543 180.658 213.442C180.68 212.298 180.802 210.979 180.669 210.144C180.535 209.308 180.091 207.944 179.069 207.857C179.069 207.857 174.518 212.905 164.759 212.271C163.812 212.209 162.971 212.061 162.22 211.849C161.29 212.566 160.955 213.47 160.981 214.211C161.068 216.703 160.743 218.935 160.701 219.209C160.698 219.615 160.696 220.004 160.696 220.366C160.696 222.932 162.294 224.592 164.663 226.381C165.985 227.379 167.885 228.411 169.092 228.968C169.935 229.356 172.415 229.28 173.094 228.97C174.369 228.386 175.656 227.785 176.998 226.746C179.196 225.044 181.241 223.116 181.241 220.951C181.241 220.405 181.205 219.2 181.151 217.692Z" fill="white"/>
<path fill-rule="evenodd" clip-rule="evenodd" d="M181.136 203.443C180.01 202.086 178.603 201.394 177.047 201.583C175.862 200.058 172.866 199.535 170.001 199.914C166.842 200.332 165.011 200.854 162.739 202.377C161.44 203.249 159.158 205.319 158.824 207.857C158.363 211.367 159.958 215.611 160.005 215.95C160.186 217.257 160.697 219.238 160.697 219.238C160.697 219.238 161.074 216.872 160.982 214.211C160.955 213.47 161.29 212.566 162.221 211.849C162.972 212.062 163.812 212.21 164.759 212.271C174.519 212.905 179.07 207.857 179.07 207.857C180.091 207.945 180.535 209.308 180.669 210.144C180.802 210.98 180.681 212.299 180.658 213.443C180.612 215.82 181.173 217.771 181.173 217.771C181.173 217.771 181.438 216.717 181.809 213.963C182.02 212.387 184.121 207.042 181.136 203.443Z" fill="#5D8EF9"/>
<path fill-rule="evenodd" clip-rule="evenodd" d="M181.136 203.443C180.01 202.086 178.603 201.394 177.047 201.583C175.862 200.058 172.866 199.535 170.001 199.914C166.842 200.332 165.011 200.854 162.739 202.377C161.44 203.249 159.158 205.319 158.824 207.857C158.363 211.367 159.958 215.611 160.005 215.95C160.186 217.257 160.697 219.238 160.697 219.238C160.697 219.238 161.074 216.872 160.982 214.211C160.955 213.47 161.29 212.566 162.221 211.849C162.972 212.062 163.812 212.21 164.759 212.271C174.519 212.905 179.07 207.857 179.07 207.857C180.091 207.945 180.535 209.308 180.669 210.144C180.802 210.98 180.681 212.299 180.658 213.443C180.612 215.82 181.173 217.771 181.173 217.771C181.173 217.771 181.438 216.717 181.809 213.963C182.02 212.387 184.121 207.042 181.136 203.443Z" fill="#BFBFC1"/>
<path fill-rule="evenodd" clip-rule="evenodd" d="M183.922 232.63L178.878 231.126C178.878 231.126 176.317 235 171.175 235C166.147 235 163.443 231.106 163.443 231.106L158.188 232.645C155.391 233.465 153.472 236.008 153.472 238.896V243.51H188.605V238.87C188.605 235.995 186.703 233.459 183.922 232.63Z" fill="#53535D"/>
<path opacity="0.4" fill-rule="evenodd" clip-rule="evenodd" d="M443.389 132.306C443.181 132.137 442.95 132.083 442.721 132.095C442.338 134.865 442.069 135.941 442.069 135.941C442.069 135.941 442.06 135.909 442.045 135.85C442.076 136.723 442.077 137.507 442.07 138.152C442.262 138.197 442.468 138.199 442.659 138.107C443.243 137.821 443.779 135.522 443.975 134.78C444.17 134.037 444.23 132.99 443.389 132.306Z" fill="white"/>
<path opacity="0.4" fill-rule="evenodd" clip-rule="evenodd" d="M418.691 137.633C418.691 137.633 418.108 135.348 417.901 133.839C417.867 133.594 417.6 132.952 417.287 132.097C417.098 132.107 416.911 132.166 416.74 132.306C415.899 132.99 415.96 134.037 416.154 134.779C416.35 135.522 416.886 137.821 417.471 138.107C417.931 138.331 418.481 138.003 418.694 137.853C418.695 137.767 418.695 137.682 418.696 137.599C418.708 137.516 418.743 137.276 418.786 136.916V136.915C418.732 137.369 418.691 137.633 418.691 137.633Z" fill="white"/>
<path opacity="0.7" fill-rule="evenodd" clip-rule="evenodd" d="M435.756 149.392C435.587 148.866 435.487 148.067 435.433 147.446C434.323 148.005 433.172 148.436 432.258 148.859C431.483 149.217 428.945 149.304 427.983 148.856C427.271 148.525 426.427 148.047 425.569 147.504C425.502 147.483 425.442 147.46 425.4 147.436C425.358 148.076 425.253 148.744 425.045 149.392C424.805 150.141 423.309 150.755 421.661 151.364C421.744 151.479 422.015 151.837 422.463 152.303H438.47C438.926 151.814 439.184 151.448 439.241 151.364C437.475 150.81 436.037 150.268 435.756 149.392Z" fill="white"/>
<path fill-rule="evenodd" clip-rule="evenodd" d="M442.045 135.849C441.929 135.408 441.435 133.371 441.482 130.948C441.508 129.628 441.647 128.106 441.495 127.143C441.343 126.179 440.835 124.606 439.668 124.505C439.668 124.505 434.472 130.328 423.329 129.597C422.248 129.526 421.288 129.355 420.43 129.109C419.368 129.937 418.986 130.98 419.016 131.834C419.115 134.708 418.744 137.283 418.696 137.599C418.693 138.068 418.691 138.615 418.691 139.031C418.691 141.992 420.515 143.809 423.22 145.872C424.729 147.024 426.605 148.215 427.983 148.856C428.946 149.304 431.483 149.217 432.258 148.859C433.714 148.185 435.771 147.492 437.303 146.294C439.814 144.33 442.05 142.107 442.05 139.609C442.049 138.979 442.107 137.589 442.045 135.849Z" fill="white"/>
<path fill-rule="evenodd" clip-rule="evenodd" d="M442.028 119.414C440.742 117.848 439.136 117.05 437.359 117.268C436.007 115.508 433.865 114.173 430.463 114.369C425.117 114.677 416.032 119.177 416.238 126.647C415.963 129.526 417.808 133.166 417.901 133.839C418.108 135.348 418.691 137.633 418.691 137.633C418.691 137.633 419.121 134.904 419.016 131.834C418.986 130.98 419.368 129.937 420.43 129.109C421.288 129.355 422.248 129.526 423.329 129.597C434.472 130.328 439.668 124.505 439.668 124.505C440.834 124.606 441.342 126.179 441.494 127.143C441.647 128.106 441.508 129.629 441.482 130.948C441.428 133.689 442.069 135.941 442.069 135.941C442.069 135.941 442.373 134.725 442.796 131.547C443.037 129.73 445.437 123.565 442.028 119.414Z" fill="#5B5B5B"/>
<path fill-rule="evenodd" clip-rule="evenodd" d="M453.74 171.935L451.71 159.266C451.238 156.622 449.161 154.344 446.434 153.255C446.594 153.534 446.687 153.855 446.687 154.199V172.664C446.687 173.711 445.838 174.56 444.791 174.56H415.855C414.807 174.56 413.959 173.711 413.959 172.664V154.199C413.959 153.834 414.063 153.495 414.242 153.206C411.42 154.263 409.255 156.585 408.771 159.294L406.746 171.935C406.289 174.79 408.494 177.377 411.386 177.377H449.1C451.992 177.377 454.197 174.79 453.74 171.935Z" fill="#8F0018"/>
<path fill-rule="evenodd" clip-rule="evenodd" d="M444.833 152H415.896C414.849 152 414 152.849 414 153.896V172.361C414 173.408 414.849 174.257 415.896 174.257H444.833C445.88 174.257 446.728 173.408 446.728 172.361V153.896C446.728 152.849 445.88 152 444.833 152Z" fill="#53535D"/>
<path fill-rule="evenodd" clip-rule="evenodd" d="M433.766 156.93C434.048 157.079 433.933 157.515 433.615 157.497C431.278 157.371 428.932 157.346 426.585 157.423C426.267 157.433 426.132 157.003 426.418 156.86C428.449 155.839 430.887 155.681 433.143 156.635C433.357 156.725 433.564 156.823 433.766 156.93ZM422.198 162.455C422.074 162.463 421.974 162.349 422.006 162.228C422.044 162.077 422.17 161.967 422.321 161.944C426.962 161.215 431.677 160.908 436.409 161.032C436.998 161.048 437.533 161.422 437.694 161.997C437.826 162.469 437.411 162.897 436.931 162.838C432.062 162.239 427.129 162.108 422.198 162.455ZM422.604 167.355C422.467 167.365 422.337 167.287 422.288 167.158C422.246 167.045 422.318 166.923 422.436 166.903C427.18 166.116 432.012 165.8 436.862 165.967C437.355 165.984 437.718 166.46 437.557 166.934C437.37 167.482 436.798 167.774 436.23 167.705C431.728 167.158 427.166 167.039 422.604 167.355ZM424.285 164.341C424.173 164.36 424.102 164.47 424.109 164.585C424.116 164.697 424.204 164.792 424.314 164.783C429.278 164.408 432.28 164.67 436.984 165.318C437.498 165.389 437.983 165.023 438 164.497C438.017 163.96 437.581 163.532 437.052 163.511C432.22 163.315 429.194 163.515 424.285 164.341ZM425.823 159.186C425.582 159.219 425.361 159.349 425.225 159.553C425.135 159.688 425.24 159.867 425.4 159.858C429.515 159.634 432.073 159.795 435.973 160.248C436.421 160.299 436.736 159.798 436.472 159.425C436.065 158.848 435.382 158.549 434.682 158.544C431.336 158.522 429.306 158.71 425.823 159.186ZM435.838 168.394C436.302 168.407 436.564 168.944 436.279 169.316C435.875 169.841 435.205 170.06 434.553 169.986C431.311 169.62 428.864 169.415 425.458 169.579C425.254 169.589 425.055 169.504 424.925 169.345C424.83 169.229 424.908 169.057 425.055 169.035C428.971 168.436 431.954 168.291 435.838 168.394Z" fill="white"/>
<path fill-rule="evenodd" clip-rule="evenodd" d="M445.528 174.56H415.117C414.477 174.56 413.959 175.079 413.959 175.718V176.219C413.959 176.858 414.477 177.377 415.117 177.377H445.528C446.168 177.377 446.687 176.858 446.687 176.219V175.718C446.687 175.079 446.168 174.56 445.528 174.56Z" fill="#43434E"/>
<path opacity="0.4" fill-rule="evenodd" clip-rule="evenodd" d="M507.389 132.306C507.181 132.137 506.95 132.083 506.721 132.095C506.338 134.865 506.069 135.941 506.069 135.941C506.069 135.941 506.06 135.909 506.045 135.85C506.076 136.723 506.077 137.507 506.07 138.152C506.262 138.197 506.468 138.199 506.659 138.107C507.243 137.821 507.779 135.522 507.975 134.78C508.17 134.037 508.23 132.99 507.389 132.306Z" fill="white"/>
<path opacity="0.4" fill-rule="evenodd" clip-rule="evenodd" d="M482.691 137.633C482.691 137.633 482.108 135.348 481.901 133.839C481.867 133.594 481.6 132.952 481.287 132.097C481.098 132.107 480.911 132.166 480.74 132.306C479.899 132.99 479.96 134.037 480.154 134.779C480.35 135.522 480.886 137.821 481.471 138.107C481.931 138.331 482.481 138.003 482.694 137.853C482.695 137.767 482.695 137.682 482.696 137.599C482.708 137.516 482.743 137.276 482.786 136.916V136.915C482.732 137.369 482.691 137.633 482.691 137.633Z" fill="white"/>
<path opacity="0.7" fill-rule="evenodd" clip-rule="evenodd" d="M499.756 149.392C499.587 148.866 499.487 148.067 499.433 147.446C498.323 148.005 497.172 148.436 496.258 148.859C495.483 149.217 492.945 149.304 491.983 148.856C491.271 148.525 490.427 148.047 489.569 147.504C489.502 147.483 489.442 147.46 489.4 147.436C489.358 148.076 489.253 148.744 489.045 149.392C488.805 150.141 487.309 150.755 485.661 151.364C485.744 151.479 486.015 151.837 486.463 152.303H502.47C502.926 151.814 503.184 151.448 503.241 151.364C501.475 150.81 500.037 150.268 499.756 149.392Z" fill="white"/>
<path fill-rule="evenodd" clip-rule="evenodd" d="M506.045 135.849C505.929 135.408 505.435 133.371 505.482 130.948C505.508 129.628 505.647 128.106 505.495 127.143C505.343 126.179 504.835 124.606 503.668 124.505C503.668 124.505 498.472 130.328 487.329 129.597C486.248 129.526 485.288 129.355 484.43 129.109C483.368 129.937 482.986 130.98 483.016 131.834C483.115 134.708 482.744 137.283 482.696 137.599C482.693 138.068 482.691 138.615 482.691 139.031C482.691 141.992 484.515 143.809 487.22 145.872C488.729 147.024 490.605 148.215 491.983 148.856C492.946 149.304 495.483 149.217 496.258 148.859C497.714 148.185 499.771 147.492 501.303 146.294C503.814 144.33 506.05 142.107 506.05 139.609C506.049 138.979 506.107 137.589 506.045 135.849Z" fill="white"/>
<path fill-rule="evenodd" clip-rule="evenodd" d="M506.028 119.414C504.742 117.848 503.136 117.05 501.359 117.268C500.007 115.508 497.865 114.173 494.463 114.369C489.117 114.677 480.032 119.177 480.238 126.647C479.963 129.526 481.808 133.166 481.901 133.839C482.108 135.348 482.691 137.633 482.691 137.633C482.691 137.633 483.121 134.904 483.016 131.834C482.986 130.98 483.368 129.937 484.43 129.109C485.288 129.355 486.248 129.526 487.329 129.597C498.472 130.328 503.668 124.505 503.668 124.505C504.834 124.606 505.342 126.179 505.494 127.143C505.647 128.106 505.508 129.629 505.482 130.948C505.428 133.689 506.069 135.941 506.069 135.941C506.069 135.941 506.373 134.725 506.796 131.547C507.037 129.73 509.437 123.565 506.028 119.414Z" fill="#5B5B5B"/>
<path fill-rule="evenodd" clip-rule="evenodd" d="M517.74 171.935L515.71 159.266C515.238 156.622 513.161 154.344 510.434 153.255C510.594 153.534 510.687 153.855 510.687 154.199V172.664C510.687 173.711 509.838 174.56 508.791 174.56H479.855C478.807 174.56 477.959 173.711 477.959 172.664V154.199C477.959 153.834 478.063 153.495 478.242 153.206C475.42 154.263 473.255 156.585 472.771 159.294L470.746 171.935C470.289 174.79 472.494 177.377 475.386 177.377H513.1C515.992 177.377 518.197 174.79 517.74 171.935Z" fill="#8F0018"/>
<path fill-rule="evenodd" clip-rule="evenodd" d="M508.833 152H479.896C478.849 152 478 152.849 478 153.896V172.361C478 173.408 478.849 174.257 479.896 174.257H508.833C509.88 174.257 510.728 173.408 510.728 172.361V153.896C510.728 152.849 509.88 152 508.833 152Z" fill="#53535D"/>
<path fill-rule="evenodd" clip-rule="evenodd" d="M497.766 156.93C498.048 157.079 497.933 157.515 497.615 157.497C495.278 157.371 492.932 157.346 490.585 157.423C490.267 157.433 490.132 157.003 490.418 156.86C492.449 155.839 494.887 155.681 497.143 156.635C497.357 156.725 497.564 156.823 497.766 156.93ZM486.198 162.455C486.074 162.463 485.974 162.349 486.006 162.228C486.044 162.077 486.17 161.967 486.321 161.944C490.962 161.215 495.677 160.908 500.409 161.032C500.998 161.048 501.533 161.422 501.694 161.997C501.826 162.469 501.411 162.897 500.931 162.838C496.062 162.239 491.129 162.108 486.198 162.455ZM486.604 167.355C486.467 167.365 486.337 167.287 486.288 167.158C486.246 167.045 486.318 166.923 486.436 166.903C491.18 166.116 496.012 165.8 500.862 165.967C501.355 165.984 501.718 166.46 501.557 166.934C501.37 167.482 500.798 167.774 500.23 167.705C495.728 167.158 491.166 167.039 486.604 167.355ZM488.285 164.341C488.173 164.36 488.102 164.47 488.109 164.585C488.116 164.697 488.204 164.792 488.314 164.783C493.278 164.408 496.28 164.67 500.984 165.318C501.498 165.389 501.983 165.023 502 164.497C502.017 163.96 501.581 163.532 501.052 163.511C496.22 163.315 493.194 163.515 488.285 164.341ZM489.823 159.186C489.582 159.219 489.361 159.349 489.225 159.553C489.135 159.688 489.24 159.867 489.4 159.858C493.515 159.634 496.073 159.795 499.973 160.248C500.421 160.299 500.736 159.798 500.472 159.425C500.065 158.848 499.382 158.549 498.682 158.544C495.336 158.522 493.306 158.71 489.823 159.186ZM499.838 168.394C500.302 168.407 500.564 168.944 500.279 169.316C499.875 169.841 499.205 170.06 498.553 169.986C495.311 169.62 492.864 169.415 489.458 169.579C489.254 169.589 489.055 169.504 488.925 169.345C488.83 169.229 488.908 169.057 489.055 169.035C492.971 168.436 495.954 168.291 499.838 168.394Z" fill="white"/>
<path fill-rule="evenodd" clip-rule="evenodd" d="M509.528 174.56H479.117C478.477 174.56 477.959 175.079 477.959 175.718V176.219C477.959 176.858 478.477 177.377 479.117 177.377H509.528C510.168 177.377 510.687 176.858 510.687 176.219V175.718C510.687 175.079 510.168 174.56 509.528 174.56Z" fill="#43434E"/>
<path opacity="0.4" fill-rule="evenodd" clip-rule="evenodd" d="M571.389 132.306C571.181 132.137 570.95 132.083 570.721 132.095C570.338 134.865 570.069 135.941 570.069 135.941C570.069 135.941 570.06 135.909 570.045 135.85C570.076 136.723 570.077 137.507 570.07 138.152C570.262 138.197 570.468 138.199 570.659 138.107C571.243 137.821 571.779 135.522 571.975 134.78C572.17 134.037 572.23 132.99 571.389 132.306Z" fill="white"/>
<path opacity="0.4" fill-rule="evenodd" clip-rule="evenodd" d="M546.691 137.633C546.691 137.633 546.108 135.348 545.901 133.839C545.867 133.594 545.6 132.952 545.287 132.097C545.098 132.107 544.911 132.166 544.74 132.306C543.899 132.99 543.96 134.037 544.154 134.779C544.35 135.522 544.886 137.821 545.471 138.107C545.931 138.331 546.481 138.003 546.694 137.853C546.695 137.767 546.695 137.682 546.696 137.599C546.708 137.516 546.743 137.276 546.786 136.916V136.915C546.732 137.369 546.691 137.633 546.691 137.633Z" fill="white"/>
<path opacity="0.7" fill-rule="evenodd" clip-rule="evenodd" d="M563.756 149.392C563.587 148.866 563.487 148.067 563.433 147.446C562.323 148.005 561.172 148.436 560.258 148.859C559.483 149.217 556.945 149.304 555.983 148.856C555.271 148.525 554.427 148.047 553.569 147.504C553.502 147.483 553.442 147.46 553.4 147.436C553.358 148.076 553.253 148.744 553.045 149.392C552.805 150.141 551.309 150.755 549.661 151.364C549.744 151.479 550.015 151.837 550.463 152.303H566.47C566.926 151.814 567.184 151.448 567.241 151.364C565.475 150.81 564.037 150.268 563.756 149.392Z" fill="white"/>
<path fill-rule="evenodd" clip-rule="evenodd" d="M570.045 135.849C569.929 135.408 569.435 133.371 569.482 130.948C569.508 129.628 569.647 128.106 569.495 127.143C569.343 126.179 568.835 124.606 567.668 124.505C567.668 124.505 562.472 130.328 551.329 129.597C550.248 129.526 549.288 129.355 548.43 129.109C547.368 129.937 546.986 130.98 547.016 131.834C547.115 134.708 546.744 137.283 546.696 137.599C546.693 138.068 546.691 138.615 546.691 139.031C546.691 141.992 548.515 143.809 551.22 145.872C552.729 147.024 554.605 148.215 555.983 148.856C556.946 149.304 559.483 149.217 560.258 148.859C561.714 148.185 563.771 147.492 565.303 146.294C567.814 144.33 570.05 142.107 570.05 139.609C570.049 138.979 570.107 137.589 570.045 135.849Z" fill="white"/>
<path fill-rule="evenodd" clip-rule="evenodd" d="M570.028 119.414C568.742 117.848 567.136 117.05 565.359 117.268C564.007 115.508 561.865 114.173 558.463 114.369C553.117 114.677 544.032 119.177 544.238 126.647C543.963 129.526 545.808 133.166 545.901 133.839C546.108 135.348 546.691 137.633 546.691 137.633C546.691 137.633 547.121 134.904 547.016 131.834C546.986 130.98 547.368 129.937 548.43 129.109C549.288 129.355 550.248 129.526 551.329 129.597C562.472 130.328 567.668 124.505 567.668 124.505C568.834 124.606 569.342 126.179 569.494 127.143C569.647 128.106 569.508 129.629 569.482 130.948C569.428 133.689 570.069 135.941 570.069 135.941C570.069 135.941 570.373 134.725 570.796 131.547C571.037 129.73 573.437 123.565 570.028 119.414Z" fill="#5B5B5B"/>
<path fill-rule="evenodd" clip-rule="evenodd" d="M581.74 171.935L579.71 159.266C579.238 156.622 577.161 154.344 574.434 153.255C574.594 153.534 574.687 153.855 574.687 154.199V172.664C574.687 173.711 573.838 174.56 572.791 174.56H543.855C542.807 174.56 541.959 173.711 541.959 172.664V154.199C541.959 153.834 542.063 153.495 542.242 153.206C539.42 154.263 537.255 156.585 536.771 159.294L534.746 171.935C534.289 174.79 536.494 177.377 539.386 177.377H577.1C579.992 177.377 582.197 174.79 581.74 171.935Z" fill="#8F0018"/>
<path fill-rule="evenodd" clip-rule="evenodd" d="M572.833 152H543.896C542.849 152 542 152.849 542 153.896V172.361C542 173.408 542.849 174.257 543.896 174.257H572.833C573.88 174.257 574.728 173.408 574.728 172.361V153.896C574.728 152.849 573.88 152 572.833 152Z" fill="#53535D"/>
<path fill-rule="evenodd" clip-rule="evenodd" d="M561.766 156.93C562.048 157.079 561.933 157.515 561.615 157.497C559.278 157.371 556.932 157.346 554.585 157.423C554.267 157.433 554.132 157.003 554.418 156.86C556.449 155.839 558.887 155.681 561.143 156.635C561.357 156.725 561.564 156.823 561.766 156.93ZM550.198 162.455C550.074 162.463 549.974 162.349 550.006 162.228C550.044 162.077 550.17 161.967 550.321 161.944C554.962 161.215 559.677 160.908 564.409 161.032C564.998 161.048 565.533 161.422 565.694 161.997C565.826 162.469 565.411 162.897 564.931 162.838C560.062 162.239 555.129 162.108 550.198 162.455ZM550.604 167.355C550.467 167.365 550.337 167.287 550.288 167.158C550.246 167.045 550.318 166.923 550.436 166.903C555.18 166.116 560.012 165.8 564.862 165.967C565.355 165.984 565.718 166.46 565.557 166.934C565.37 167.482 564.798 167.774 564.23 167.705C559.728 167.158 555.166 167.039 550.604 167.355ZM552.285 164.341C552.173 164.36 552.102 164.47 552.109 164.585C552.116 164.697 552.204 164.792 552.314 164.783C557.278 164.408 560.28 164.67 564.984 165.318C565.498 165.389 565.983 165.023 566 164.497C566.017 163.96 565.581 163.532 565.052 163.511C560.22 163.315 557.194 163.515 552.285 164.341ZM553.823 159.186C553.582 159.219 553.361 159.349 553.225 159.553C553.135 159.688 553.24 159.867 553.4 159.858C557.515 159.634 560.073 159.795 563.973 160.248C564.421 160.299 564.736 159.798 564.472 159.425C564.065 158.848 563.382 158.549 562.682 158.544C559.336 158.522 557.306 158.71 553.823 159.186ZM563.838 168.394C564.302 168.407 564.564 168.944 564.279 169.316C563.875 169.841 563.205 170.06 562.553 169.986C559.311 169.62 556.864 169.415 553.458 169.579C553.254 169.589 553.055 169.504 552.925 169.345C552.83 169.229 552.908 169.057 553.055 169.035C556.971 168.436 559.954 168.291 563.838 168.394Z" fill="white"/>
<path fill-rule="evenodd" clip-rule="evenodd" d="M573.528 174.56H543.117C542.477 174.56 541.959 175.079 541.959 175.718V176.219C541.959 176.858 542.477 177.377 543.117 177.377H573.528C574.168 177.377 574.687 176.858 574.687 176.219V175.718C574.687 175.079 574.168 174.56 573.528 174.56Z" fill="#43434E"/>
<path fill-rule="evenodd" clip-rule="evenodd" d="M338.86 77.651C338.86 76.3416 339.018 75.0698 339.309 73.8494L338.295 73.5439C338.295 73.5439 334.932 78.6847 328.179 78.6847C321.575 78.6847 318.024 73.5184 318.024 73.5184L311.122 75.5604C307.449 76.6482 304.929 80.0224 304.929 83.8537V93.2737H350.373C343.705 91.2114 338.86 84.9973 338.86 77.651Z" fill="#8F0018"/>
<path opacity="0.4" fill-rule="evenodd" clip-rule="evenodd" d="M342.827 51.6432C341.86 50.8557 340.473 52.213 340.473 52.213V57.9451C340.473 57.9451 341.314 58.6435 341.987 58.3153C342.659 57.9867 343.275 55.3428 343.5 54.4883C343.725 53.6353 343.794 52.4302 342.827 51.6432Z" fill="white"/>
<path opacity="0.4" fill-rule="evenodd" clip-rule="evenodd" d="M312.172 51.6431C311.205 52.4301 311.275 53.6348 311.499 54.4886C311.723 55.3431 312.34 57.987 313.013 58.3156C313.685 58.6438 314.526 57.9454 314.526 57.9454V52.2133C314.526 52.2133 313.139 50.856 312.172 51.6431Z" fill="white"/>
<path opacity="0.7" fill-rule="evenodd" clip-rule="evenodd" d="M334.272 71.2972C334.035 70.56 333.914 69.8008 333.865 69.0718C332.794 69.7082 331.743 70.2008 330.699 70.6839C329.807 71.0961 326.55 71.1953 325.442 70.6804C324.591 70.2839 323.477 69.7031 322.359 69.0463C322.311 69.7827 322.19 70.5518 321.951 71.2969C321.675 72.1576 319.953 72.8647 318.058 73.5651C318.424 74.0706 321.937 78.6843 328.179 78.6843C334.682 78.6843 338.04 73.9192 338.28 73.5651C336.25 72.9286 334.595 72.3059 334.272 71.2972Z" fill="white"/>
<path fill-rule="evenodd" clip-rule="evenodd" d="M341.281 55.7192C341.147 55.2118 340.578 52.8682 340.633 50.0808C340.663 48.5631 340.823 46.8125 340.647 45.7043C340.472 44.5953 339.888 42.7863 338.547 42.6698C338.547 42.6698 332.569 49.3682 319.751 48.5267C318.508 48.4447 317.404 48.2482 316.417 47.9659C315.196 48.9184 314.756 50.1176 314.79 51.1004C314.904 54.4067 314.477 57.3686 314.422 57.7318C314.419 58.2714 314.416 58.7874 314.416 59.2674C314.416 62.6729 316.514 64.8753 319.627 67.2486C321.362 68.5729 323.858 69.9431 325.443 70.6808C326.551 71.1957 329.808 71.0965 330.7 70.6843C332.374 69.909 334.064 69.1122 335.826 67.7333C338.714 65.4753 341.399 62.9176 341.399 60.0447C341.398 59.3192 341.352 57.7196 341.281 55.7192Z" fill="white"/>
<path fill-rule="evenodd" clip-rule="evenodd" d="M341.261 36.8133C339.782 35.0121 337.934 34.0949 335.891 34.3451C334.335 32.3207 331.871 30.7851 327.958 31.0098C321.808 31.3639 321.739 34.5917 317.035 36.0031C312.331 37.4153 310.437 33.6996 308.549 34.9776C306.661 36.2537 307.774 41.107 311.596 45.1337C311.279 48.4451 313.402 52.6317 313.508 53.4066C313.746 55.1423 314.416 57.7698 314.416 57.7698C314.416 57.7698 314.912 54.6309 314.791 51.1C314.756 50.1172 315.196 48.918 316.418 47.9655C317.404 48.2478 318.508 48.4443 319.752 48.5262C332.57 49.3678 338.547 42.6694 338.547 42.6694C339.888 42.7858 340.473 44.5949 340.647 45.7039C340.823 46.8121 340.663 48.5627 340.633 50.0804C340.572 53.2345 341.309 55.8239 341.309 55.8239C341.309 55.8239 341.659 54.4247 342.145 50.7698C342.422 48.6804 345.182 41.5882 341.261 36.8133Z" fill="#5B5B5B"/>
<path d="M364.945 49.8502V45.7018L368.867 38.5768H366.312L363.836 43.2955H363.695L361.211 38.5768H358.656L362.586 45.7018V49.8502H364.945ZM372.867 50.0377C375.516 50.0377 377.109 48.358 377.109 45.5377C377.109 42.7408 375.492 41.0455 372.867 41.0455C370.242 41.0455 368.625 42.7487 368.625 45.5377C368.625 48.358 370.219 50.0377 372.867 50.0377ZM372.867 48.1783C371.648 48.1783 370.961 47.2174 370.961 45.5377C370.961 43.8815 371.656 42.9049 372.867 42.9049C374.07 42.9049 374.773 43.8815 374.773 45.5377C374.773 47.2096 374.078 48.1783 372.867 48.1783ZM386.766 41.233H384.492V46.2018C384.492 47.3502 383.883 48.0612 382.75 48.0612C381.703 48.0612 381.164 47.4518 381.164 46.2643V41.233H378.891V46.8502C378.891 48.8502 380.047 50.0377 381.906 50.0377C383.211 50.0377 384.016 49.4674 384.422 48.4674H384.562V49.8502H386.766V41.233Z" fill="white"/>
<path fill-rule="evenodd" clip-rule="evenodd" d="M355.21 61.3008C346.18 61.3008 338.86 68.6204 338.86 77.6506C338.86 86.6812 346.18 94.0012 355.21 94.0012C364.241 94.0012 371.562 86.6812 371.562 77.6506C371.562 68.6204 364.241 61.3008 355.21 61.3008Z" fill="#CD0023"/>
<path fill-rule="evenodd" clip-rule="evenodd" d="M355.21 65.3781C348.432 65.3781 342.937 70.8726 342.937 77.651C342.937 84.4294 348.432 89.9251 355.21 89.9251C361.989 89.9251 367.484 84.4294 367.484 77.651C367.484 70.8726 361.989 65.3781 355.21 65.3781Z" fill="#F30830"/>
<path fill-rule="evenodd" clip-rule="evenodd" d="M358.766 70.9299C359.048 71.079 358.933 71.5146 358.615 71.4971C356.278 71.3713 353.932 71.346 351.585 71.4228C351.267 71.4333 351.132 71.003 351.418 70.8599C353.449 69.8391 355.887 69.6811 358.143 70.6348C358.357 70.7251 358.564 70.8234 358.766 70.9299ZM347.198 76.4547C347.074 76.4633 346.974 76.3494 347.006 76.2276C347.044 76.0773 347.17 75.9672 347.321 75.9438C351.962 75.2149 356.677 74.9079 361.409 75.0325C361.998 75.0481 362.533 75.4221 362.694 75.9968C362.826 76.4691 362.411 76.8972 361.931 76.8377C357.062 76.2387 352.129 76.1076 347.198 76.4547ZM347.604 81.3549C347.467 81.3649 347.337 81.2873 347.288 81.1579C347.246 81.045 347.318 80.9233 347.436 80.9034C352.18 80.1161 357.012 79.8002 361.862 79.9667C362.355 79.9839 362.718 80.4604 362.557 80.9336C362.37 81.482 361.798 81.7735 361.23 81.7046C356.728 81.1579 352.166 81.0385 347.604 81.3549ZM349.285 78.341C349.173 78.36 349.102 78.4698 349.109 78.5852C349.116 78.6972 349.204 78.7919 349.314 78.7832C354.278 78.4076 357.28 78.6704 361.984 79.318C362.498 79.3886 362.983 79.0228 363 78.4969C363.017 77.9598 362.581 77.5324 362.052 77.5107C357.22 77.3151 354.194 77.5147 349.285 78.341ZM350.823 73.1864C350.582 73.2192 350.361 73.3488 350.225 73.5529C350.135 73.6878 350.24 73.8667 350.4 73.858C354.515 73.6344 357.073 73.7955 360.973 74.2475C361.421 74.2992 361.736 73.7975 361.472 73.425C361.065 72.8477 360.382 72.5487 359.682 72.5443C356.336 72.5223 354.306 72.7103 350.823 73.1864ZM360.838 82.3941C361.302 82.4068 361.564 82.9444 361.279 83.3157C360.875 83.841 360.205 84.06 359.553 83.986C356.311 83.62 353.864 83.4149 350.458 83.5795C350.254 83.5887 350.055 83.5043 349.925 83.3446C349.83 83.229 349.908 83.0567 350.055 83.035C353.971 82.4365 356.954 82.2913 360.838 82.3941Z" fill="white"/>
</svg>
