<svg width="496" height="304" viewBox="0 0 496 304" fill="none" xmlns="http://www.w3.org/2000/svg">
<rect opacity="0.04" width="496" height="304" rx="10" fill="white"/>
<path fill-rule="evenodd" clip-rule="evenodd" d="M258.86 106.651C258.86 105.342 259.018 104.07 259.309 102.849L258.295 102.544C258.295 102.544 254.932 107.685 248.179 107.685C241.575 107.685 238.024 102.518 238.024 102.518L231.122 104.56C227.449 105.648 224.929 109.022 224.929 112.854V122.274H270.373C263.705 120.211 258.86 113.997 258.86 106.651Z" fill="#8F0018"/>
<path opacity="0.4" fill-rule="evenodd" clip-rule="evenodd" d="M262.827 80.6432C261.86 79.8557 260.473 81.213 260.473 81.213V86.9451C260.473 86.9451 261.314 87.6435 261.987 87.3153C262.659 86.9867 263.275 84.3428 263.5 83.4883C263.725 82.6353 263.794 81.4302 262.827 80.6432Z" fill="white"/>
<path opacity="0.4" fill-rule="evenodd" clip-rule="evenodd" d="M232.172 80.6431C231.205 81.4301 231.275 82.6348 231.499 83.4886C231.723 84.3431 232.34 86.987 233.013 87.3156C233.685 87.6438 234.526 86.9454 234.526 86.9454V81.2133C234.526 81.2133 233.139 79.856 232.172 80.6431Z" fill="white"/>
<path opacity="0.7" fill-rule="evenodd" clip-rule="evenodd" d="M254.272 100.297C254.035 99.56 253.915 98.8008 253.865 98.0718C252.795 98.7082 251.744 99.2008 250.699 99.6839C249.807 100.096 246.55 100.195 245.442 99.6804C244.591 99.2839 243.477 98.7031 242.359 98.0463C242.311 98.7827 242.19 99.5518 241.951 100.297C241.675 101.158 239.953 101.865 238.058 102.565C238.424 103.071 241.937 107.684 248.179 107.684C254.682 107.684 258.04 102.919 258.28 102.565C256.25 101.929 254.595 101.306 254.272 100.297Z" fill="white"/>
<path fill-rule="evenodd" clip-rule="evenodd" d="M261.281 84.7192C261.147 84.2118 260.578 81.8682 260.633 79.0808C260.663 77.5631 260.823 75.8125 260.647 74.7043C260.473 73.5953 259.888 71.7863 258.547 71.6698C258.547 71.6698 252.569 78.3682 239.751 77.5267C238.508 77.4447 237.404 77.2482 236.417 76.9659C235.196 77.9184 234.756 79.1176 234.79 80.1004C234.904 83.4067 234.477 86.3686 234.422 86.7318C234.419 87.2714 234.416 87.7874 234.416 88.2674C234.416 91.6729 236.514 93.8753 239.627 96.2486C241.362 97.5729 243.858 98.9431 245.443 99.6808C246.551 100.196 249.808 100.096 250.7 99.6843C252.374 98.909 254.064 98.1122 255.826 96.7333C258.714 94.4753 261.399 91.9176 261.399 89.0447C261.398 88.3192 261.352 86.7196 261.281 84.7192Z" fill="white"/>
<path fill-rule="evenodd" clip-rule="evenodd" d="M261.261 65.8133C259.782 64.0121 257.934 63.0949 255.891 63.3451C254.335 61.3207 251.871 59.7851 247.958 60.0098C241.808 60.3639 241.739 63.5917 237.035 65.0031C232.331 66.4153 230.437 62.6996 228.549 63.9776C226.661 65.2537 227.775 70.107 231.596 74.1337C231.279 77.4451 233.402 81.6317 233.508 82.4066C233.746 84.1423 234.416 86.7698 234.416 86.7698C234.416 86.7698 234.912 83.6309 234.791 80.1C234.756 79.1172 235.196 77.918 236.418 76.9655C237.404 77.2478 238.508 77.4443 239.752 77.5262C252.57 78.3678 258.547 71.6694 258.547 71.6694C259.888 71.7858 260.473 73.5949 260.647 74.7039C260.823 75.8121 260.663 77.5627 260.633 79.0804C260.572 82.2345 261.309 84.8239 261.309 84.8239C261.309 84.8239 261.659 83.4247 262.145 79.7698C262.422 77.6804 265.182 70.5882 261.261 65.8133Z" fill="#5B5B5B"/>
<path d="M284.945 78.8502V74.7018L288.867 67.5768H286.312L283.836 72.2955H283.695L281.211 67.5768H278.656L282.586 74.7018V78.8502H284.945ZM292.867 79.0377C295.516 79.0377 297.109 77.358 297.109 74.5377C297.109 71.7408 295.492 70.0455 292.867 70.0455C290.242 70.0455 288.625 71.7487 288.625 74.5377C288.625 77.358 290.219 79.0377 292.867 79.0377ZM292.867 77.1783C291.648 77.1783 290.961 76.2174 290.961 74.5377C290.961 72.8815 291.656 71.9049 292.867 71.9049C294.07 71.9049 294.773 72.8815 294.773 74.5377C294.773 76.2096 294.078 77.1783 292.867 77.1783ZM306.766 70.233H304.492V75.2018C304.492 76.3502 303.883 77.0612 302.75 77.0612C301.703 77.0612 301.164 76.4518 301.164 75.2643V70.233H298.891V75.8502C298.891 77.8502 300.047 79.0377 301.906 79.0377C303.211 79.0377 304.016 78.4674 304.422 77.4674H304.562V78.8502H306.766V70.233Z" fill="white"/>
<path fill-rule="evenodd" clip-rule="evenodd" d="M275.21 90.3008C266.18 90.3008 258.86 97.6204 258.86 106.651C258.86 115.681 266.18 123.001 275.21 123.001C284.241 123.001 291.562 115.681 291.562 106.651C291.562 97.6204 284.241 90.3008 275.21 90.3008Z" fill="#CD0023"/>
<path fill-rule="evenodd" clip-rule="evenodd" d="M275.21 94.3781C268.432 94.3781 262.937 99.8726 262.937 106.651C262.937 113.429 268.432 118.925 275.21 118.925C281.989 118.925 287.483 113.429 287.483 106.651C287.484 99.8726 281.989 94.3781 275.21 94.3781Z" fill="#F30830"/>
<path fill-rule="evenodd" clip-rule="evenodd" d="M278.766 99.9299C279.048 100.079 278.933 100.515 278.615 100.497C276.278 100.371 273.932 100.346 271.585 100.423C271.267 100.433 271.132 100.003 271.418 99.8599C273.449 98.8391 275.887 98.6811 278.143 99.6348C278.357 99.7251 278.564 99.8234 278.766 99.9299ZM267.198 105.455C267.074 105.463 266.974 105.349 267.006 105.228C267.044 105.077 267.17 104.967 267.321 104.944C271.962 104.215 276.677 103.908 281.409 104.032C281.998 104.048 282.533 104.422 282.694 104.997C282.826 105.469 282.411 105.897 281.931 105.838C277.062 105.239 272.129 105.108 267.198 105.455ZM267.604 110.355C267.467 110.365 267.337 110.287 267.288 110.158C267.246 110.045 267.318 109.923 267.436 109.903C272.18 109.116 277.012 108.8 281.862 108.967C282.355 108.984 282.718 109.46 282.557 109.934C282.37 110.482 281.798 110.774 281.23 110.705C276.728 110.158 272.166 110.039 267.604 110.355ZM269.285 107.341C269.173 107.36 269.102 107.47 269.109 107.585C269.116 107.697 269.204 107.792 269.314 107.783C274.278 107.408 277.28 107.67 281.984 108.318C282.498 108.389 282.983 108.023 283 107.497C283.017 106.96 282.581 106.532 282.052 106.511C277.22 106.315 274.194 106.515 269.285 107.341ZM270.823 102.186C270.582 102.219 270.361 102.349 270.225 102.553C270.135 102.688 270.24 102.867 270.4 102.858C274.515 102.634 277.073 102.795 280.973 103.248C281.421 103.299 281.736 102.798 281.472 102.425C281.065 101.848 280.382 101.549 279.682 101.544C276.336 101.522 274.306 101.71 270.823 102.186ZM280.838 111.394C281.302 111.407 281.564 111.944 281.279 112.316C280.875 112.841 280.205 113.06 279.553 112.986C276.311 112.62 273.864 112.415 270.458 112.579C270.254 112.589 270.055 112.504 269.925 112.345C269.83 112.229 269.908 112.057 270.055 112.035C273.971 111.436 276.954 111.291 280.838 111.394Z" fill="white"/>
<path d="M219.867 202.289C222.453 202.289 224.18 200.656 224.18 198.266C224.18 196.055 222.664 194.484 220.523 194.484C219.406 194.484 218.609 194.898 218.133 195.586H217.992L218.242 192.688H223.5V190.727H216.414L215.852 197.266H217.961C218.352 196.633 219.016 196.25 219.891 196.25C221.086 196.25 221.93 197.078 221.93 198.32C221.93 199.547 221.094 200.359 219.883 200.359C218.812 200.359 217.984 199.734 217.852 198.797H215.672C215.742 200.812 217.414 202.289 219.867 202.289ZM235.375 202.289C238.094 202.289 240.078 200.609 240.273 198.172H237.977C237.75 199.414 236.734 200.211 235.383 200.211C233.602 200.211 232.5 198.734 232.5 196.359C232.5 193.984 233.602 192.516 235.375 192.516C236.719 192.516 237.742 193.367 237.969 194.664H240.266C240.094 192.211 238.047 190.438 235.375 190.438C232.102 190.438 230.086 192.695 230.086 196.359C230.086 200.031 232.109 202.289 235.375 202.289ZM242.297 202H244.57V190.094H242.297V202ZM246.953 202H249.227V193.383H246.953V202ZM248.094 192.18C248.906 192.18 249.438 191.703 249.438 191.031C249.438 190.352 248.906 189.883 248.094 189.883C247.273 189.883 246.75 190.352 246.75 191.031C246.75 191.703 247.273 192.18 248.094 192.18ZM255.258 194.938C256.32 194.938 257.008 195.648 257.055 196.789H253.383C253.461 195.672 254.203 194.938 255.258 194.938ZM257.102 199.547C256.859 200.117 256.242 200.438 255.344 200.438C254.156 200.438 253.406 199.641 253.375 198.359V198.242H259.289V197.547C259.289 194.812 257.789 193.195 255.25 193.195C252.688 193.195 251.109 194.93 251.109 197.734C251.109 200.531 252.656 202.188 255.281 202.188C257.391 202.188 258.875 201.172 259.219 199.547H257.102ZM261.156 202H263.43V197.031C263.43 195.898 264.078 195.156 265.133 195.156C266.211 195.156 266.719 195.781 266.719 196.969V202H268.992V196.43C268.992 194.367 267.961 193.195 266.047 193.195C264.773 193.195 263.898 193.797 263.5 194.766H263.359V193.383H261.156V202ZM271.852 191.336V193.469H270.508V195.258H271.852V199.672C271.852 201.352 272.68 202.031 274.773 202.031C275.211 202.031 275.633 201.984 275.914 201.93V200.195C275.695 200.219 275.539 200.227 275.242 200.227C274.469 200.227 274.125 199.883 274.125 199.133V195.258H275.914V193.469H274.125V191.336H271.852ZM277.539 195.914C277.539 197.242 278.352 198.039 280.023 198.406L281.586 198.758C282.344 198.922 282.672 199.18 282.672 199.602C282.672 200.156 282.062 200.523 281.18 200.523C280.273 200.523 279.719 200.188 279.547 199.602H277.328C277.484 201.258 278.859 202.188 281.133 202.188C283.391 202.188 284.93 201.062 284.93 199.344C284.93 198.055 284.18 197.352 282.508 196.984L280.891 196.633C280.094 196.453 279.727 196.195 279.727 195.773C279.727 195.227 280.328 194.859 281.141 194.859C281.984 194.859 282.508 195.203 282.625 195.758H284.727C284.602 194.109 283.312 193.195 281.125 193.195C278.977 193.195 277.539 194.281 277.539 195.914Z" fill="white"/>
<path fill-rule="evenodd" clip-rule="evenodd" d="M273.387 142.874C272.327 142.658 271.291 143.343 271.075 144.404L270.168 148.86L261.104 136.085C260.743 135.576 260.158 135.273 259.534 135.273C257.974 135.273 257.061 137.031 257.958 138.307L266.897 151.024L262.442 150.117C261.38 149.9 260.345 150.586 260.129 151.647C259.913 152.708 260.598 153.744 261.659 153.959L270.754 155.81C270.886 155.837 271.018 155.85 271.147 155.85C272.06 155.85 272.878 155.209 273.067 154.28L274.918 145.185C275.134 144.125 274.449 143.089 273.387 142.874Z" fill="white"/>
<path opacity="0.4" fill-rule="evenodd" clip-rule="evenodd" d="M260.417 233.438C259.806 232.939 258.994 233.471 258.638 233.756C258.755 235.32 259.046 236.512 259.13 236.831C259.16 237.67 259.184 238.424 259.202 239.043C259.372 239.076 259.55 239.075 259.718 238.993C260.278 238.72 260.79 236.518 260.978 235.807C261.165 235.096 261.222 234.093 260.417 233.438Z" fill="white"/>
<path opacity="0.4" fill-rule="evenodd" clip-rule="evenodd" d="M234.894 233.438C234.089 234.093 234.147 235.096 234.333 235.807C234.52 236.518 235.034 238.719 235.594 238.993C236.154 239.266 236.854 238.684 236.854 238.684V233.912C236.854 233.912 235.699 232.781 234.894 233.438Z" fill="white"/>
<path opacity="0.7" fill-rule="evenodd" clip-rule="evenodd" d="M253.295 249.801C253.098 249.187 252.997 248.555 252.956 247.948C252.065 248.479 251.19 248.888 250.32 249.291C249.577 249.634 246.866 249.717 245.944 249.288C245.235 248.958 244.307 248.474 243.376 247.927C243.336 248.541 243.235 249.18 243.036 249.801C242.807 250.518 241.373 251.107 239.795 251.69C240.1 252.11 243.025 255.951 248.222 255.951C253.636 255.951 256.432 251.984 256.632 251.69C254.942 251.16 253.564 250.641 253.295 249.801Z" fill="white"/>
<path fill-rule="evenodd" clip-rule="evenodd" d="M259.13 236.831C259.018 236.409 258.545 234.457 258.591 232.136C258.615 230.872 258.748 229.415 258.602 228.492C258.457 227.569 257.971 226.062 256.854 225.966C256.854 225.966 251.877 231.543 241.205 230.842C240.169 230.774 239.25 230.611 238.429 230.376C237.411 231.169 237.046 232.167 237.074 232.985C237.169 235.738 236.813 238.204 236.767 238.507C236.764 238.956 236.762 239.385 236.762 239.785C236.762 242.621 238.509 244.454 241.1 246.43C242.546 247.533 244.624 248.674 245.943 249.288C246.866 249.717 249.577 249.634 250.32 249.291C251.714 248.645 253.121 247.982 254.588 246.833C256.993 244.953 259.228 242.823 259.228 240.432C259.228 239.829 259.189 238.497 259.13 236.831Z" fill="white"/>
<path fill-rule="evenodd" clip-rule="evenodd" d="M259.113 221.089C257.882 219.59 256.344 218.826 254.642 219.035C253.347 217.349 250.071 216.772 246.938 217.191C243.482 217.653 241.48 218.229 238.997 219.912C237.576 220.875 235.08 223.162 234.715 225.965C234.211 229.843 235.955 234.532 236.006 234.906C236.205 236.351 236.763 238.539 236.763 238.539C236.763 238.539 237.175 235.925 237.074 232.986C237.046 232.167 237.412 231.169 238.429 230.376C239.25 230.611 240.17 230.775 241.205 230.843C251.877 231.543 256.854 225.966 256.854 225.966C257.971 226.063 258.457 227.569 258.603 228.493C258.749 229.416 258.616 230.873 258.591 232.137C258.54 234.763 259.154 236.919 259.154 236.919C259.154 236.919 259.444 235.754 259.849 232.711C260.08 230.971 262.378 225.065 259.113 221.089Z" fill="#BFBFC1"/>
<path fill-rule="evenodd" clip-rule="evenodd" d="M262.16 253.334L256.644 251.672C256.644 251.672 253.844 255.952 248.222 255.952C242.723 255.952 239.767 251.651 239.767 251.651L234.02 253.351C230.962 254.257 228.863 257.066 228.863 260.256V265.354H267.282V260.227C267.282 257.051 265.201 254.25 262.16 253.334Z" fill="#53535D"/>
<path opacity="0.4" fill-rule="evenodd" clip-rule="evenodd" d="M204.417 233.438C203.806 232.939 202.994 233.471 202.638 233.756C202.755 235.32 203.046 236.512 203.13 236.831C203.16 237.67 203.184 238.424 203.202 239.043C203.372 239.076 203.55 239.075 203.718 238.993C204.278 238.72 204.79 236.518 204.978 235.807C205.165 235.096 205.222 234.093 204.417 233.438Z" fill="white"/>
<path opacity="0.4" fill-rule="evenodd" clip-rule="evenodd" d="M178.894 233.438C178.089 234.093 178.147 235.096 178.333 235.807C178.52 236.518 179.034 238.719 179.594 238.993C180.154 239.266 180.854 238.684 180.854 238.684V233.912C180.854 233.912 179.699 232.781 178.894 233.438Z" fill="white"/>
<path opacity="0.7" fill-rule="evenodd" clip-rule="evenodd" d="M197.295 249.801C197.098 249.187 196.997 248.555 196.956 247.948C196.065 248.479 195.19 248.888 194.32 249.291C193.577 249.634 190.866 249.717 189.944 249.288C189.235 248.958 188.307 248.474 187.376 247.927C187.336 248.541 187.235 249.18 187.036 249.801C186.807 250.518 185.373 251.107 183.795 251.69C184.1 252.11 187.025 255.951 192.222 255.951C197.636 255.951 200.432 251.984 200.632 251.69C198.942 251.16 197.564 250.641 197.295 249.801Z" fill="white"/>
<path fill-rule="evenodd" clip-rule="evenodd" d="M203.13 236.831C203.018 236.409 202.545 234.457 202.591 232.136C202.615 230.872 202.748 229.415 202.602 228.492C202.457 227.569 201.971 226.062 200.854 225.966C200.854 225.966 195.877 231.543 185.205 230.842C184.169 230.774 183.25 230.611 182.429 230.376C181.411 231.169 181.046 232.167 181.074 232.985C181.169 235.738 180.813 238.204 180.767 238.507C180.764 238.956 180.762 239.385 180.762 239.785C180.762 242.621 182.509 244.454 185.1 246.43C186.546 247.533 188.624 248.674 189.943 249.288C190.866 249.717 193.577 249.634 194.32 249.291C195.714 248.645 197.121 247.982 198.588 246.833C200.993 244.953 203.228 242.823 203.228 240.432C203.228 239.829 203.189 238.497 203.13 236.831Z" fill="white"/>
<path fill-rule="evenodd" clip-rule="evenodd" d="M203.113 221.089C201.882 219.59 200.344 218.826 198.642 219.035C197.347 217.349 194.071 216.772 190.938 217.191C187.482 217.653 185.48 218.229 182.997 219.912C181.576 220.875 179.08 223.162 178.715 225.965C178.211 229.843 179.955 234.532 180.006 234.906C180.205 236.351 180.763 238.539 180.763 238.539C180.763 238.539 181.175 235.925 181.074 232.986C181.046 232.167 181.412 231.169 182.429 230.376C183.25 230.611 184.17 230.775 185.205 230.843C195.877 231.543 200.854 225.966 200.854 225.966C201.971 226.063 202.457 227.569 202.603 228.493C202.749 229.416 202.616 230.873 202.591 232.137C202.54 234.763 203.154 236.919 203.154 236.919C203.154 236.919 203.444 235.754 203.849 232.711C204.08 230.971 206.378 225.065 203.113 221.089Z" fill="#BFBFC1"/>
<path fill-rule="evenodd" clip-rule="evenodd" d="M206.16 253.334L200.644 251.672C200.644 251.672 197.844 255.952 192.222 255.952C186.723 255.952 183.767 251.651 183.767 251.651L178.02 253.351C174.962 254.257 172.863 257.066 172.863 260.256V265.354H211.282V260.227C211.282 257.051 209.201 254.25 206.16 253.334Z" fill="#53535D"/>
<path opacity="0.4" fill-rule="evenodd" clip-rule="evenodd" d="M148.417 233.438C147.805 232.939 146.994 233.471 146.638 233.756C146.755 235.32 147.045 236.512 147.13 236.831C147.16 237.67 147.184 238.424 147.202 239.043C147.372 239.076 147.55 239.075 147.718 238.993C148.278 238.72 148.79 236.518 148.978 235.807C149.165 235.096 149.222 234.093 148.417 233.438Z" fill="white"/>
<path opacity="0.4" fill-rule="evenodd" clip-rule="evenodd" d="M122.894 233.438C122.089 234.093 122.147 235.096 122.333 235.807C122.52 236.518 123.034 238.719 123.594 238.993C124.154 239.266 124.854 238.684 124.854 238.684V233.912C124.854 233.912 123.699 232.781 122.894 233.438Z" fill="white"/>
<path opacity="0.7" fill-rule="evenodd" clip-rule="evenodd" d="M141.295 249.801C141.098 249.187 140.997 248.555 140.956 247.948C140.065 248.479 139.19 248.888 138.32 249.291C137.577 249.634 134.866 249.717 133.944 249.288C133.235 248.958 132.307 248.474 131.376 247.927C131.336 248.541 131.235 249.18 131.036 249.801C130.807 250.518 129.373 251.107 127.795 251.69C128.1 252.11 131.025 255.951 136.222 255.951C141.636 255.951 144.432 251.984 144.632 251.69C142.942 251.16 141.564 250.641 141.295 249.801Z" fill="white"/>
<path fill-rule="evenodd" clip-rule="evenodd" d="M147.13 236.831C147.018 236.409 146.545 234.457 146.591 232.136C146.615 230.872 146.748 229.415 146.602 228.492C146.456 227.569 145.971 226.062 144.854 225.966C144.854 225.966 139.877 231.543 129.205 230.842C128.169 230.774 127.25 230.611 126.429 230.376C125.411 231.169 125.045 232.167 125.074 232.985C125.169 235.738 124.813 238.204 124.767 238.507C124.764 238.956 124.762 239.385 124.762 239.785C124.762 242.621 126.509 244.454 129.1 246.43C130.545 247.533 132.624 248.674 133.943 249.288C134.865 249.717 137.577 249.634 138.32 249.291C139.714 248.645 141.121 247.982 142.588 246.833C144.993 244.953 147.228 242.823 147.228 240.432C147.228 239.829 147.189 238.497 147.13 236.831Z" fill="white"/>
<path fill-rule="evenodd" clip-rule="evenodd" d="M147.113 221.089C145.882 219.59 144.344 218.826 142.642 219.035C141.347 217.349 138.071 216.772 134.938 217.191C131.482 217.653 129.48 218.229 126.996 219.912C125.576 220.875 123.08 223.162 122.715 225.965C122.211 229.843 123.954 234.532 124.006 234.906C124.205 236.351 124.763 238.539 124.763 238.539C124.763 238.539 125.175 235.925 125.074 232.986C125.045 232.167 125.412 231.169 126.429 230.376C127.25 230.611 128.17 230.775 129.205 230.843C139.877 231.543 144.854 225.966 144.854 225.966C145.971 226.063 146.457 227.569 146.603 228.493C146.749 229.416 146.616 230.873 146.591 232.137C146.54 234.763 147.154 236.919 147.154 236.919C147.154 236.919 147.444 235.754 147.849 232.711C148.08 230.971 150.378 225.065 147.113 221.089Z" fill="#BFBFC1"/>
<path fill-rule="evenodd" clip-rule="evenodd" d="M150.16 253.334L144.644 251.672C144.644 251.672 141.844 255.952 136.222 255.952C130.723 255.952 127.767 251.651 127.767 251.651L122.02 253.351C118.962 254.257 116.863 257.066 116.863 260.256V265.354H155.282V260.227C155.282 257.051 153.201 254.25 150.16 253.334Z" fill="#53535D"/>
<path opacity="0.4" fill-rule="evenodd" clip-rule="evenodd" d="M316.273 233.438C316.073 233.275 315.852 233.223 315.633 233.235C315.266 235.887 315.009 236.918 315.009 236.918C315.009 236.918 314.633 235.592 314.494 233.755C314.381 233.845 314.313 233.912 314.313 233.912V238.684C314.313 238.684 315.013 239.266 315.573 238.993C316.133 238.719 316.646 236.518 316.834 235.807C317.02 235.096 317.078 234.093 316.273 233.438Z" fill="white"/>
<path opacity="0.4" fill-rule="evenodd" clip-rule="evenodd" d="M290.749 233.438C289.944 234.093 290.002 235.096 290.189 235.807C290.376 236.518 290.889 238.719 291.449 238.993C291.893 239.21 292.42 238.891 292.622 238.749C292.622 238.668 292.622 238.59 292.623 238.507C292.635 238.427 292.668 238.196 292.709 237.852V233.912C292.709 233.912 291.554 232.781 290.749 233.438Z" fill="white"/>
<path opacity="0.7" fill-rule="evenodd" clip-rule="evenodd" d="M309.149 249.801C308.952 249.187 308.852 248.555 308.811 247.948C307.92 248.479 307.045 248.888 306.175 249.291C305.432 249.634 302.721 249.717 301.798 249.288C301.089 248.958 300.162 248.474 299.231 247.927C299.191 248.541 299.09 249.18 298.891 249.801C298.662 250.518 297.228 251.107 295.65 251.69C295.954 252.11 298.88 255.951 304.077 255.951C309.491 255.951 312.287 251.984 312.487 251.69C310.796 251.16 309.419 250.641 309.149 249.801Z" fill="white"/>
<path fill-rule="evenodd" clip-rule="evenodd" d="M314.985 236.831C314.874 236.409 314.4 234.457 314.446 232.136C314.471 230.872 314.603 229.415 314.458 228.492C314.312 227.569 313.826 226.062 312.709 225.966C312.709 225.966 307.732 231.543 297.06 230.842C296.025 230.774 295.105 230.611 294.284 230.376C293.267 231.169 292.901 232.167 292.929 232.985C293.024 235.738 292.669 238.204 292.623 238.507C292.62 238.956 292.618 239.385 292.618 239.785C292.618 242.621 294.364 244.454 296.956 246.43C298.401 247.533 300.479 248.674 301.798 249.288C302.721 249.717 305.432 249.634 306.175 249.291C307.569 248.645 308.976 247.982 310.443 246.833C312.848 244.953 315.083 242.823 315.083 240.432C315.083 239.829 315.044 238.497 314.985 236.831Z" fill="white"/>
<path fill-rule="evenodd" clip-rule="evenodd" d="M314.969 221.089C313.737 219.59 312.199 218.826 310.497 219.035C309.202 217.349 305.926 216.772 302.793 217.191C299.338 217.653 297.335 218.229 294.852 219.912C293.431 220.875 290.936 223.162 290.571 225.965C290.066 229.843 291.81 234.532 291.862 234.906C292.06 236.351 292.618 238.539 292.618 238.539C292.618 238.539 293.03 235.925 292.929 232.986C292.901 232.167 293.267 231.169 294.284 230.376C295.105 230.611 296.025 230.775 297.06 230.843C307.733 231.543 312.709 225.966 312.709 225.966C313.826 226.063 314.312 227.569 314.458 228.493C314.604 229.416 314.471 230.873 314.446 232.137C314.395 234.763 315.009 236.919 315.009 236.919C315.009 236.919 315.3 235.754 315.704 232.711C315.936 230.971 318.233 225.065 314.969 221.089Z" fill="#5D8EF9"/>
<path fill-rule="evenodd" clip-rule="evenodd" d="M314.969 221.089C313.737 219.59 312.199 218.826 310.497 219.035C309.202 217.349 305.926 216.772 302.793 217.191C299.338 217.653 297.335 218.229 294.852 219.912C293.431 220.875 290.936 223.162 290.571 225.965C290.066 229.843 291.81 234.532 291.862 234.906C292.06 236.351 292.618 238.539 292.618 238.539C292.618 238.539 293.03 235.925 292.929 232.986C292.901 232.167 293.267 231.169 294.284 230.376C295.105 230.611 296.025 230.775 297.06 230.843C307.733 231.543 312.709 225.966 312.709 225.966C313.826 226.063 314.312 227.569 314.458 228.493C314.604 229.416 314.471 230.873 314.446 232.137C314.395 234.763 315.009 236.919 315.009 236.919C315.009 236.919 315.3 235.754 315.704 232.711C315.936 230.971 318.233 225.065 314.969 221.089Z" fill="#BFBFC1"/>
<path fill-rule="evenodd" clip-rule="evenodd" d="M318.015 253.334L312.499 251.672C312.499 251.672 309.699 255.952 304.076 255.952C298.578 255.952 295.622 251.651 295.622 251.651L289.874 253.351C286.816 254.257 284.718 257.066 284.718 260.256V265.354H323.136V260.227C323.137 257.051 321.056 254.25 318.015 253.334Z" fill="#53535D"/>
<path opacity="0.4" fill-rule="evenodd" clip-rule="evenodd" d="M372.273 233.438C372.073 233.275 371.852 233.223 371.633 233.235C371.266 235.887 371.009 236.918 371.009 236.918C371.009 236.918 370.633 235.592 370.494 233.755C370.381 233.845 370.313 233.912 370.313 233.912V238.684C370.313 238.684 371.013 239.266 371.573 238.993C372.133 238.719 372.646 236.518 372.834 235.807C373.02 235.096 373.078 234.093 372.273 233.438Z" fill="white"/>
<path opacity="0.4" fill-rule="evenodd" clip-rule="evenodd" d="M346.749 233.438C345.944 234.093 346.002 235.096 346.189 235.807C346.376 236.518 346.889 238.719 347.449 238.993C347.893 239.21 348.42 238.891 348.622 238.749C348.622 238.668 348.622 238.59 348.623 238.507C348.635 238.427 348.668 238.196 348.709 237.852V233.912C348.709 233.912 347.554 232.781 346.749 233.438Z" fill="white"/>
<path opacity="0.7" fill-rule="evenodd" clip-rule="evenodd" d="M365.149 249.801C364.952 249.187 364.852 248.555 364.811 247.948C363.92 248.479 363.045 248.888 362.175 249.291C361.432 249.634 358.721 249.717 357.798 249.288C357.089 248.958 356.162 248.474 355.231 247.927C355.191 248.541 355.09 249.18 354.891 249.801C354.662 250.518 353.228 251.107 351.65 251.69C351.954 252.11 354.88 255.951 360.077 255.951C365.491 255.951 368.287 251.984 368.487 251.69C366.796 251.16 365.419 250.641 365.149 249.801Z" fill="white"/>
<path fill-rule="evenodd" clip-rule="evenodd" d="M370.985 236.831C370.874 236.409 370.4 234.457 370.446 232.136C370.471 230.872 370.603 229.415 370.458 228.492C370.312 227.569 369.826 226.062 368.709 225.966C368.709 225.966 363.732 231.543 353.06 230.842C352.025 230.774 351.105 230.611 350.284 230.376C349.267 231.169 348.901 232.167 348.929 232.985C349.024 235.738 348.669 238.204 348.623 238.507C348.62 238.956 348.618 239.385 348.618 239.785C348.618 242.621 350.364 244.454 352.956 246.43C354.401 247.533 356.479 248.674 357.798 249.288C358.721 249.717 361.432 249.634 362.175 249.291C363.569 248.645 364.976 247.982 366.443 246.833C368.848 244.953 371.083 242.823 371.083 240.432C371.083 239.829 371.044 238.497 370.985 236.831Z" fill="white"/>
<path fill-rule="evenodd" clip-rule="evenodd" d="M370.969 221.089C369.737 219.59 368.199 218.826 366.497 219.035C365.202 217.349 361.926 216.772 358.793 217.191C355.338 217.653 353.335 218.229 350.852 219.912C349.431 220.875 346.936 223.162 346.571 225.965C346.066 229.843 347.81 234.532 347.862 234.906C348.06 236.351 348.618 238.539 348.618 238.539C348.618 238.539 349.03 235.925 348.929 232.986C348.901 232.167 349.267 231.169 350.284 230.376C351.105 230.611 352.025 230.775 353.06 230.843C363.733 231.543 368.709 225.966 368.709 225.966C369.826 226.063 370.312 227.569 370.458 228.493C370.604 229.416 370.471 230.873 370.446 232.137C370.395 234.763 371.009 236.919 371.009 236.919C371.009 236.919 371.3 235.754 371.704 232.711C371.936 230.971 374.233 225.065 370.969 221.089Z" fill="#5D8EF9"/>
<path fill-rule="evenodd" clip-rule="evenodd" d="M370.969 221.089C369.737 219.59 368.199 218.826 366.497 219.035C365.202 217.349 361.926 216.772 358.793 217.191C355.338 217.653 353.335 218.229 350.852 219.912C349.431 220.875 346.936 223.162 346.571 225.965C346.066 229.843 347.81 234.532 347.862 234.906C348.06 236.351 348.618 238.539 348.618 238.539C348.618 238.539 349.03 235.925 348.929 232.986C348.901 232.167 349.267 231.169 350.284 230.376C351.105 230.611 352.025 230.775 353.06 230.843C363.733 231.543 368.709 225.966 368.709 225.966C369.826 226.063 370.312 227.569 370.458 228.493C370.604 229.416 370.471 230.873 370.446 232.137C370.395 234.763 371.009 236.919 371.009 236.919C371.009 236.919 371.3 235.754 371.704 232.711C371.936 230.971 374.233 225.065 370.969 221.089Z" fill="#BFBFC1"/>
<path fill-rule="evenodd" clip-rule="evenodd" d="M374.015 253.334L368.499 251.672C368.499 251.672 365.699 255.952 360.076 255.952C354.578 255.952 351.622 251.651 351.622 251.651L345.874 253.351C342.816 254.257 340.718 257.066 340.718 260.256V265.354H379.136V260.227C379.137 257.051 377.056 254.25 374.015 253.334Z" fill="#53535D"/>
<path fill-rule="evenodd" clip-rule="evenodd" d="M233.558 150.117L229.102 151.024L238.042 138.307C238.939 137.031 238.026 135.274 236.466 135.274C235.842 135.274 235.256 135.576 234.895 136.085L225.832 148.861L224.925 144.404C224.709 143.343 223.674 142.659 222.613 142.874C221.551 143.09 220.866 144.125 221.082 145.186L222.933 154.281C223.122 155.21 223.94 155.851 224.853 155.851C224.982 155.851 225.114 155.838 225.246 155.811L234.341 153.96C235.402 153.744 236.087 152.709 235.871 151.648C235.655 150.586 234.62 149.902 233.558 150.117Z" fill="white"/>
</svg>
