<?xml version="1.0" encoding="UTF-8"?><!DOCTYPE svg PUBLIC "-//W3C//DTD SVG 1.1//EN" "http://www.w3.org/Graphics/SVG/1.1/DTD/svg11.dtd"><svg xmlns="http://www.w3.org/2000/svg"><symbol id="ico-accountOpening" viewBox="0 0 26 30">
    <title>
        accountOpening
    </title>
    <path d="M13 0L0 7.5v15L13 30l13-7.5v-15L13 0zm6.845 19.012L13 22.898l-6.845-4.012V11.05L13 7.102l6.845 3.95v7.96z" fill-rule="nonzero"/>
</symbol><symbol id="ico-collaborate" viewBox="0 0 30 30">
    <title>
        collaborate
    </title>
    <path d="M18.755 16.567c.114.192.25.385.351.595.293.615.037.974-.639.91-.142-.013-.284-.04-.436-.062.026.243.038.487.036.731a.458.458 0 0 1-.638.458 2.173 2.173 0 0 1-.453-.192c-.143-.076-.275-.174-.417-.267-.06.264-.134.524-.224.78-.223.539-.606.602-.999.177-.124-.135-.227-.29-.341-.437a5.588 5.588 0 0 1-.35.452c-.382.404-.77.337-.983-.18a6.86 6.86 0 0 1-.221-.783c-.212.124-.414.266-.635.367-.593.273-.953.009-.892-.646.013-.143.046-.284.075-.456-.177.023-.335.05-.494.062-.635.05-.893-.315-.62-.894.105-.22.249-.421.372-.627a6.974 6.974 0 0 1-.78-.223c-.528-.217-.588-.62-.16-1.007.128-.116.274-.211.425-.326-.158-.123-.311-.225-.444-.35-.408-.38-.343-.773.176-.986.255-.09.515-.164.779-.223a6.876 6.876 0 0 1-.379-.666c-.246-.568.017-.918.637-.863.143.013.286.043.474.072-.023-.167-.05-.313-.062-.461-.06-.655.304-.919.899-.643.213.1.409.237.63.367.064-.24.108-.482.192-.71.225-.608.64-.68 1.066-.192.102.116.187.246.295.39.11-.144.205-.29.32-.418.395-.442.804-.38 1.024.166.086.252.158.509.215.769.16-.1.327-.215.504-.313a.763.763 0 0 1 .791-.094c.29.173.238.48.215.758-.01.113-.034.225-.06.39.14-.026.263-.057.389-.069.267-.025.534-.057.733.2.199.258.078.497-.03.728a6.288 6.288 0 0 1-.35.587c.243.07.485.121.714.207.616.229.686.619.194 1.055-.115.102-.248.184-.387.286.177.135.347.28.508.433.312.327.268.656-.136.854a6.708 6.708 0 0 1-.884.294zM20.2 27.555a4.487 4.487 0 0 1-1.147 1.853c-.236.216-.506.39-.8.516a.588.588 0 0 1-.877-.485 2.764 2.764 0 0 1 .04-.978c.148-.64.45-1.232.88-1.728a3.035 3.035 0 0 1 3.303-1c.622.128 1.2.416 1.676.835.285.19.43.532.367.869-.107.379-.45.494-.791.564-.771.13-1.563.03-2.278-.286-.116-.045-.228-.097-.373-.16zm7.443-7.321c.164.533.292 1.076.382 1.626.04.44-.01.883-.144 1.303-.177.566-.67.666-1.126.282a3.411 3.411 0 0 1-1.033-1.905 3.301 3.301 0 0 1 2.62-4.087c.376-.1.77-.12 1.155-.062a.574.574 0 0 1 .455.8c-.148.48-.459.895-.88 1.17-.46.326-.964.592-1.43.873zm-17.848 7.32a4.464 4.464 0 0 1-2.158.5 2.683 2.683 0 0 1-.925-.217.599.599 0 0 1-.254-.956c.094-.149.212-.28.35-.391a4.059 4.059 0 0 1 2.908-.858c.68.052 1.315.362 1.774.866a4.04 4.04 0 0 1 1.168 2.478c.013.196-.01.392-.068.58a.553.553 0 0 1-.756.394 2.855 2.855 0 0 1-.82-.48 4.372 4.372 0 0 1-1.22-1.916zM2.437 9.791a4.47 4.47 0 0 1-.482-2.388c.017-.185.058-.367.123-.541a.672.672 0 0 1 1.175-.303c.508.48.856 1.105.996 1.79a3.432 3.432 0 0 1-3.217 4.309.86.86 0 0 1-.937-.338.891.891 0 0 1 .164-.984 4.116 4.116 0 0 1 1.876-1.425l.302-.12zm25.145-.055c.48.254.948.533 1.4.835.307.245.577.533.801.854a.782.782 0 0 1 .12.902.84.84 0 0 1-.82.34 3.414 3.414 0 0 1-3.33-4.289c.19-.532.427-1.046.708-1.536a.365.365 0 0 1 .078-.096c.247-.243.504-.495.888-.394.402.106.51.46.58.812a4.047 4.047 0 0 1-.357 2.417l-.068.155zM9.717 2.399c.31-.54.647-1.065 1.01-1.57.251-.302.563-.547.915-.72.534-.275.966.013 1.015.615A3.435 3.435 0 0 1 8.26 4.218a7.11 7.11 0 0 1-1.239-.556A1.582 1.582 0 0 1 6.6 3.3c-.471-.52-.337-1.082.35-1.241.465-.081.939-.104 1.41-.07.248.023.49.079.723.167.234.073.46.175.634.243zm-7.31 17.854a12.14 12.14 0 0 1-1.365-.81 3.677 3.677 0 0 1-.882-.982c-.372-.616-.072-1.11.657-1.137a3.438 3.438 0 0 1 1.822.54 3.048 3.048 0 0 1 1.686 2.184 3.794 3.794 0 0 1-.963 3.277c-.53.58-1.141.419-1.335-.34a3.882 3.882 0 0 1 .28-2.485l.097-.229.004-.018zM20.26 2.413a4.227 4.227 0 0 1 2.128-.463c.308.017.61.087.896.207a.607.607 0 0 1 .253.958 1.32 1.32 0 0 1-.257.309 3.851 3.851 0 0 1-3.245.897 3.39 3.39 0 0 1-2.532-2.487 2.03 2.03 0 0 1-.13-1.276.625.625 0 0 1 .912-.486c.478.186.884.52 1.157.954.296.433.536.903.818 1.387zm2.096 20.058c.245-.733.453-1.41.701-2.071.093-.208.23-.394.402-.543.314-.296.678-.254.826.145.17.441.268.907.287 1.38a5.561 5.561 0 0 1-.48 2.413.491.491 0 0 1-.203.247 5.544 5.544 0 0 1-3.448.42c-.324-.07-.686-.165-.748-.554-.062-.39.26-.585.539-.761a5.29 5.29 0 0 1 2.124-.676zm-7.404 3.034c.542-.302 1.031-.615 1.555-.854a2.87 2.87 0 0 1 1.015-.234.476.476 0 0 1 .509.7 3.093 3.093 0 0 1-.497.85 6.061 6.061 0 0 1-2.195 1.639.743.743 0 0 1-.676-.002 6.073 6.073 0 0 1-2.318-1.778 2.607 2.607 0 0 1-.319-.53c-.265-.593.015-.98.66-.875.354.07.7.177 1.031.32.227.101.445.222.65.362.21.13.408.28.585.402zM25.51 14.948a5.368 5.368 0 0 1-1.054-2.045l-.022-.09c-.036-.29-.089-.598.185-.802.265-.196.542-.071.788.064a5.634 5.634 0 0 1 1.985 2.132c.34.47.341 1.104.005 1.576-.424.762-1 1.428-1.694 1.956-.185.132-.39.233-.608.3-.411.117-.698-.088-.672-.515.015-.35.093-.694.23-1.016.238-.523.551-1.013.857-1.56zm-3.042-7.351c-.59-.165-1.155-.294-1.698-.486a2.702 2.702 0 0 1-.82-.486c-.432-.366-.337-.784.186-.997a3.437 3.437 0 0 1 1.773-.176c.612.096 1.215.239 1.805.426.176.07.318.206.394.38a5.472 5.472 0 0 1 .36 3.28c-.073.334-.163.715-.572.768-.385.05-.58-.275-.756-.556a5.366 5.366 0 0 1-.672-2.153zM7.526 22.401c.577.157 1.124.276 1.648.46.31.114.6.28.853.492.457.375.381.802-.176 1.01-.311.113-.637.18-.967.2a5.79 5.79 0 0 1-2.694-.482.567.567 0 0 1-.271-.264 5.644 5.644 0 0 1-.41-3.277c.053-.241.151-.47.29-.674a.4.4 0 0 1 .624-.094c.171.133.318.294.433.478.34.582.556 1.23.63 1.9l.04.25zm7.516-17.887c-.61.318-1.184.647-1.784.916a2.006 2.006 0 0 1-.846.138.449.449 0 0 1-.451-.657c.102-.292.25-.565.44-.81a5.722 5.722 0 0 1 2.376-1.746.639.639 0 0 1 .436-.003 5.674 5.674 0 0 1 2.47 1.867c.171.232.295.495.366.774a.428.428 0 0 1-.49.572 5.644 5.644 0 0 1-1.358-.36 9.11 9.11 0 0 1-1.159-.69zM5.374 8.58c.036-.803.21-1.594.514-2.338a.654.654 0 0 1 .297-.324 5.675 5.675 0 0 1 3.246-.415c.204.036.4.106.58.206a.487.487 0 0 1 .117.845c-.138.156-.307.28-.497.365-.59.21-1.189.402-1.796.556a.395.395 0 0 0-.36.359c-.135.58-.322 1.149-.508 1.716a1.543 1.543 0 0 1-.264.418c-.154.202-.36.429-.612.328a.933.933 0 0 1-.476-.509c-.11-.396-.19-.8-.241-1.207zm-.851 6.38c.318.62.649 1.204.918 1.815.099.271.14.56.12.848a.409.409 0 0 1-.547.426 2.19 2.19 0 0 1-.779-.353 5.704 5.704 0 0 1-1.888-2.489.556.556 0 0 1-.012-.378 5.73 5.73 0 0 1 1.94-2.56c.184-.133.388-.236.605-.304.425-.135.72.067.689.512-.024.38-.114.754-.266 1.103-.224.495-.533.952-.78 1.38zm10.048 8.044c.002.672-.443.96-1.057.67a3.144 3.144 0 0 1-1.315-1.28c-.111-.181-.2-.253-.436-.192-.57.165-1.174.17-1.746.016-.294-.087-.58-.212-.656-.547a.794.794 0 0 1 .38-.796 3.588 3.588 0 0 1 1.636-.697c.232-.046.466-.085.698-.13a1.69 1.69 0 0 1 1.48.703c.129.223.302.419.443.635.327.481.524 1.038.573 1.618zm4.7-.647a7.334 7.334 0 0 1-.932-.138.465.465 0 0 0-.594.233c-.3.38-.629.733-.986 1.059-.12.098-.259.17-.408.212a.614.614 0 0 1-.909-.611c.01-.677.237-1.333.647-1.872.129-.223.274-.435.434-.636.318-.38.797-.587 1.291-.559.505.038 1 .147 1.474.326.412.158.793.389 1.123.682a.597.597 0 0 1-.218 1.076c-.301.1-.61.176-.923.228zM7.746 12.093c-.005-.684-.042-1.3 0-1.91a.813.813 0 0 1 .561-.815c.42-.105.678.189.896.486.349.55.575 1.17.663 1.815.137.456.083.948-.15 1.364a2.135 2.135 0 0 1-.467.506c-.233.205-.49.38-.765.524-.41.19-.834.349-1.268.476-.182.038-.37.03-.55-.022a.545.545 0 0 1-.439-.723c.165-.54.51-1.006.978-1.322.199-.161.42-.295.54-.379zm.079 5.959c-.466-.433-.887-.797-1.27-1.197a1.511 1.511 0 0 1-.31-.597.586.586 0 0 1 .576-.813c.657-.013 1.3.19 1.832.577.254.157.499.33.744.5.399.404.587.971.508 1.533-.047.315-.11.628-.19.937a5.36 5.36 0 0 1-.665 1.312c-.445.578-1.019.438-1.252-.255a3.335 3.335 0 0 1-.03-1.747l.057-.25zm2.957-10.414c.303.024.604.071.9.141.286.092.406-.01.56-.238.229-.318.485-.615.766-.889.136-.127.292-.231.461-.309a.741.741 0 0 1 .822-.032c.237.198.34.513.267.813a3.582 3.582 0 0 1-.667 1.65c-.14.203-.278.408-.414.614a1.762 1.762 0 0 1-1.501.531c-.338-.09-.692-.12-1.03-.208A2.763 2.763 0 0 1 9.6 8.98c-.418-.44-.335-.91.229-1.125.312-.098.63-.17.954-.218zm12.061 7.801c.865-.007 1.141.436.812 1.084a3.267 3.267 0 0 1-1.274 1.281.315.315 0 0 0-.183.413c.157.56.168 1.152.03 1.717-.032.12-.078.236-.136.345a.578.578 0 0 1-.975.191 1.946 1.946 0 0 1-.555-.729 8.056 8.056 0 0 1-.51-1.961 1.357 1.357 0 0 1 .714-1.346c.262-.14.485-.352.74-.508.399-.27.858-.437 1.337-.487zM17.967 7.75c.603-.007 1.208-.047 1.808-.01.384.025.788.173.865.624.07.41-.24.658-.541.87a4.667 4.667 0 0 1-1.733.628 1.836 1.836 0 0 1-1.454-.166 2.131 2.131 0 0 1-.456-.437 5.326 5.326 0 0 1-.378-.528 3.22 3.22 0 0 1-.638-1.72c-.014-.716.438-1.001 1.08-.675.537.298.982.738 1.286 1.272l.151.23.01-.088zm4.38 3.089c-.058.373-.086.683-.16.983-.043.18.029.24.154.345.401.335.782.695 1.165 1.053.062.07.11.15.143.238.171.244.187.564.042.823a.794.794 0 0 1-.81.278 4.113 4.113 0 0 1-1.855-.802 1.774 1.774 0 0 1-.897-1.08 2.313 2.313 0 0 1-.026-.714c.026-.36.095-.716.205-1.06.155-.414.355-.81.595-1.18a.709.709 0 0 1 .768-.363.76.76 0 0 1 .536.625c.072.299.101.608.14.854z" fill-rule="nonzero"/>
</symbol><symbol id="ico-fb" viewBox="0 0 9 20">
    <title>
        fb
    </title>
    <path d="M5.985 20V9.999h2.662L9 6.552H5.985l.004-1.725c0-.899.082-1.38 1.328-1.38H8.98V0H6.318C3.12 0 1.994 1.672 1.994 4.484v2.069H0v3.446h1.994V20h3.99z" fill-rule="evenodd"/>
</symbol><symbol id="ico-g+" viewBox="0 0 19 19">
    <title>
        g+
    </title>
    <path d="M9.676 8.143V11.4h5.209c-.21 1.398-1.575 4.099-5.209 4.099-3.135 0-5.694-2.688-5.694-5.999 0-3.311 2.559-5.999 5.694-5.999 1.785 0 2.978.788 3.66 1.466l2.493-2.483C14.23.936 12.156 0 9.676 0 4.6 0 .493 4.248.493 9.5S4.599 19 9.676 19c5.3 0 8.817-3.854 8.817-9.283 0-.624-.066-1.1-.145-1.574H9.676z" fill-rule="evenodd"/>
</symbol><symbol id="ico-getTrading" viewBox="0 0 30 30">
    <title>
        getTrading
    </title>
    <path d="M14.943 12.756a3.427 3.427 0 1 1 0-6.854 3.427 3.427 0 0 1 0 6.854zm2.49-9.307c.657-.913 2.26-.883 3.58.068 1.32.95 1.858 2.461 1.2 3.375-.657.913-2.26.882-3.58-.068-1.321-.951-1.858-2.462-1.2-3.375zm5.144.58c-.888-.608-1.349-1.482-1.029-1.95.322-.469 1.301-.356 2.191.251.888.608 1.349 1.482 1.028 1.95-.32.469-1.3.356-2.19-.251zm-7.853-1.482c-1.333-.017-2.405-.604-2.396-1.306.01-.703 1.098-1.258 2.432-1.24 1.332.018 2.405.604 2.395 1.307-.01.702-1.098 1.257-2.431 1.24zM7.639 6.921c-.658-.914-.121-2.425 1.2-3.375 1.32-.95 2.922-.982 3.58-.068.658.914.122 2.424-1.2 3.375-1.319.95-2.923.981-3.58.068zM7.34 4.125c-.889.607-1.87.72-2.19.251-.32-.469.14-1.342 1.029-1.95.889-.607 1.869-.72 2.19-.25.32.468-.14 1.34-1.029 1.949zM9.329 18.37a3.427 3.427 0 1 1 0-6.855 3.427 3.427 0 0 1 0 6.855zm-5.88-.939c.913-.657 2.424-.12 3.374 1.2.951 1.32.982 2.924.068 3.581-.913.658-2.424.121-3.375-1.2-.95-1.32-.98-2.923-.068-3.58zM2.1 21.527c.468-.32 1.342.14 1.95 1.028.606.89.72 1.87.251 2.19-.469.32-1.342-.14-1.95-1.028-.607-.89-.72-1.87-.25-2.19zm.446-6.803c.018 1.333-.537 2.422-1.239 2.432C.605 17.165.018 16.092 0 14.76c-.018-1.333.537-2.421 1.241-2.432.702-.008 1.288 1.064 1.306 2.396zm.93-2.304c-.913-.658-.882-2.261.069-3.581.95-1.32 2.46-1.858 3.375-1.2.913.657.882 2.261-.068 3.581-.951 1.32-2.462 1.858-3.376 1.2zm.648-5.079c-.609.89-1.482 1.35-1.95 1.03-.47-.322-.356-1.302.251-2.191.607-.889 1.48-1.348 1.95-1.028.468.32.355 1.3-.251 2.19zM17.48 23.094a3.427 3.427 0 1 1-4.847-4.846 3.427 3.427 0 0 1 4.847 4.846zm-4.913 3.458c-.657.913-2.26.883-3.58-.068-1.321-.951-1.858-2.462-1.2-3.376.657-.913 2.26-.882 3.581.069 1.32.95 1.857 2.462 1.2 3.375zm-5.122-.603c.888.608 1.348 1.482 1.028 1.95-.321.469-1.3.356-2.19-.251-.889-.608-1.349-1.481-1.028-1.95.32-.469 1.3-.356 2.19.251zm7.83 1.504c1.333.018 2.405.604 2.396 1.306-.01.704-1.098 1.258-2.432 1.24-1.332-.018-2.404-.604-2.395-1.307.01-.702 1.099-1.257 2.431-1.24zm7.086-4.374c.658.914.12 2.426-1.2 3.375-1.32.951-2.923.982-3.58.068-.659-.913-.122-2.424 1.198-3.375 1.32-.95 2.924-.981 3.582-.068zm.282 2.782c.89-.607 1.87-.72 2.19-.252.32.47-.14 1.343-1.028 1.95-.889.607-1.87.72-2.19.251-.32-.468.14-1.341 1.028-1.95zm-1.972-7.377a3.427 3.427 0 1 1 0-6.855 3.427 3.427 0 0 1 0 6.855zm5.812-9.498c.951 1.32.982 2.924.069 3.582-.914.657-2.425.12-3.376-1.2-.95-1.32-.981-2.924-.068-3.581.914-.658 2.426-.121 3.375 1.2zm1.438-.534c-.469.32-1.342-.14-1.95-1.03-.607-.889-.72-1.869-.252-2.189.47-.32 1.343.14 1.95 1.028.608.89.72 1.87.252 2.19zm.77 4.393c.704-.01 1.29 1.063 1.309 2.395.017 1.334-.538 2.421-1.242 2.432-.701.009-1.288-1.063-1.306-2.396-.017-1.333.538-2.422 1.24-2.431zM23.08 22.36c-.914-.657-.883-2.261.068-3.581.95-1.32 2.461-1.858 3.375-1.2.914.658.882 2.261-.069 3.581-.949 1.321-2.46 1.858-3.374 1.2zm2.781.283c.608-.89 1.481-1.349 1.95-1.029.469.321.356 1.301-.251 2.19-.608.889-1.481 1.349-1.95 1.028-.468-.32-.356-1.3.251-2.189z" fill-rule="nonzero"/>
</symbol><symbol id="ico-in" viewBox="0 0 24 24">
    <title>
        in
    </title>
    <path d="M11.979.098c-3.136 0-3.53.014-4.761.07-1.23.056-2.068.25-2.803.536-.759.295-1.403.69-2.045 1.331A5.665 5.665 0 0 0 1.037 4.08C.751 4.813.557 5.652.501 6.88.446 8.111.43 8.505.43 11.64c0 3.134.014 3.526.07 4.757.057 1.229.251 2.067.537 2.801.295.76.69 1.403 1.331 2.045a5.654 5.654 0 0 0 2.045 1.332c.735.285 1.574.48 2.803.536 1.231.056 1.625.07 4.76.07 3.136 0 3.529-.014 4.76-.07 1.23-.056 2.07-.25 2.804-.536a5.65 5.65 0 0 0 2.044-1.332 5.665 5.665 0 0 0 1.333-2.045c.284-.734.478-1.573.536-2.8.056-1.232.07-1.624.07-4.759 0-3.134-.014-3.527-.07-4.758-.058-1.229-.252-2.068-.536-2.801a5.664 5.664 0 0 0-1.333-2.045A5.643 5.643 0 0 0 19.54.705c-.736-.286-1.575-.48-2.804-.537-1.232-.056-1.624-.07-4.76-.07h.003zm-1.036 2.08h1.036c3.083 0 3.448.011 4.665.067 1.126.051 1.737.239 2.144.397.54.21.923.46 1.327.863.404.404.654.789.864 1.327.158.407.347 1.017.398 2.143.055 1.216.067 1.582.067 4.662s-.012 3.445-.067 4.662c-.052 1.125-.24 1.736-.398 2.142-.21.539-.46.922-.864 1.326a3.57 3.57 0 0 1-1.327.863c-.406.159-1.018.346-2.144.398-1.217.055-1.582.067-4.665.067s-3.449-.012-4.666-.067c-1.126-.052-1.737-.24-2.144-.398a3.576 3.576 0 0 1-1.328-.863 3.577 3.577 0 0 1-.864-1.327c-.158-.406-.346-1.017-.397-2.142-.056-1.217-.067-1.582-.067-4.664s.011-3.446.067-4.662c.051-1.125.24-1.736.397-2.143.21-.539.46-.923.864-1.327a3.584 3.584 0 0 1 1.328-.864c.407-.159 1.018-.346 2.144-.398 1.065-.048 1.478-.062 3.63-.065v.003zm7.2 1.916a1.385 1.385 0 1 0-.002 2.772 1.385 1.385 0 0 0 .001-2.772zm-6.164 1.619a5.927 5.927 0 0 0 0 11.852 5.927 5.927 0 1 0 0-11.852zm0 2.08a3.848 3.848 0 1 1-3.849 3.846 3.848 3.848 0 0 1 3.849-3.847z" fill-rule="evenodd"/>
</symbol><symbol id="ico-ln" viewBox="0 0 19 18">
    <title>
        ln
    </title>
    <path d="M4.25 5.855V18H.392V5.855H4.25zm.255-3.757c0 1.166-.838 2.099-2.184 2.099h-.024c-1.295 0-2.133-.933-2.133-2.1C.164.908 1.027 0 2.347 0c1.32 0 2.133.907 2.158 2.098zm13.66 8.938V18h-3.859v-6.498c0-1.632-.558-2.746-1.955-2.746-1.066 0-1.7.751-1.98 1.476-.101.26-.126.622-.126.985V18H6.386s.05-11.005 0-12.145h3.859v1.72c.512-.827 1.429-2.005 3.477-2.005 2.539 0 4.442 1.736 4.442 5.466z" fill-rule="evenodd"/>
</symbol><symbol id="ico-pi" viewBox="0 0 18 22">
    <title>
        pi
    </title>
    <path d="M.821 7.893c0-.952.166-1.849.498-2.69A6.896 6.896 0 0 1 2.694 3a9.32 9.32 0 0 1 2.018-1.626A9.298 9.298 0 0 1 7.17.344C8.046.114 8.94 0 9.852 0c1.4 0 2.7.293 3.905.88a7.364 7.364 0 0 1 2.935 2.558c.753 1.119 1.129 2.384 1.129 3.794 0 .846-.084 1.675-.252 2.486a10.01 10.01 0 0 1-.797 2.34 8.151 8.151 0 0 1-1.328 1.976 5.762 5.762 0 0 1-1.926 1.362c-.762.34-1.598.509-2.51.509a4.14 4.14 0 0 1-1.793-.423c-.593-.282-1.018-.67-1.275-1.163-.089.343-.213.84-.372 1.487-.16.648-.263 1.066-.312 1.256a25.4 25.4 0 0 1-.272.939c-.133.436-.248.749-.346.938l-.425.827a9.36 9.36 0 0 1-.61 1.024c-.222.322-.497.703-.824 1.144L4.593 22l-.12-.132c-.132-1.384-.199-2.213-.199-2.486 0-.81.095-1.72.286-2.73.19-1.01.484-2.276.883-3.801.398-1.525.629-2.42.69-2.684-.283-.573-.424-1.318-.424-2.234 0-.732.23-1.42.69-2.063.46-.643 1.045-.965 1.753-.965.54 0 .961.179 1.262.536.301.356.452.808.452 1.355 0 .581-.195 1.423-.585 2.525-.39 1.102-.584 1.926-.584 2.472 0 .556.199 1.016.597 1.382.399.366.881.549 1.448.549.487 0 .939-.11 1.355-.331a3.05 3.05 0 0 0 1.042-.899 7.59 7.59 0 0 0 .744-1.256 7.21 7.21 0 0 0 .505-1.461c.12-.516.208-1.005.265-1.468.058-.462.087-.9.087-1.315 0-1.525-.485-2.713-1.455-3.563-.969-.85-2.233-1.276-3.791-1.276-1.771 0-3.25.57-4.436 1.712-1.187 1.142-1.78 2.59-1.78 4.343 0 .388.055.763.166 1.124.11.362.23.648.359.86.128.211.248.412.358.601.111.19.166.324.166.403 0 .247-.066.569-.199.965-.133.397-.297.595-.491.595-.018 0-.093-.013-.226-.04a2.719 2.719 0 0 1-1.202-.74 3.853 3.853 0 0 1-.81-1.249 8.119 8.119 0 0 1-.432-1.428 7.077 7.077 0 0 1-.146-1.408z" fill-rule="nonzero"/>
</symbol><symbol id="ico-pipsqueaks" viewBox="0 0 29 29">
    <title>
        pipsqueaks
    </title>
    <path d="M14.135 15.691c-1.246 1.242-2.398 2.395-3.556 3.543a4.944 4.944 0 0 1-3.532 1.475 4.944 4.944 0 0 1-3.529-1.482 853.7 853.7 0 0 0-3.334-3.301L0 15.732c.253-.236.507-.462.75-.7a779.8 779.8 0 0 0 2.745-2.717 4.944 4.944 0 0 1 3.549-1.505 4.944 4.944 0 0 1 3.553 1.494l3.335 3.3c.047.045.098.085.18.156.523-.526 1.038-1.045 1.557-1.561.655-.653 1.31-1.307 1.972-1.953a4.944 4.944 0 0 1 3.506-1.435 4.944 4.944 0 0 1 3.494 1.462 3318.92 3318.92 0 0 0 3.294 3.259c.068.066.131.136.26.27-.19.163-.386.312-.56.483-1.032 1.017-2.056 2.043-3.09 3.057a4.963 4.963 0 0 1-6.836-.005c-1.116-1.082-2.212-2.184-3.313-3.281a2.885 2.885 0 0 1-.261-.365zM14.085 0c1.26 1.233 2.544 2.406 3.731 3.67a4.766 4.766 0 0 1-.141 6.694c-1.132 1.16-2.3 2.285-3.453 3.426l-.133.107c-.565-.564-1.126-1.12-1.683-1.681-.739-.745-1.535-1.443-2.198-2.249a4.761 4.761 0 0 1 .326-6.457c1.136-1.156 2.301-2.285 3.454-3.425L14.086 0zm-.005 28.747l-1.632-1.633c-.492-.493-1.012-.962-1.467-1.486a4.064 4.064 0 0 1 .308-5.664 4.16 4.16 0 0 1 5.726.082 4.064 4.064 0 0 1 .143 5.67c-.96 1.02-1.983 1.983-2.979 2.97l-.099.06z" fill-rule="nonzero"/>
</symbol><symbol id="ico-smallPrint" viewBox="0 0 32 19">
    <title>
        smallPrint
    </title>
    <path d="M0 0h32v8.043H0V0zm0 10.362h32v8.043H0v-8.043z" fill-rule="nonzero"/>
</symbol><symbol id="ico-tw" viewBox="0 0 22 18">
    <title>
        tw
    </title>
    <path d="M10.38 5.31l.045.749-.757-.092c-2.756-.351-5.164-1.543-7.209-3.545l-.999-.993-.257.733c-.546 1.635-.197 3.362.938 4.523.606.642.47.734-.575.352-.363-.122-.681-.214-.712-.168-.106.107.258 1.497.545 2.047.394.764 1.197 1.513 2.075 1.956l.742.352-.878.015c-.848 0-.879.015-.788.336.303.994 1.5 2.048 2.832 2.506l.939.321-.818.49a8.529 8.529 0 0 1-4.058 1.13c-.682.015-1.242.076-1.242.122 0 .153 1.848 1.009 2.923 1.345 3.225.993 7.056.565 9.934-1.13 2.044-1.208 4.088-3.607 5.042-5.93.515-1.238 1.03-3.5 1.03-4.584 0-.703.046-.795.894-1.635.5-.49.969-1.024 1.06-1.177.151-.29.136-.29-.636-.03-1.288.458-1.47.397-.833-.29.47-.49 1.03-1.376 1.03-1.636 0-.046-.228.03-.485.168-.273.153-.878.382-1.333.52l-.817.26-.742-.505c-.41-.275-.985-.58-1.288-.672-.772-.214-1.953-.183-2.65.061-1.893.688-3.089 2.46-2.953 4.401z" fill-rule="evenodd"/>
</symbol></svg>