<?xml version="1.0" encoding="utf-8"?><svg xmlns="http://www.w3.org/2000/svg" xmlns:xlink="http://www.w3.org/1999/xlink"><symbol viewBox="0 0 20 26" id="i-deposit&amp;w" xmlns="http://www.w3.org/2000/svg"><g fill="none"><path d="M8.25 25.044l.975.692c.214.153.5.153.714 0l.977-.692c1.811-1.271 3.682-2.605 5.16-4.023 2.114-2.035 3.09-3.943 3.09-6.003V7.433a3.744 3.744 0 0 0-1.95-3.295L11.342.948a3.683 3.683 0 0 0-3.518 0l-5.873 3.19A3.744 3.744 0 0 0 0 7.433v7.585c0 2.06.986 3.968 3.091 6.003 1.478 1.418 3.351 2.752 5.16 4.023z" fill="#F8868C" opacity=".8"/><path d="M8.75.596v24.803l-.5-.355c-1.808-1.271-3.68-2.605-5.159-4.023C.986 18.986 0 17.078 0 15.018V7.433C0 6.056.749 4.79 1.95 4.138L7.825.948C8.12.786 8.431.67 8.75.595zm10.417 6.833v7.591-7.59z" fill="#FFF"/></g></symbol><symbol viewBox="0 0 47 41" id="i-withdrawals-0" xmlns="http://www.w3.org/2000/svg"><g fill-rule="evenodd"><text opacity=".5" font-family="SFProText-Regular, SF Pro Text" font-size="18" transform="translate(-1 -2)"><tspan x="0" y="41">DAYS</tspan></text><text font-family="SFProText-Medium, SF Pro Text" font-size="28" font-weight="400" transform="translate(-1 -2)"><tspan x="2" y="27">>5</tspan></text></g></symbol><symbol viewBox="0 0 50 41" id="i-withdrawals-1" xmlns="http://www.w3.org/2000/svg"><g fill-rule="evenodd"><path d="M49.938 5.653H30.061V.248H19.938v5.405H.063v35.099h49.876V5.653zm-27.5-2.92H27.5v7.082h-5.063V2.733zm25 35.534H2.562V8.137h17.375V12.3h10.125V8.138h17.375v30.129z" fill-rule="nonzero"/><path d="M27.5 28.079h14.125v2.485H27.5zm0-7.331h7.875v2.485H27.5z"/><path d="M14.563 22.923c2.312 0 4.187-1.864 4.187-4.162 0-2.3-1.875-4.163-4.188-4.163-2.312 0-4.187 1.864-4.187 4.163 0 2.298 1.875 4.162 4.188 4.162zm0-5.778c.931 0 1.687.751 1.687 1.678 0 .926-.756 1.677-1.688 1.677-.931 0-1.687-.75-1.687-1.677s.756-1.678 1.688-1.678zm0 6.399a6.962 6.962 0 0 0-4.928 2.041 6.874 6.874 0 0 0-2.01 4.917v2.67H21.5v-2.67a6.874 6.874 0 0 0-2.01-4.917 6.959 6.959 0 0 0-4.927-2.041zM19 30.688h-8.875v-.186c0-2.436 1.987-4.411 4.438-4.411 2.45 0 4.437 1.975 4.437 4.41v.187z" fill-rule="nonzero"/></g></symbol><symbol viewBox="0 0 64 45" id="i-withdrawals-2" xmlns="http://www.w3.org/2000/svg"><path d="M22.957 0c-1.518 0-2.783 1.279-2.783 2.813v4.284c-.462-.034-.92-.066-1.391-.066C8.426 7.031 0 15.548 0 26.016S8.426 45 18.783 45c6.5 0 12.235-3.35 15.608-8.438h17.783c1.517 0 2.783-1.278 2.783-2.812v-8.438h6.26c1.518 0 2.783-1.278 2.783-2.812v-8.438c0-1.533-1.265-2.812-2.783-2.812H57.74V2.812C57.74 1.28 56.474 0 54.957 0h-32zm0 2.813h32v8.437H30.565a18.619 18.619 0 0 0-7.608-3.735V2.813zm-4.174 7.03c8.853 0 16 7.225 16 16.173 0 8.948-7.147 16.172-16 16.172s-16-7.224-16-16.172 7.147-16.172 16-16.172zm-.153 2.791c-.716.08-1.254.7-1.239 1.428v2.242c-1.269.205-2.426.67-3.37 1.384-1.278.97-2.195 2.437-2.195 4.109 0 1.766 1.143 3.114 2.413 3.889 1.27.775 2.74 1.23 4.13 1.67 1.392.44 2.705.863 3.522 1.362.818.5 1.066.822 1.066 1.516 0 .66-.33 1.289-1.066 1.846-.735.557-1.853.967-3.108.967-2.654 0-3.712-.973-4.24-2.57a1.404 1.404 0 0 0-1.049-.936 1.39 1.39 0 0 0-1.326.45c-.33.379-.436.907-.277 1.386.745 2.258 2.73 3.969 5.5 4.394v2.198a1.41 1.41 0 0 0 .69 1.234c.434.256.97.256 1.403 0a1.41 1.41 0 0 0 .69-1.234v-2.22c1.269-.205 2.427-.691 3.37-1.406 1.278-.97 2.195-2.437 2.195-4.109 0-1.766-1.143-3.135-2.413-3.91-1.27-.776-2.739-1.21-4.13-1.649-1.392-.44-2.705-.885-3.522-1.384-.817-.5-1.065-.8-1.065-1.494 0-.659.33-1.31 1.065-1.868.735-.557 1.854-.945 3.109-.945 2.653 0 3.712.95 4.239 2.55a1.392 1.392 0 1 0 2.375.485c.33-.38.436-.908.277-1.387-.745-2.257-2.73-3.929-5.5-4.35v-2.22a1.414 1.414 0 0 0-.452-1.067 1.382 1.382 0 0 0-1.092-.36zm14.718 1.428h27.87V22.5h-24a19.037 19.037 0 0 0-3.87-8.438zm4.195 11.25h14.63v8.438H35.936a19.07 19.07 0 0 0 1.63-7.734c0-.238-.013-.468-.022-.703z"/></symbol></svg>