<?xml version="1.0" encoding="utf-8"?><svg xmlns="http://www.w3.org/2000/svg" xmlns:xlink="http://www.w3.org/1999/xlink"><symbol viewBox="0 0 28 21" id="a-values-0" xmlns="http://www.w3.org/2000/svg"><path d="M15.088 0S8.204 3.68 8.19 3.691a.724.724 0 0 0-.292.59c0 .41.313.728.718.728.06 0 5.486-2.136 5.486-2.136a.73.73 0 0 1 .785.194l9.535 10.653c.193-.096.374-.245.573-.284.39-.077.76-.068 1.211-.068H28V3.555h-5.272a.713.713 0 0 1-.303-.068L15.088 0zM0 3.555v9.813h2.042c.407-.853 1.274-1.454 2.266-1.454.46 0 .893.128 1.267.352.08.048 7.667 6.312 7.718 6.36.61.574.823 1.456.595 2.238a.744.744 0 0 0 .471.136c.734 0 2.831-.554 4.857-1.317 2.027-.763 5.175-2.5 5.217-2.533.23-.182.44-.457.246-.897-.058-.133-10.522-11.846-10.522-11.846L9.2 6.383c-.185.052-.383.08-.584.08-1.18 0-2.153-.985-2.153-2.181 0-.264.116-.492.201-.727H0zm4.274 9.813a1.073 1.073 0 0 0-1.043 1.09c0 .288.103.533.28.727l7.82 5.656a.762.762 0 0 0 1.076-.17.721.721 0 0 0-.157-1.045c-2.456-1.98-4.828-4.082-7.303-6.042a1.08 1.08 0 0 0-.673-.216z" fill="#FFF"/></symbol><symbol viewBox="0 0 24 28" id="a-values-1" xmlns="http://www.w3.org/2000/svg"><path d="M21.028 0H6.985C5.35 0 4.012 1.388 4.012 3.085v1.042h-1.04C1.337 4.127 0 5.515 0 7.212v17.703C0 26.612 1.337 28 2.972 28h14.043c1.635 0 2.973-1.388 2.973-3.085v-1.042h1.04c1.635 0 2.972-1.388 2.972-3.085V3.085C24 1.388 22.663 0 21.028 0zm-3.27 24.915c0 .424-.334.771-.743.771H2.972c-.409 0-.743-.347-.743-.771V7.212c0-.424.334-.771.743-.771h1.04v14.347c0 1.697 1.338 3.085 2.973 3.085h10.774v1.042zm1.115-16.27c.594.04 1.077.54 1.115 1.158 0 .655-.483 1.157-1.115 1.157H9.548c-.632 0-1.115-.502-1.115-1.157.038-.618.52-1.119 1.115-1.157h9.325zm0 4.937c.594.039 1.077.54 1.115 1.157 0 .656-.483 1.157-1.115 1.157H9.548c-.632 0-1.115-.501-1.115-1.157.038-.617.52-1.118 1.115-1.157h9.325z" fill="#FFF"/></symbol><symbol viewBox="0 0 20 26" id="a-values-2" xmlns="http://www.w3.org/2000/svg"><g fill="none"><path d="M8.25 25.044l.975.692c.214.153.5.153.714 0l.977-.692c1.811-1.271 3.682-2.605 5.16-4.023 2.114-2.035 3.09-3.943 3.09-6.003V7.433a3.744 3.744 0 0 0-1.95-3.295L11.342.948a3.683 3.683 0 0 0-3.518 0l-5.873 3.19A3.744 3.744 0 0 0 0 7.433v7.585c0 2.06.986 3.968 3.091 6.003 1.478 1.418 3.351 2.752 5.16 4.023z" fill="#F8868C" opacity=".8"/><path d="M8.75.596v24.803l-.5-.355c-1.808-1.271-3.68-2.605-5.159-4.023C.986 18.986 0 17.078 0 15.018V7.433C0 6.056.749 4.79 1.95 4.138L7.825.948C8.12.786 8.431.67 8.75.595zm10.417 6.833v7.591-7.59z" fill="#FFF"/></g></symbol></svg>