<svg xmlns="http://www.w3.org/2000/svg" xmlns:xlink="http://www.w3.org/1999/xlink" width="111" height="47" viewBox="0 0 111 47"><defs><path id="md7ua" d="M376.25 39.95l.14-.27h2.21l.02-.06h-2.16l.13-.27h2.08v-.07h-2.08l.14-.27h1.97v-.06h-1.9l.13-.27h1.77v-.07h-1.77l.13-.26h1.61v-.07h-1.54l.14-.27h1.34a3.63 3.63 0 0 0-3.54-2.77c-2.01 0-3.64 1.61-3.64 3.6 0 1.98 1.63 3.6 3.64 3.6a3.64 3.64 0 0 0 3.46-2.49h-2.28"/><path id="md7ub" d="M378.52 43.61v27.51h-.25c-3.68-.02-6.42-2.15-6.6-6.4V43.61h6.85"/><path id="md7uc" d="M383.21 65.64V43.61h17.1v6h-10.08v4.72h9.35l.5 6h-9.51v10.8h-.26c-4.91-.05-6.98-1.98-7.1-5.49"/><path id="md7ud" d="M423.82 61.27c-5.98.03-11.8.02-12-.07-.19-.1 5.46-.43 11.39-.75l-.75-.99c-5.47.02-10.45 0-10.63-.08-.19-.1 4.65-.38 10.07-.67l-.8-1.06c-4.91.01-9.1 0-9.27-.09-.17-.08 3.9-.33 8.76-.6l-.38-.5a.2.2 0 0 1 0-.25l.27-.38c-4.64.01-8.5 0-8.65-.08-.18-.09 4.13-.35 9.17-.63l.82-1.1c-5.22 0-9.82 0-10-.09-.18-.1 4.95-.4 10.57-.7l.61-.83c-5.68.02-10.99 0-11.17-.08-.2-.1 5.72-.45 11.8-.77l5.58-7.61a.2.2 0 0 0-.17-.33h-8a.2.2 0 0 0-.18.09l-5.01 6.98a.21.21 0 0 1-.34 0l-3.8-5.29a4.3 4.3 0 0 0-3.5-1.78h-5.55a.2.2 0 0 0-.18.32l8.68 12.28a.2.2 0 0 1 0 .24L400.72 70.8a.2.2 0 0 0 .17.32h7.97a.2.2 0 0 0 .17-.08l6.47-8.87a.2.2 0 0 1 .34 0l4.28 5.86a7.55 7.55 0 0 0 6.1 3.1h4.56a.2.2 0 0 0 .17-.34l-7.14-9.52"/><path id="md7ue" d="M320.74 66.62a.8.8 0 0 0 .81.5c11.7-.8 23.41-.5 34.96.87 1.46.17 2.93-.56 3.4-1.93.42-1.18-.51-2.37-1.78-2.41-12.44-.42-24.84.37-37 2.34a.48.48 0 0 0-.39.63"/><path id="md7uf" d="M320.01 54.31c-.08.3.18.6.5.57 12.65-.87 25.3-.54 37.8.96 1.23.15 2.3-.92 1.95-2.1a3.46 3.46 0 0 0-3.3-2.41c-12.13-.31-24.23.45-36.14 2.27a.98.98 0 0 0-.8.71"/><path id="md7ug" d="M325.86 59.59c-.29.05-.47.32-.45.6.02.29.24.52.53.5 12.73-.94 20.43-.28 32.5 1.34 1.32.17 2.57-.74 2.6-2.05.05-1.34-1.07-2.41-2.42-2.47-12.4-.49-20.16.01-32.76 2.08"/><path id="md7uh" d="M349.8 42.49c.81.04 1.11-1.04.38-1.42a21 21 0 0 0-18.85-.18c-.73.37-.39 1.44.43 1.41 6.02-.19 12.04-.12 18.04.19"/><path id="md7ui" d="M329.8 46.7a2.2 2.2 0 0 0-1.52.92c-.24.34.03.79.45.77 10.55-.56 17.11-.16 27.12.97 1.15.13 1.96-1.12 1.28-2.06a5.66 5.66 0 0 0-4.6-2.2c-8.58-.05-13.78.42-22.72 1.6"/><path id="md7uj" d="M356.64 72.02c.73-.93.06-2.27-1.14-2.3-9.96-.26-17.61.1-27.66 1.6-.38.05-.58.48-.33.77.33.4.84.61 1.36.59 8.74-.41 15.02.1 23.34 1.01a4.9 4.9 0 0 0 4.43-1.67"/><path id="md7uk" d="M425.27 79.19c0-1.43 1.42-2.33 2.82-2.33 1.58 0 2.63.72 2.65.73l.05.03-.82 1.5-.07-.04s-.83-.51-1.67-.51c-.64 0-.93.24-.93.6 0 .34.73.63 1.72 1 .95.35 1.98 1.07 1.98 2.08 0 1.82-1.55 2.46-3.22 2.46-2.02 0-3.19-1-3.2-1.03l-.05-.03 1.01-1.57.07.06s1.12.83 2.02.83c.44 0 1.15-.03 1.15-.66 0-.47-.84-.7-1.87-1.16-1.04-.44-1.64-1.15-1.64-1.96zm-6.86-.68v1.85h.15c.73 0 1.52-.05 1.52-.92 0-.88-.79-.93-1.52-.93zm-2.08 6.06V77h3.1c1.59 0 2.78.77 2.78 2.27 0 1.12-.66 1.88-1.63 2.2l2.86 3.1h-2.56l-2.47-2.86v.75c0 1.13-1 2.1-2 2.11zm-2.95 0h-3c-2.07 0-1.92-1.25-1.97-1.66V77h4.97v1.65h-2.9v1.3h2.79v1.65h-2.8v1.32h2.91zm-9.8-3.85l3.57 3.85h-2.77l-3-3.7v1.86c0 1.12-.82 1.83-2 1.84h-.07V77h2.02v3.57l2.84-3.57h2.45zm-9.72-2.06c-1.41 0-2.08 1.05-2.08 2.12 0 1.08.58 2.12 2.08 2.12 1.47 0 2.08-1.04 2.08-2.12 0-1.07-.65-2.12-2.08-2.12zm0 6.05c-2.52 0-4.27-1.72-4.27-3.93s1.93-3.92 4.27-3.92c2.37 0 4.26 1.71 4.26 3.92 0 2.2-1.8 3.93-4.26 3.93zm-10.48-6.2v1.85h.14c.74 0 1.53-.05 1.53-.92 0-.88-.79-.93-1.53-.93zm-2.08 6.06V77h3.1c1.59 0 2.78.77 2.78 2.27 0 1.12-.66 1.88-1.63 2.2l2.86 3.1h-2.57l-2.46-2.86v.75c0 1.13-1 2.1-2 2.11zm-9.06 0v-6.12c0-.6.36-1.37 1.24-1.41h1.98c1.7 0 2.68.76 2.68 2.18 0 .62-.24 1.13-.64 1.5.57.38.9.96.9 1.7 0 1.43-1.26 2.15-2.94 2.15zm2.3-3.1h-.16v1.65h.16c.79 0 1.61-.04 1.61-.83 0-.77-1.17-.82-1.6-.82zm-.16-2.96v1.65h.16c.78 0 1.34-.03 1.34-.83 0-.8-.56-.82-1.34-.82z"/></defs><g><g transform="translate(-320 -38)"><g><use fill="#fff" xlink:href="#md7ua"/></g><g><use fill="#fff" xlink:href="#md7ub"/></g><g><g><use fill="#f30830" xlink:href="#md7uc"/></g><g><use fill="#f30830" xlink:href="#md7ud"/></g><g><use fill="#f30830" xlink:href="#md7ue"/></g><g><use fill="#f30830" xlink:href="#md7uf"/></g></g><g><use fill="#f30830" xlink:href="#md7ug"/></g><g><use fill="#f30830" xlink:href="#md7uh"/></g><g><use fill="#f30830" xlink:href="#md7ui"/></g><g><use fill="#f30830" xlink:href="#md7uj"/></g><g><use fill="#fff" xlink:href="#md7uk"/></g></g></g></svg>